<?xml version="1.0" encoding="UTF-8"?>
<svg version="1.1" viewBox="0 0 1800 1800" width="450" height="450" xmlns="http://www.w3.org/2000/svg">
<path transform="translate(656,140)" d="m0 0h18l19 3 16 6 14 8 11 9 12 12 10 15 7 16 4 14 2 14h134l5-15 9-17 11-13 9-8 14-9 16-6 10-2 15-1h94l21 1 16 4 16 8 11 8 9 8 9 12 8 15 5 15 154 1 15 1 1 3v110l1 2 11 4 10 8 6 8 4 8 2 13v51l-2 15-6 12-9 9-14 7h-3v131l39 1 9 3 4 6 3 20 4 10 6 8 10 7 11 4h17l9-3 9-5 9-8 2-1h7l11 7 12 11 11 12 7 11 1 5-7 9-7 10-4 11-1 11 3 14 6 10 7 7 14 7 19 3 7 6 2 7v43l-3 8-5 4-2 1-15 1-10 3-9 6-7 7-6 12-2 7v12l3 10 6 10 8 10 2 6-4 8-9 10-7 8-10 9-8 6-5 3-7-1-9-7-9-6-9-3-5-1h-12l-10 3-8 5-8 8-6 12-1 3-2 16-3 5-4 4-3 1-11 1h-31l1 509 193 1v-11l1-19 2-3 12-2 17-1h17l-5-15-3-5-10-6-25-10-26-11-13-8-13-13-12-18-7-12-9-21-1-7 4-4 8 1 10 5 8 8 10 15 7 6 18 8 3 3 7 18 4 6 10 9 13 10 12 11 7 10 5 12 2 8h3l-2-15-3-36-4-28-8-17-13-21-21-32-16-25-10-15-11-17-19-29-15-23-24-36v-3l9 1 14 3 13 5 11 8 8 11 18 11 26 14 11 8 6 8 6 28 4 10 6 10 8 10 6 12 3 14v25l-5 36 1 16 3 32 1 23v12h11v-35l2-34 4-31 5-17 6-12 13-13 19-14 8-7 5-8 7-18 4-6 8-4 13-5 8-7 14-20 8-8 14-7h7l4 3v9l-6 15-8 16-8 14-10 14-9 10-8 8-14 8-20 9-18 8-15 8-11 8-4 4-4 13-4 28-4 47-2 24 23 1 13 2 1 2 2 30h42l22 1 6 4 4 7v68l-3 6-7 6-26 1h-1586l-10-1-8-7-2-5v-68l4-7 6-4 10-1h56l2-10 1-1 11-1h22l-6-21-3-5-10-6-27-11-25-10-17-9-10-8-10-11-14-21-12-23-5-13-1-7 5-5 8 1 10 5 10 9 11 16 9 9 10 4 12 6 5 10 6 15 5 6v2l4 2 17 13 10 9 8 8 7 10 5 13 2 8v4h8l-4-45-2-12-8-16-13-20-15-23-11-17-19-29-17-26-12-18-2-5 11 1 12 4 8 5 10 11 18 10 14 8 8 7 3 9 4 17 4 8 8 11 4 8 2 9v16l-2 19v13l3 17 1 16v22h12l12 1 2 1 2 10 203 1v-272l-5-4-8-4-14-3h-9l-16 4-11 7-8 8-8 14-6 9-4 4h-12l-19-6-20-8-14-7-6-7-1-9 4-15v-21l-4-13-6-9-8-8-10-6-9-3-5-1h-18l-18 5h-7l-7-4-6-9-8-16-9-21-4-14 1-6 5-6 15-9 10-8 7-10 4-8 2-10v-13l-4-16-7-11-9-8-22-12-4-7v-9l10-30 7-16 6-9 5-5 5-2 21 5h18l13-4 9-5 9-8 6-9 4-12 1-5v-15l-5-16-1-3v-9l6-7 17-10 20-9 15-5 4-1h8l5 3 12 20 8 9 14 8 10 3h18l13-4 11-7 8-8 1-11v-299l-5-6-4-2-46-1-20-4-16-7-12-8-10-9-10-11-9-15-6-16-3-15v-21l3-16 5-13 6-12 10-13 10-10 11-8 16-8 13-4 13-2h54v-94l1-1 111-1 5-24 6-15 8-14 9-11 9-9 14-10 14-7 16-5zm695 485-1 5v126l2 1 7-1h19l16 4 12 6 11 9 8 9 8 15 4 17v16l-4 17-7 13-9 11-11 9-15 7-13 3h-17l-10-1-1 1v128l1 2h37l7-2 2-3 3-20 7-14 6-7 10-7 13-4h16l13 4 11 7 9 7 5-2 10-8 13-12 9-11 3-5-1-7-10-13-5-11-2-10v-7l3-12 5-9 9-10 9-6 11-4 14-1 6-3 2-6 1-10v-22l-1-12-3-6-5-2-14-2-13-5-9-7-7-9-5-11-1-5v-16l3-10 7-11 7-9v-6l-6-8-9-10-11-11-10-7-5-1-13 10-12 6-13 2-13-1-10-4-9-6-7-8-5-10-3-13-2-12-3-3-2-1-11-1zm8 134-8 2-1 5v120l2 2 7 1h16l12-2 12-5 11-7 8-8 7-10 5-11 3-11v-20l-4-16-5-10-9-11-10-8-16-8-14-3zm-1017 66-17 5-24 11-11 6-6 6 1 9 5 15v20l-4 14-6 10-8 9-11 7-10 4-10 2h-17l-17-4-7 1-5 7-9 20-7 19-3 11v6l4 5 16 8 9 7 8 9 7 14 2 8v19l-4 14-7 11-10 10-11 7-9 6-2 2v7l6 18 9 21 8 14 6 4h7l17-5h21l13 4 14 9 8 9 7 14 3 11v16l-5 19 1 6 5 5 16 8 24 9 11 3h8l5-6 9-16 9-10 10-7 11-5 12-2 16 1 12 4 5 3h2l1-14v-107l-10 3-12 3-9 1h-15l-15-3-15-6-11-7-11-9-9-12-8-15-5-17-1-10v-11l2-14 5-14 6-11 11-14 9-8 13-8 12-5 11-3 9-1h11l19 3 10 4h2l1-3v-128l-5 2-7 6-14 7-15 3-13-1-12-4-9-5-6-5h-2l-2-4-7-10-6-11-5-4zm65 154-16 3-13 5-12 7-12 11-8 10-8 16-4 15v26l4 15 8 16 9 11 10 9 13 8 13 5 16 3h14l11-2 16-5 1-1 1-11v-131l-6-4-13-4-13-2z" fill="#FCFCFB"/>
<path transform="translate(1114,673)" d="m0 0h5v41l2 11 13 14 11 14 18 27 13 24 10 22 7 20 6 20 5 21 4 28 2 20v45l-3 29-5 29-3 9h-29v-42l-3-30-5-25-6-23-4-13-4-9-4-10-7-15-3-9h-3l-1 11-7 27-6 29-1 6v14l15 59 13 49 3 10 2 11v5l-12-6-7-4 1 13 2 69 1 56 2 48 2 12 7 11 8 22 6 24 4 21 5 37 5 53 2 39 3 90v16h-125v-2l15-6 34-15 33-14-1-10-4-18-3-11-3-14-6-29-8-32-11-49-9-39-9-42-8-38-6-25-3-15-3-13-2-8-2-1-2 12-2 5-4 16-6 17 1 5 3 8 2 14v48l-3 30-6 44-9 51-11 57-5 26-2 8v10l2 26v4h-125l3-3 68-30 12-5 3-72 9-266 4-114 1-14h-6v-155l-9 6-11 6-16 9-23 10-13 6h-3l-4-10-1-3-4-2-6-7 14-8 17-14 12-11 9-10 9-11 12-15 12-17 5-8v-20l3-10 11-30 17-48 13-34 5-5 18-10 33-14 20-8z" fill="#094F81"/>
<path transform="translate(659,541)" d="m0 0h19l13 5 13 10 12 13 11 9 4 7-2 10-5 9-10 11-11 9-15 10-24 12-17 6-10 4 1 4 6 9 5 5 4 1 7 1 4 5-1 6-7 16-2 4 8 9 12 9 20 12 5 2v-2l-3-1-3-7-1-5v-23l2-2 14 4-1 15-2 14v14l10 15 13 21 10 18 9 18v14l-5 25-4 23-1 3v9l5 12 8 9 2 1v2l4 2 10 9 17 11 26 13 16 5 23 4 14 1 1 3-2 15h-33l-23-4-21-6-17-7-19-9h-3l-1 5-5 9-4-1-3-4-3-6-2-2 1 9 4 16 3 33v76l-4 67-6 64-5 46-4 31-2 5h-40l-49-1-21-1-8-1v-7l10-53 11-54 3-23v-26l-3-24-4-17-4-13-2-8-4-18-2-15v-16l4-20 6-14 8-12 8-10 9-10 7-8 4-16 1-13-3-12-15-32-5-11-4 1-13 7-14 5-9 3-16 4-14 2h-20l-22-3-23-9-14-9-8-8-5-8-2-6v-19l5-17 8-15 9-11 10-10 13-9 17-8 24-9 14-7 10-8 6-8 5-10 3-11 1-7v-21l-2-20-2-10-1-12v-17l3-16 6-14 7-9 6-7 13-10 16-9 16-7z" fill="#094F81"/>
<path transform="translate(395,333)" d="m0 0h80l55 1 16 2 3 1v2l9 2 10 5 1 3 5 2 10 9 8 9 2 1 6 11 8 15 5 17v30l-5 19-5 13h-2l-2 5-6 9-14 15-15 9-16 7-14 4-9 1-32 1 6 12 9 17 20 30-1 4-14-9-4-4v-2l-5-2-14-10-17-12-13-10-7-6-5-2-6-5-2-1-46-1-20-4-16-7-12-8-10-9-10-11-9-15-6-16-3-15v-21l3-16 5-13 6-12 10-13 10-10 11-8 16-8 13-4z" fill="#FDBF5C"/>
<path transform="translate(992,166)" d="m0 0h94l21 1 16 4 16 8 11 8 9 8 9 12 8 15 5 15 1 1v27l-6 26-2 4h-2l-2 6-2 4h-2v3h-2l-2 5-4 5-5 4-2 3-9 5-4 3h-2v2l-11 4-12 5-13 1-53 1-20 1 1 5 6 12 3 3v3h2l1 6-10-5v-2l-5-2-14-8-15-9-7-4-15-2-18-6-16-8-1-2-5-2v-2l-4-2-2-2v-3l-4-1-4-7-3-3v-2h-2v-3h-2l-1-5h-2l-5-16-3-25-1-16 2-2 5-15 9-17 11-13 9-8 14-9 16-6 10-2z" fill="#FDBF5C"/>
<path transform="translate(1122,354)" d="m0 0 43 1h123l62-1 9 2 11 7 8 9 5 10 2 13v51l-2 15-6 12-9 9-14 7-6 2-66-1h-100l-10 2-15 11-17 12-9 6-4 1 2-6 9-17 4-7v-2l-20-1-18-9-8-10-3-5-3-13v-51l1-17 4-9 7-9 11-8z" fill="#FDBF5C"/>
<path transform="translate(659,541)" d="m0 0h19l13 5 13 10 12 13 11 9 4 7-2 10-5 9-10 11-11 9-15 10-24 12-17 6-10 4 1 4 6 9 5 5 4 1 7 1 4 5-1 6-7 16-10 7-10 10-11 16-7 16-4 14-2 9v29l4 26 8 32v2h-2l-1 3-13 7-14 5-9 3-16 4-14 2h-20l-22-3-23-9-14-9-8-8-5-8-2-6v-19l5-17 8-15 9-11 10-10 13-9 17-8 24-9 14-7 10-8 6-8 5-10 3-11 1-7v-21l-2-20-2-10-1-12v-17l3-16 6-14 7-9 6-7 13-10 16-9 16-7z" fill="#094F81"/>
<path transform="translate(656,140)" d="m0 0h18l19 3 16 6 14 8 11 9 12 12 10 15 7 16 4 14 1 6v8l-7 6 1 5 6 2-1 10-3 14-8 20h-2l-1 4-11 15h-2l-1 4h-2l-2 5-3 3-4 5-3 4h-2l-1 4h-2l-1 4-6 6-1 3-3 2-2 4-6 5-2 4-4 4-4 7-3 2-1 3-3 2-1 3-6 4-1-1 1-14 5-24 1-1v-5h-28l-21-4-12-5-13-7-13-10-8-7-3-5-5-4-2-7h-2v-3h-2l-7-20-4-17-2-12v-8l5-24 6-15 8-14 9-11 9-9 14-10 14-7 16-5z" fill="#FDBF5C"/>
<path transform="translate(1454,1204)" d="m0 0 9 1 14 3 13 5 11 8 8 11 18 11 26 14 11 8 6 8 6 28 4 10 6 10 8 10 6 12 3 14v25l-5 36 1 16 3 32 1 23v12h11v-35l2-34 4-31 5-17 6-12 13-13 19-14 8-7 5-8 7-18 4-6 8-4 13-5 8-7 14-20 8-8 14-7h7l4 3v9l-6 15-8 16-8 14-10 14-9 10-8 8-14 8-20 9-18 8-15 8-11 8-4 4-4 13-4 28-4 47-2 24 23 1 13 2 1 2 2 30 2 1-4 24-5 23-6 15-9 13-8 7-11 5-8 2h-15l-13-4-11-7-10-11-6-13-5-17-4-25-1-12 2-30 2-3 12-2 17-1h17l-5-15-3-5-10-6-25-10-26-11-13-8-13-13-12-18-7-12-9-21-1-7 4-4 8 1 10 5 8 8 10 15 7 6 18 8 3 3 7 18 4 6 10 9 13 10 12 11 7 10 5 12 2 8h3l-2-15-3-36-4-28-8-17-13-21-21-32-16-25-10-15-11-17-19-29-15-23-24-36z" fill="#97D2FC"/>
<path transform="translate(693,699)" d="m0 0 15 4-1 15-2 14v14l10 15 13 21 10 18 9 18v14l-5 25-4 23-1 3v9l5 12 8 9 2 1v2l4 2 10 9 17 11 26 13 16 5 23 4 14 1 1 3-2 15h-33l-23-4-21-6-17-7-19-9h-3l-1 5-5 9-4-1-3-4-3-6-2-2-2 2-1-3-23-1-58-1 4-17 1-13-3-12-15-32-5-11-3-2h2l-5-18-5-21-3-21v-29l4-17 6-16 6-11 10-13 11-11 6-3 1 4 7 8 12 9 20 12 5 2v-2l-3-1-3-7-1-5v-23z" fill="#2D98F3"/>
<path transform="translate(619,1300)" d="m0 0h55l27 2v14l-5 43-1 4-3 34-7 79-4 42v14l3 4 4 8 10 14 9 10 5 5 4 2 1 2 3 1 3 3 3 1v2l5 2 10 5v2l-19 1h-55l-26-1h-13l-2-80-8-103-1-26v-69l1-12z" fill="#FCD3B2"/>
<path transform="translate(1119,722)" d="m0 0 4 5 11 12 11 14 18 27 13 24 10 22 7 20 6 20 5 21 4 28 2 20v45l-3 29-5 29-3 9h-29v-42l-3-30-5-25-6-23-4-13-4-9-4-10-7-15-3-9-3-1h2l-1-7-7-8-6-10-3-6-7-9-12-20-4-6-1-4 1-6-4-2-4-4v-2l-5-2-7-11-3-8-1-7-1-1 1-10 3-7h2v-2h2v-2h2l2-4 3-3 10-3 12-3h7l5 2v-2z" fill="#105A88"/>
<path transform="translate(1136,1262)" d="m0 0h38l7 1v2l8 1 11 4 14 7 10 8 5 3 4 4 3 5 10 14 8 16 6 17 1 9v22l-2 14-10 29-6 9-5 5-3 5-3 3-5 3-4 5h-3l-2 4-12 6h-2v2l-18 6h-3v2h-9l-1-5-5-60-5-38-4-23-6-25-7-20-4-9-5-8-2-12v-5z" fill="#FDBF5C"/>
<path transform="translate(110,1313)" d="m0 0 11 1 12 4 8 5 10 11 18 10 14 8 8 7 3 9 4 17 4 8 8 11 4 8 2 9v16l-2 19v13l3 17 1 16v22h12l12 1 2 1 2 10 2 1-4 34-4 15-7 13-8 7-12 6h-15l-10-5-9-8-8-14-3-9-4-28-1-11 2-1 2-10 1-1 11-1h22l-6-21-3-5-10-6-27-11-25-10-17-9-10-8-10-11-14-21-12-23-5-13-1-7 5-5 8 1 10 5 10 9 11 16 9 9 10 4 12 6 5 10 6 15 5 6v2l4 2 17 13 10 9 8 8 7 10 5 13 2 8v4h8l-4-45-2-12-8-16-13-20-15-23-11-17-19-29-17-26-12-18z" fill="#97D2FC"/>
<path transform="translate(1131,871)" d="m0 0h3l3 5 4 10 6 14 4 9 7 21 7 28 4 24 2 23v30l-1 12h25v1l-22 1-4 4-2 7-1 8-5 11-4 10-1 3h26l9-3h3l1-10v-7l2-4 25 2 2 29 28 1 4 1v47l-1 3-5-1-2-1h-7l-3 2-15 2-10-1-15-6v11l-1 8h-40l-2-13-11 1-10-3 1 64v33h-1l-1-27-2-97-1-28v-13l4 1 14 8-1-8-3-14-11-41-17-66-1-4v-14l5-25 6-25z" fill="#FAFBFB"/>
<path transform="translate(1454,1204)" d="m0 0 9 1 14 3 13 5 11 8 8 11 18 11 26 14 11 8 6 8 6 28 4 10 6 10 8 10 6 12 3 14v25l-5 36 1 16 3 32 1 23v12l-3 3-6 3-1-1-3-14-3-8-5-5-16-8-26-10-20-9-10-7-12-12-12-18-7-12-9-21-1-7 4-4 8 1 10 5 8 8 10 15 7 6 18 8 3 3 7 18 4 6 10 9 13 10 12 11 7 10 5 12 2 8h3l-2-15-3-36-4-28-8-17-13-21-21-32-16-25-10-15-11-17-19-29-15-23-24-36z" fill="#2E98F3"/>
<path transform="translate(1088,521)" d="m0 0h9l9 3 8 7 8 11 6 7 15 10 3 5-1 8-2 7v5l5 6 3 10-1 7-3 8-6 11-13 16-8 10-10 14-5 5-3 1-12-19-4-8-2-20 8-6 4-6 2-5v-8l-3-3-7-1-4 4-10 23-2 1h-9l-2-5-4-13-2-5-1-25-17-4-13-5-13-8-7-6-4-7-1-7 3-7 5-6 7-4h11l24 12 16-6 13-5z" fill="#095082"/>
<path transform="translate(1024,571)" d="m0 0h8l1 1h7l14 3 1 1 1 25 5 13 2 9h11l1-5 9-20 4-3 7 1 4 4v8l-4 8-6 7-4 2 2 20 5 10 11 17-2 1-2 5-12 6-20 8-16 7-5-2-1-5 2-20-17 2h-13l-4-4-7-14-2-22v-18l3-16 8-20 4-6z" fill="#FEE7CF"/>
<path transform="translate(1197,1068)" d="m0 0 25 2 2 29 28 1 4 1v47l-1 3-5-1-2-1h-7l-3 2-15 2-10-1-15-6v11l-1 8h-40l-2-13-11 1-10-3 1 64v33h-1l-1-27-2-97-1-28v-13l4 1 7 4-3 1 4 10h70v-19l-16 1-1-1v-7z" fill="#96D2FB"/>
<path transform="translate(1752,1255)" d="m0 0h7l4 3v9l-6 15-8 16-8 14-10 14-9 10-8 8-14 8-20 9-18 8-15 8-11 8-4 4-4 13-4 28-4 47-2 29-5-1 1-39 2-34 4-31 5-17 6-12 13-13 19-14 8-7 5-8 7-18 4-6 8-4 13-5 8-7 14-20 8-8z" fill="#2F99F3"/>
<path transform="translate(724,613)" d="m0 0 3 1 1 4 1 21v17l-3 19-6 17-5 8-7 2-10-1-4-1-1 1v23l3 10 3 3v2l-9-3-22-14-11-10-4-6 7-14 3-8-1-4-4-4h-7l-6-4-5-8 2-5 3-3 9-4 3-2h7v-2l7-3 3-3 8-4 7-2 8-4 6-5 11-6z" fill="#FEE6CF"/>
<path transform="translate(1198,1146)" d="m0 0 4 1 15 5h8l13-2 3-2h7l7 3 1-3v54l-116 1-5-1-1 3v-55l10 2h11l2 7v6h40z" fill="#C4E8FC"/>
<path transform="translate(110,1313)" d="m0 0 11 1 12 4 8 5 10 11 18 10 14 8 8 7 3 9 4 17 4 8 8 11 4 8 2 9v16l-2 19v13l3 17 1 16v24l-5 1-4-48-2-12-8-16-13-20-15-23-11-17-19-29-17-26-12-18z" fill="#2E99F3"/>
<path transform="translate(341,820)" d="m0 0h8l5 3 12 20 8 9 14 8 10 3h18l13-4 11-7 8-8h1v7l-11 9-14 7-15 3-13-1-12-4-9-5-8-6-9-12-7-13-4-3-10 1-19 7-25 12-8 7 1 9 5 15v20l-4 14-6 10-9 10-11 7-10 4-10 2h-17l-17-4h-7l-10 20-10 26-3 11v6l5 5 16 8 12 11 7 10 5 13 1 4v19l-4 14-7 11-11 11-11 7-9 6-1 1v7l6 18 9 21 8 14 5 3h7l17-5h21l13 4 14 9 9 10 7 14 3 11v16l-5 19 1 6 5 5 20 9 19 7 11 3h8l4-5 9-16 9-10 11-8 11-5 12-2 16 1 12 4 6 4-1 4-5-1-9-4-11-2h-9l-16 4-11 7-8 8-8 14-6 9-4 4h-12l-19-6-20-8-14-7-6-7-1-9 4-15v-21l-4-13-6-9-8-8-10-6-9-3-5-1h-18l-18 5h-7l-7-4-6-9-8-16-9-21-4-14 1-6 5-6 15-9 10-8 7-10 4-8 2-10v-13l-4-16-7-11-9-8-22-12-4-7v-9l10-30 7-16 6-9 5-5 5-2 21 5h18l13-4 9-5 9-8 6-9 4-12 1-5v-15l-5-16-1-3v-9l6-7 17-10 20-9 15-5z" fill="#FDC062"/>
<path transform="translate(1074,1301)" d="m0 0h5l4 16 12 54 18 80v6l-4 1-12-6-10-9-14-14-8-13-6-13-4-14-3-18v-12l5-29 8-15 6-12z" fill="#FDBF5D"/>
<path transform="translate(66,1374)" d="m0 0 8 1 10 5 10 9 11 16 9 9 10 4 12 6 5 10 6 15 5 6v2l4 2 17 13 10 9 8 8 7 10 5 13 3 14-5 1-1-2-1-8-4-14-3-5-10-6-27-11-25-10-17-9-10-8-10-11-14-21-12-23-5-13-1-7z" fill="#2F99F3"/>
<path transform="translate(662,1531)" d="m0 0h15l5 5 7 9 9 13 9 10 5 5 4 2 1 2 3 1 3 3 3 1v2l5 2 7 4v2l-36 1h-18l-38-1-1-1-1-14-1-6h-3l-1 20-1 1h-8l-1-1v-57l1-1z" fill="#FDBF5C"/>
<path transform="translate(688,1306)" d="m0 0 8 2 1 1v15l-3 54-4 41-5 57-4 42v14l3 4-1 2-4-4v-2h-17l-33 2 1-3 8-4 12-2h2v-2l4-2 6-20 5-37 3-28 2-22 2-28 3-18 2-18 3-16h2l-2-14-1-9z" fill="#F9CBA0"/>
<path transform="translate(985,847)" d="m0 0 2 3-1 6 2 1-1 6h-2v68l-4 5-10 6-14 8-16 8-16 7-13 6h-3l-4-10-1-3-4-2-6-7 14-8 17-14 12-11 9-10 9-11 12-15 12-17 5-8z" fill="#0A4169"/>
<path transform="translate(1646,1503)" d="m0 0 8 1 1 2 2 30 2 1-4 24-2 10-1-3h-9l-25-11-23-13-18-11-13-10-11-8-5-5 3-1 5 2 14 3 20-1 6 1 5-2v-1l13-1 1-2 7 1h12l12-2z" fill="#C4E8FB"/>
<path transform="translate(1351,621)" d="m0 0h39l9 3 4 6 3 20 4 10 6 8 10 7 11 4h17l9-3 9-5 9-8 2-1h7l11 7 12 11 11 12 7 11 1 5-7 9-7 10-4 11-1 11 3 14 6 10 7 7 14 7 19 3 7 6 2 7v43l-3 8-5 4-2 1-15 1-10 3-9 6-7 7-6 12-2 7v12l3 10 6 10 8 10 2 6-4 8-9 10-7 8-10 9-8 6-5 3-7-1-9-7-9-6-9-3-5-1h-12l-10 3-8 5-8 8-6 12-1 3-2 16-3 5-4 4-3 1-11 1h-30l-1-5 38-1 7-2 1-2 3-20 7-14 7-8 10-7 13-4h16l13 4 11 7 9 7 5-2 10-8 12-11 9-11 3-5-1-7-10-13-5-11-2-10v-7l3-12 5-9 9-10 8-6 13-5 14-1 5-2 2-6 1-10v-22l-1-12-2-5-5-2-14-2-13-5-9-7-6-7-7-14-1-5v-16l3-10 7-11 7-9v-6l-6-8-9-10-10-10-10-7-5-1-13 10-12 6-13 2-13-1-10-4-9-6-8-9-5-10-3-13-2-14-15-2-30-1z" fill="#FDC063"/>
<path transform="translate(975,1555)" d="m0 0h37l2 16 1 22h-125l3-3 68-30z" fill="#094F81"/>
<path transform="translate(179,1524)" d="m0 0h22v2l4-1v-1h8v3l4-1 1-2h12l12 1 2 1-1 5-3 1-1 3-8 5-7 5-11 6-10 6-15 7-11 5-8 2v5h-1l-4-28-1-11 2-1 2-10 1-1z" fill="#C5E9FC"/>
<path transform="translate(407,974)" d="m0 0h11l19 3 10 4 1 4-4 1-13-4-13-2h-11l-16 3-13 5-12 7-12 11-8 11-7 14-4 15v26l4 15 8 16 9 11 9 8 13 8 13 5 16 3h14l11-2 13-4h4l-1 5-15 5-14 2h-15l-15-3-15-6-11-7-11-9-10-13-8-15-5-17-1-10v-11l2-14 5-14 6-11 11-14 10-9 13-8 12-5 11-3z" fill="#FDC064"/>
<path transform="translate(1319,348)" d="m0 0h31l2 7-82 1h-105l-43-1-14 7-8 7-5 7-3 8-1 27v41l4 15 5 6v2l-4-2-4-6-3-10-2-3v-55l2-15 7-14 10-10 15-8 5-1 39-1 138-1z" fill="#F9CDA4"/>
<path transform="translate(878,940)" d="m0 0h8l5 5 11 12 5 5 2 7-1 9-1 2h-2l-2 4-6 7-2 1-10-1-13-6v-6h-8l-1-5 2-12 4-3 3-12z" fill="#F9CBA0"/>
<path transform="translate(1173,1048)" d="m0 0h19l3 5 3 11-1 5-1 3v9l-2 8-10 3-2 1h-26v-4l5-12 4-9 2-12 3-6z" fill="#FCD3B3"/>
<path transform="translate(1082,652)" d="m0 0 5 1 6 8 5 9-1 5-1 2-6 1-3 4-4 2-4 3-16 7h-15l-1-5 2-9 1-7 5-5 7-4 10-6 8-5z" fill="#FCD3B2"/>
<path transform="translate(1359,755)" d="m0 0h19l16 4 12 6 11 9 9 10 8 15 4 17v16l-4 17-7 13-9 11-8 7-10 6-12 5-10 2h-17l-9-1-1-4h24l12-2 12-5 11-7 7-7 7-10 5-11 3-11v-20l-4-16-5-10-8-10-10-8-16-8-14-3h-24l1-4z" fill="#FDC063"/>
<path transform="translate(1148,1078)" d="m0 0 12 1-1 6-3 5v2h26l9-3h3l1-8 4-2h13l1 3v16l-1 1h-70l-2-2-2-9h5l5 3z" fill="#FCFCFC"/>
<path transform="translate(1166,1250)" d="m0 0h16l18 5 18 8 11 7 6 4v2l4 2 8 8 7 10 8 14 7 16 2 16v25l-2 16-5 15-8 15-4 7h-2l-2 4-10 10v-3l7-8 4-8 9-26h1v7l1 2 6-18 1-7v-32l-2-12-7-17-7-14-7-9-11-11-16-10-16-8-15-4-15-2-5-3z" fill="#FEE6CE"/>
<path transform="translate(1119,724)" d="m0 0 7 6 12 14 10 13 15 23 13 24 10 22 7 20 4 12v7h-3l-3-6-2-7-5-10-3-9-4-10-5-13-6-11-3-7-2-7h-2l-9-15v-2l-4-2-6-11-11-10-3-5-8-9z" fill="#0B5387"/>
<path transform="translate(1158,1145)" d="m0 0h38v19l-1 1h-38l-1-6v-10z" fill="#2D98F3"/>
<path transform="translate(878,940)" d="m0 0h8l5 5 7 8v2h-2l-3-4v-2h-10v19l-5 10 1 5 4 2 8 2h6l5-2-5 6-2 1-10-1-13-6v-6h-8l-1-5 2-12 4-3 3-12z" fill="#FBD3B2"/>
<path transform="translate(1319,348)" d="m0 0h31v3l-10 1-47 1h-172v-1l5-1 39-1 138-1z" fill="#FFE7CF"/>
<path transform="translate(1119,917)" d="m0 0h1l-1 10-3 17v14l15 59 4 15v3l-3-1-5-7v-10l-3-7-2-7-3-4 1-12-4-4-3-12-2-3-3-15 1-12 4-17 3-5h3z" fill="#0B446D"/>
<path transform="translate(1088,595)" d="m0 0 7 1 4 4v8l-4 8-6 7-4 2 1 18-1-3h-2v-2h-2l-4-10v-5h-3l1-5 9-20z" fill="#F9FAF9"/>
<path transform="translate(1077,687)" d="m0 0 3 1-2 3-7 3-9 4-9 3-11 7-3 1-2 5-2 3h-2l-4 18-8 16-2 5-4 6-2 1-2 5h-1v-7l17-46 3-5 21-12z" fill="#0B456F"/>
<path transform="translate(837,958)" d="m0 0 27 2 2 2-2 15v2l-2 1-26 1-6 12-8 13-5 9-4 5-3 5-2 5-2 1-1-7-5-2-13-8-10-7-15-9-21-12v-2l6 2 24 14 24 15 9 6 4 1 5-8 8-13 10-17 2-4-13-1-21-4-15-4-13-6 3-1 16 6 20 5 18 3 33 1v-10l1-7-22-2z" fill="#C4E8FC"/>
<path transform="translate(671,692)" d="m0 0h6l8 4 3 6 2 5v8l-2 7-1 1h-7l-9-9-5-8 1-5z" fill="#FCD3B2"/>
<path transform="translate(693,699)" d="m0 0 15 4-1 15-3 20-2 3-6-5-3-7-1-5v-23z" fill="#105B8A"/>
<path transform="translate(721,977)" d="m0 0 2 4 2 1-1 9-1 5v8l1 8h2l3 16-1 3h-2l-1 4v-2h-2l-1 4h-2l1-4-3 1-1-4 1-9h-2l-1-11 1-5v-9l-2-7v-8l1-3 6 1z" fill="#0F5987"/>
<path transform="translate(1204,911)" d="m0 0h2l2 4 2 20v45h-3l-1-1-2 2 1-11-1-14-1-1-1-11 1-20v-12z" fill="#0B5387"/>
<path transform="translate(1182,489)" d="m0 0h100l69 1v3l-49-1h-122l-8 2-10 7-4 3-2-1 9-7 9-6z" fill="#FCD7B7"/>
<path transform="translate(765,1048)" d="m0 0h8l6 8-2 7-6 6h-7l-4-4-1-8 1-6z" fill="#FDC166"/>
<path transform="translate(809,1028)" d="m0 0 6 4-1 6-7 14-5 4-10 3v-4l9-16 6-9z" fill="#FFE7CF"/>
<path transform="translate(1269,1343)" d="m0 0h1v36l-5 16-8 17-5 8h-2l-2 4-10 10v-3l7-8 4-8 9-26h1v7l1 2 6-18 2-15z" fill="#FEE1C6"/>
<path transform="translate(1040,573)" d="m0 0 9 1 6 2 1 25 5 13 1 9-5-5-3-9-5-17-3-10-4-4v-3h-2z" fill="#F5FAFB"/>
<path transform="translate(179,1524)" d="m0 0h22v2l4-1v-1h8v3l4-1 1-2h12l10 1v2l-2 1-17 1h-6l-1 2h-6l-1-1h-14l-4-1-21-2v-2z" fill="#99D3FC"/>
<path transform="translate(1010,1561)" d="m0 0h2l2 10v21h-62v-1l5-1 48-1 5-4-1-5-2-12z" fill="#0B436C"/>
<path transform="translate(767,237)" d="m0 0 6 2 4 8-3 11-6 8-3 8-1-3 3-16v-5l-6-2-1-5z" fill="#FEE5CD"/>
<path transform="translate(1166,1250)" d="m0 0h16l18 5 18 8 11 7v3l-2 1-14-8-12-6-15-4-15-2-5-3z" fill="#FFE7CF"/>
<path transform="translate(975,1506)" d="m0 0h1v45l7-2 9 1h11l9 2 1-2-1 5-37 1-2-1z" fill="#146296"/>
<path transform="translate(1100,475)" d="m0 0 4 3v2l9 3 6 4 3 1 20 1 1 3-8 14-8 16 5-3 5-2-5 5-6 4h-2l1-6 8-16 3-5v-6l-2-1-14-1-12-5-6-4z" fill="#FCD9B9"/>
<path transform="translate(693,1373)" d="m0 0h1l-1 16-3 30-5 57-4 42-1 13h-1v-15l3-35v-8l1-4 3-39 2-16 4-39z" fill="#FDDBBE"/>
<path transform="translate(641,1573)" d="m0 0h3l1 4 1 14 38 1h54l1-2 2 1v2l-19 1h-55l-28-1z" fill="#FCDBBC"/>
<path transform="translate(1006,777)" d="m0 0h2l-1 11-8 24-5 5h-1v-8l11-31z" fill="#0C4671"/>
<path transform="translate(561,513)" d="m0 0h3v2l-17 7-12 3-2 1-32 1h-5l4 9 10 19 9 14 3 5-1 2-10-15-8-13-11-22 1-1 32-1 12-2 16-5z" fill="#FCD8B8"/>
<path transform="translate(1121,988)" d="m0 0h2l6 21 6 23v3l-3-1-5-7v-10l-3-7-2-7-3-4 1-8z" fill="#0C4873"/>
<path transform="translate(837,958)" d="m0 0 27 2 2 2-2 15v2l-2 1h-36l-23-4-19-5-13-6 3-1 16 6 20 5 18 3 33 1v-10l1-7-22-2z" fill="#A7DAFC"/>
<path transform="translate(752,965)" d="m0 0 6 2 23 13 15 9 9 5 5 4v2l-5-2-27-15-23-13-3-2z" fill="#C5E9FC"/>
<path transform="translate(647,659)" d="m0 0h6l4 5 1 2v6l-5 4-6-2-4-5-1-4 3-5z" fill="#FEBF5C"/>
<path transform="translate(1175,1586)" d="m0 0h2v6h-68l2-2 18-1h30l9 1z" fill="#0A4067"/>
<path transform="translate(870,953)" d="m0 0h1v7l-2 5 1 5 5 3 1 4-1 7 11 5 11 1-2 2-10-1-13-6v-6h-8l-1-5 2-12 4-3z" fill="#FEE7CF"/>
<path transform="translate(1340,351)" d="m0 0h10l2 4-5-1h-48l-65 1-32-1 2-2h89z" fill="#FCD3B2"/>
<path transform="translate(1156,1068)" d="m0 0h8l-1 6-2 5h-12l-2 4-2-13z" fill="#98D3FC"/>
<path transform="translate(743,974)" d="m0 0 7 2 27 15 20 12 9 6 1 2-5-2-14-8-12-6-15-9-11-6-7-5z" fill="#C5E9FC"/>
<path transform="translate(1137,1281)" d="m0 0 5 5 4 8 7 19 4 15v7l-3-4-2-10-2-5-5-10-3-11-5-10z" fill="#0B456F"/>
<path transform="translate(682,636)" d="m0 0 2 1-8 5-4 1-2 4-6 1v2l-9 2-5 3-6 3-3 4-4-2-1-4 11-5 12-4 15-7z" fill="#EFF7FB"/>
<path transform="translate(1089,384)" d="m0 0h1v72h2l3 11 5 6v2l-4-2-4-6-3-10-2-3v-55z" fill="#FFE7CF"/>
<path transform="translate(642,951)" d="m0 0h59l23 1v1h-80l-13 13-2-1 11-11z" fill="#105A88"/>
<path transform="translate(694,710)" d="m0 0 2 1 1 7v7l3 5h3 1v8l-2 3-6-5-3-7v-18z" fill="#0B5386"/>
<path transform="translate(740,1060)" d="m0 0 5 2 11 8 5 3v2l12 3 4-1-2 4-3 1-15-6-12-8-5-5z" fill="#C5E9FC"/>
<path transform="translate(741,997)" d="m0 0 16 8 21 12 4 3v2l-6-2-12-7-14-7-10-7z" fill="#C5E9FC"/>
<path transform="translate(1182,489)" d="m0 0 9 1 58 1v1h-69l-8 2-10 7-4 3-2-1 9-7 9-6z" fill="#FDE1C5"/>
<path transform="translate(469,547)" d="m0 0 7 4 11 8 17 12 5 3 5 7-5-2-4-5-7-3-11-8-12-9-6-5z" fill="#FDDCBE"/>
<path transform="translate(604,1008)" d="m0 0h1l-1 13-1 2h3v11h-2l1 26h-1l-3-20v-16z" fill="#186BA6"/>
<path transform="translate(747,952)" d="m0 0 4 2h-5l-1 5-5 9-5 1-4-2v6l-2-2-3-12v-6l5 4 4 8 4 1 6-13z" fill="#A5D8FB"/>
<path transform="translate(741,1011)" d="m0 0 9 3 16 9 11 7 2 3-6-2-10-5-13-8-7-4z" fill="#C5E9FC"/>
<path transform="translate(619,1300)" d="m0 0h16v1l-12 1-3 3-1 13-1 66h-1v-69l1-12z" fill="#FFE7CF"/>
<path transform="translate(1100,475)" d="m0 0 4 3v2l9 3 6 4 3 1 20 1 1 3-4 7-1-3 3-6h-20l-12-3-7-5z" fill="#FACFA8"/>
<path transform="translate(679,345)" d="m0 0 5 1v5l-2 6-5 26v7l5-3-2 4-3 4h-5l5-26 5-23z" fill="#FCD8B7"/>
<path transform="translate(907,1584)" d="m0 0 4 1v5l4 2-25 1 3-3z" fill="#0C4671"/>
<path transform="translate(1121,1562)" d="m0 0h2l-1 4-14 6-4-1-2 4-9 3-3-1 3-3z" fill="#0D4B79"/>
<path transform="translate(1016,534)" d="m0 0 6 1v3h2v3l4-1 1 2-1 3h-9l-2-2-2 1-1-2h-2l1-3 2-4z" fill="#0F5987"/>
<path transform="translate(1093,662)" d="m0 0 4 1 6 10h-2l-2 5-12 6-4 1-1-2 6-3 2-3h6l1-7z" fill="#F7E6D3"/>
<path transform="translate(767,237)" d="m0 0 2 3-1 5 2 3-1 9-2 8h-1l1-15-6-2-1-5z" fill="#F9CCA3"/>
<path transform="translate(494,526)" d="m0 0 4 1h-2l4 9 10 19 9 14 3 5-1 2-10-15-8-13-8-16-1-1z" fill="#FCD8B7"/>
<path transform="translate(1070,1584)" d="m0 0h4l-1 5-2 1 5 1v1l-23 1v-2l15-6z" fill="#0C4874"/>
<path transform="translate(1073,1429)" d="m0 0 7 6 5 5v2l4 2 8 7 12 6h4l1-2-1 5-6-1-14-8-12-11-8-9z" fill="#FCD8B8"/>
<path transform="translate(1173,1048)" d="m0 0h19l3 5 3 11-1 5h-1l-2-10-3-4v-2l-3-1-1-2h-11l-5 3-3 3 1-5z" fill="#FFE7CF"/>
<path transform="translate(810,1038)" d="m0 0 1 4-6 9-1 1h-5v-4l4-7z" fill="#FCD3B2"/>
<path transform="translate(218,1524)" d="m0 0h12l10 1v2l-2 1-17 1-5-1z" fill="#9BD4FC"/>
<path transform="translate(1077,687)" d="m0 0 3 1-2 3-7 3-9 4-8 1v-2z" fill="#0C4874"/>
<path transform="translate(1096,628)" d="m0 0h4v2h2l-2 9-1 1h-5l-1-4 1-2-2-1 1-2h2z" fill="#0F5987"/>
<path transform="translate(597,482)" d="m0 0 1 3-1 2h-2l-2 5-4 4-3 4h-2l-2 4-4 1v2l-10 6-4-1 16-10 7-7z" fill="#FCD9B9"/>
<path transform="translate(1152,1249)" d="m0 0h12l1 4-22 1-1-2h2v-2z" fill="#FFE7CF"/>
<path transform="translate(837,958)" d="m0 0 27 2 2 2-2 15v2l-3 1v-11l1-7-22-2z" fill="#B3E0FC"/>
<path transform="translate(1117,354)" d="m0 0h2v2l-11 6-8 7-5 7-4 12h-1v-7l7-12 9-9z" fill="#FCDABB"/>
<path transform="translate(1340,351)" d="m0 0h10l2 4-5-1h-54l1-2z" fill="#FCD3B2"/>
<path transform="translate(800,1039)" d="m0 0 1 2-8 14-6 10h-2l-2 5-2 2 1-4 5-9 7-11 3-7z" fill="#C5E9FC"/>
<path transform="translate(642,951)" d="m0 0h34v1l-21 1h-11l-13 13-2-1 11-11z" fill="#105A88"/>
<path transform="translate(646,657)" d="m0 0h8l5 8 1 9v1h-5l2-3v-6l-4-6h-8l-2 5h-2l2-5z" fill="#FACEA7"/>
<path transform="translate(878,940)" d="m0 0h8l5 5 2 3-4-2-2-2-9 1-5 5-2 3 1-6z" fill="#FFE7CF"/>
<path transform="translate(1156,1068)" d="m0 0h8l-1 6h-1v-5l-13 2 2 8h-2l-2 4-2-13z" fill="#C1E7FC"/>
<path transform="translate(693,699)" d="m0 0 5 1-4 3 5 5-2 3h-3l-1 13h-1v-23z" fill="#125E91"/>
<path transform="translate(1088,448)" d="m0 0h1l1 8h2l3 11 5 6v2l-4-2-4-6-3-10-2-3v-5z" fill="#FEE3C9"/>
<path transform="translate(694,701)" d="m0 0h8l5 2v5l-3-1-1-2h-3l-1 2-4-1-2-4z" fill="#0B5184"/>
<path transform="translate(1046,692)" d="m0 0h2v2l13-1v2l-11 4-5-3z" fill="#FEE3C9"/>
<path transform="translate(491,563)" d="m0 0 4 2 14 9 5 7-5-2-4-5-7-3-5-5z" fill="#FBD5B3"/>
<path transform="translate(1118,489)" d="m0 0 23 1-3 11-3-1 1-1v-6l-2-1-14-1z" fill="#FEE6CD"/>
<path transform="translate(971,1556)" d="m0 0h5l-1 4-9 3h-3v-2l-2-1z" fill="#0C4976"/>
<path transform="translate(1252,1407)" d="m0 0 1 4-2 7-6 9-7 7v-3l7-8 4-8z" fill="#FBD4B1"/>
<path transform="translate(1136,1262)" d="m0 0h38v1l-35 1-2 1-2 3v-5z" fill="#F9CDA4"/>
<path transform="translate(767,237)" d="m0 0 2 3-1 5 2 3-1 4-1-3-6-2 3-7z" fill="#FBD2B1"/>
<path transform="translate(1102,1570)" d="m0 0 4 1h-2l-2 4-9 3-3-1 3-3z" fill="#0C4975"/>
<path transform="translate(1133,1557)" d="m0 0 4 1v2l-5 3h-6l-1-3z" fill="#0B456F"/>
<path transform="translate(1155,915)" d="m0 0 1 3 4 5v6l-3 1-3-10z" fill="#0D568A"/>
<path transform="translate(1194,1040)" d="m0 0h6v6h-6l-1-3-2-1z" fill="#0B5387"/>
<path transform="translate(641,1573)" d="m0 0h2l1 13-2 2-2-3z" fill="#FDFDFC"/>
<path transform="translate(1158,1085)" d="m0 0 1 4-1 3h24v1h-26v-4z" fill="#FFE7CF"/>
<path transform="translate(494,526)" d="m0 0 4 1h-2l4 9 4 8-1 2-3-4-6-11z" fill="#FDDDC0"/>
<path transform="translate(1197,1068)" d="m0 0 3 1-2 1-1 8h15v1l-16 1-1-1v-7z" fill="#C5E9FC"/>
<path transform="translate(628,727)" d="m0 0h2l-10 20-1-3 1-6h2l1-4 1-2h2z" fill="#105A88"/>
<path transform="translate(686,732)" d="m0 0h9l2 4 2 1v2l-9-3z" fill="#CCE7F8"/>
<path transform="translate(450,1127)" d="m0 0 2 2v10l-2 3v-6h-2l1-8z" fill="#FDDFC3"/>
<path transform="translate(1146,1084)" d="m0 0 3 3v5l-8-4v-2z" fill="#0E4F7E"/>
<path transform="translate(515,581)" d="m0 0 9 5 3 2 2-3 1 6-5-1-10-7z" fill="#FCDBBD"/>
<path transform="translate(1097,1452)" d="m0 0 5 2 8 3h3l1-2-1 5-6-1-10-6z" fill="#FAD6B5"/>
<path transform="translate(1097,369)" d="m0 0h2l-6 12-2 7h-1v-7z" fill="#FCD9B9"/>
<path transform="translate(1082,1579)" d="m0 0h4v3l-5 2h-6v-2z" fill="#0C4874"/>
<path transform="translate(743,1025)" d="m0 0 7 2 7 5v2l-5-2-9-6z" fill="#C5E9FC"/>
<path transform="translate(642,951)" d="m0 0h2l-2 4-11 11-2-1 11-11z" fill="#176CAB"/>
<path transform="translate(1073,1429)" d="m0 0 7 6 5 6-4-1-8-9z" fill="#FCD7B6"/>
<path transform="translate(1153,1322)" d="m0 0h2l2 6v7l-3-4-2-8z" fill="#0C4873"/>
<path transform="translate(450,978)" d="m0 0h1v10h-3l-2-2 1-4h2z" fill="#FDE1C6"/>
<path transform="translate(1206,988)" d="m0 0h2v13h-2l-1-12z" fill="#0D588E"/>
<path transform="translate(1092,460)" d="m0 0h1l3 9 4 4v2l-4-2-4-6z" fill="#FCD9B9"/>
<path transform="translate(1130,1082)" d="m0 0 4 1 5 4-4-1-3-1-1 10h-1z" fill="#50ABF6"/>
<path transform="translate(643,668)" d="m0 0 5 2 5 4v2l-6-2-4-5z" fill="#F9CDA5"/>
<path transform="translate(1340,351)" d="m0 0h10l2 4-14-2z" fill="#FBD2B0"/>
<path transform="translate(899,956)" d="m0 0 5 2 3 4v5l-4-4-2-4-2-1z" fill="#FBD1AB"/>
<path transform="translate(1198,872)" d="m0 0 3 1v7l-4-2v-5z" fill="#0C558A"/>
<path transform="translate(1102,480)" d="m0 0 12 6 1 2-6-1-7-5z" fill="#FFE7CF"/>
</svg>
