<?xml version="1.0" encoding="UTF-8"?>
<svg version="1.1" viewBox="0 0 2048 1564" width="589" height="450" xmlns="http://www.w3.org/2000/svg">
<path transform="translate(811)" d="m0 0h57l34 4 41 7 31 8 36 12 26 11 21 10 23 13 15 9 22 15 13 10 10 8 14 12 10 9 12 11 12 13 11 12 8 10 5-1 33-11 26-7 36-7 34-4 14-1h50l32 3 28 4 33 7 31 9 28 10 27 12 26 13 67 1 7 4 4 6 1 3 1 41 7 8 8 7 26 26 7 8 11 13 10 13 13 18 14 22 13 23 13 26 13 32 10 30 9 36 6 35 3 32 1 20v19l-2 37-4 30-4 22-4 20 17 12 28 22v2h4l9-11 11-10 11-7 8-3h17l10 5 7 7 5 10 2 9v13l-3 16-7 20-3 6 9 1 9 4 5 4 5 9 2 8v8l-3 12-3 6 1 6 8 14 12 23 3 6v2l5-1h9l11 4 8 7 6 9 3 11-1 14-6 18-6 11 1 8 8 36 6 47v66l-5 39-6 33-8 31-11 33-11 26-12 25-12 22-14 22-12 17-14 18-11 13-11 12-7 8h-2l-2 4-26 24-11 9-18 14-16 11-19 12-21 12-32 16-13 6h-1544l-35-11-18-8-13-8-13-10-9-9-10-14-9-19-4-16v-14l3-12 6-12 6-7-26-5-18-6-17-9-10-8-9-10-8-16-3-14 1-11 5-12 9-10 11-7 2-2-13-12-9-10-12-15-9-15-6-14-2-6v-27l7-14 7-9 10-7 11-4 16-1 16 2 15 4v-10l3-12 5-10 4-5 1-6-1-9-8-5-14-8-11-9-11-11-7-11-5-14-1-6v-13l3-10 4-8 7-7 8-5 8-3 6-1-5-9-8-13-9-19-6-19-2-12v-12l2-10 5-12 9-11 11-7 8-3h19l12 3 16 8 9 5 7-16 12-23 12-20 14-21 14-19 9-11 12-14 14-15 18-18 8-7 14-12 16-12 18-13 22-14 27-15 25-12 28-11-3-9-11-30-9-31-6-27-5-33-3-36v-38l2-29 5-35 6-29 7-26 10-30 3-7-1-7-4-10-3-16v-8l3-15 4-10 6-10 9-10 8-7 14-7 15-4 7-1 10-13 13-16 11-12 9-10 12-12 7-16 7-11 8-10 11-10 13-8 15-6 14-3 10-1 28-15 25-12 28-11 27-9 36-9 27-5z" fill="#EAE1E0"/>
<path transform="translate(588,67)" d="m0 0h172l17 3 14 5 11 6 9 7 6 5 9 11 7 11 5 11 4 14 1 7v19l-4 18-8 16-8 11-10 11-13 9-14 7-13 4-15 2h-28l-1 25-7-4-17-12-12-8-4-1h-46l2 8v19l-4 16-9 16h-2l-2 4-4 5-4 3h-2v2l-6 2v2l-8 4-10 3-9 2h-26v17h-5v-2l-4-2-5-2v-2l-5-2-6-4v-2l-10-1-36 1v73h2l2-5 8-11 9-10 9-8 8-4h13l9 6 7 10 2 5 4-2 11-10 18-12 11-5 4-1h13l9 6 7 10 1 3v7l15-10 8-4 11-2 13 1 11 4 10 6 10 9 7 9 5 12 2 9v12l-3 17-6 18-7 16-8 15-3 1-10-25-8-15-8-10-8-7-9-4-5-1h-16l-11 4-9 7-9 13-9 19-15 42-3 9h-3l-7-19-4-9-10-4h-13l-9 4-8 7-4 8-1 3v14l4 9 7 8 8 4 5 1h17l8 11 11 8 2 1h14l34-11 17-3 17-1 8-6 3-1-1-5-7-9-4-12v-14l3-10 6-10 8-8 7-4h5l-5 5-6 4-7 7-5 11-1 3v16l4 10 5 8 1 3 4 2v3l-12 7v2l16 6 9 6 8 9 4 10 2 11v17l-3 17-5 14-9 14-7 7-1 2h10l19 3 24 7 20 8 21 10 12 7 21 14 2 1v2l5 2 7 5v2l5 2v2l5 2 17 16 8 8 6 5 7 8 3 3 1 4 17 17 1 4h123l8 3 8 7 5 9 1 3v12l-12 52-4 17-1 3 6 1 10 6 6 7 3 7v9l-2 11-1 8-3 8-6 5-11 4-11 2h-12l-12-3h-7l-3 3h-2l-2 6-3 8-1 10 3 3 13 3h13l18-3 18-6v3l-13 5-21 4h-15l-10-2-6-3-1 7v11l3 5 9 4 8 1h10l14-1 16-4 7-1-3 3-14 4-31 3-1 3v10l1 6-5 16-8 11-14 10h-259l5-5 11-7 10-9 4-6-1-6-7-4-3-2 9-8 4-6v-7l-5-3-6-2 13-13 2-4v-6l-4-3-7-2 1-3 5-4 3-6v-8l-4-5-5-2h-16l-24 5-42 12-9 2h-10l-6-4-4-7-2-8-1-51-4-4h-8l-9 7-11 13-14 21-13 23-8 15-11 23-5 2-48 7-89 12-5-1-12-8-20-14-16-11-23-16-16-11-23-16-16-11-22-15-11-8h-3l-9 19-7 16-5 17-8 29-5 28-2 20v20l2 21 5 23 6 18 8 15 9 14 6 7 5 5v2l4 2 5 5 6 5 2 1v2l5 2 14 8 21 8 25 6 9 2 3 9 5 19 2 4 31 1 272 1 200 1 1 5 1 38v65l-2 148-1 38-1 8h-626l-35-11-18-8-13-8-13-10-9-9-10-14-9-19-4-16v-14l3-12 6-12 6-7-26-5-18-6-17-9-10-8-9-10-8-16-3-14 1-11 5-12 9-10 11-7 2-2-13-12-9-10-12-15-9-15-6-14-2-6v-27l7-14 7-9 10-7 11-4 16-1 16 2 15 4v-10l3-12 5-10 4-5 1-6-1-9-8-5-14-8-11-9-11-11-7-11-5-14-1-6v-13l3-10 4-8 7-7 8-5 8-3 6-1-5-9-8-13-9-19-6-19-2-12v-12l2-10 5-12 9-11 11-7 8-3h19l12 3 16 8 9 5 7-16 12-23 12-20 14-21 14-19 9-11 12-14 14-15 18-18 8-7 14-12 16-12 18-13 22-14 27-15 25-12 28-11-3-9-11-30-9-31-6-27-5-33-3-36v-38l2-29 5-35 6-29 7-26 10-30 3-7-1-7-4-10-3-16v-8l3-15 4-10 6-10 9-10 8-7 14-7 15-4 7-1 10-13 13-16 11-12 9-10 12-12 7-16 7-11 8-10 11-10 13-8 15-6z" fill="#EAE1E0"/>
<path transform="translate(1313,487)" d="m0 0 9 1 12 6 8 7 1 5-5 6-9 4-16 3-5 2-2 5 1 5 16 9 3 3-2 4-8 7 1 4 8 10 6 14 11 30 7 18 2 2h9l7-4h2v-2l10-8 21-21v-3l-24-8-9-5-10-9-3-3v-3h6l16 7 8 7 8 4 24 1 12 13 5 4v2l3 1 4 11 5 15 8 14 8 9 2 1 3-19 7-12 13-18 6-7 4-2h10l8 4 13 17 3 6 2 16 4 12 5 9 8 13v3h2l2 3 3 1 1 14v42l1 22 256 1 7 2v6l-228 1-28 1-8-1 1 11-6 9-7 1-4 8-4 10-3 4h-7l-11-3h-9l-4 4-2 7-2 26h106v1h-140l3 9 11 44 11 42 7 28 4 17 7 16 9 14 12 13 13 10 14 8 9 4v152l4 10 7 6 7 3h173l8-3 7-6 4-8 1-155-6-2-11-6-13-10-12-12-5-8h-36l6-11 7-15 6-18-3-5-11-12-11-13-9-10-7-8-1-3h-2l-9-11-12-13-9-11-12-13-7-8-9-10-4-5h133l14 8 16 11 14 9 19 13 12 8 13 9 19 13 12 8 20 14 16 11 15 10 8 6 1 3-8 24-9 17-10 14-11 11-14 10-17 8-5 2-1 360-1 47-3 11-7 11-7 7-14 7-4 1-51 1h-758l-11-2-12-6-10-9-6-10-3-14-1-19v-332l1-12 10-3 13-10 6-9 5-16-1-6v-10l2-4 31-3 14-4 2-1-9 2-13 3-14 1h-10l-11-2-6-3-3-3-1-3v-11l1-8 10 4 7 1h15l21-4 13-5-1-1-17 6-18 3h-13l-13-3-4-4 1-10 4-11 7-7h7l12 3h12l15-3 10-5 4-6 2-7v-8l2-8v-9l-5-10-7-6-8-4-4-1 2-11 9-39 5-22v-12l-4-9-6-7-7-4-4-1-25-2-1-1v-24l3-12 4-9 63 1h64l37-1 5 3 3 4v7l-6 11-8 10-2 4 1 6 4 6 14 14 4 13v9h53l-1-19 3-8 10-11 14-11 11-10 1-2v-9l-6-24v-14l7-12 13-16 10-12 6-10 1-3 1-11-10 2-9 1h-13l-8-6-9-14-11-30-6-10 1-4 3-3 1-4 1-104h5l6 5 1 2v17l6-2 1-15 6-7h5l6 8 3 8 1 15 5-3 5-5 9-5 1-22 4-6 5-4z" fill="#FCFCFC"/>
<path transform="translate(604,919)" d="m0 0h8l5 5 1 51 3 11 4 5 4 2h10l23-6 32-9 20-4h16l6 3 4 5v8l-5 8-5 5 7 1 5 4v6l-4 6-11 11 9 3 2 2v7l-7 9-6 5 8 4 3 4-1 6-7 8-8 7-14 9 243 1 2 1v349l1 19 4 11 5 9v2h2l5 6 13 8 9 3 12 1h799l14-3 14-8 8-8 6-10 3-8 2-16v-220l1-10 1-1 30-4 31-5 25-5 18-8 12-7 15-12 8-10 6-10 5-15 1-5v-16l-6-12-4-5v-2l-4-2 1-2 9-3 15-7 11-7 11-11 4-7 4-14h1l5 39v66l-5 39-6 33-8 31-11 33-11 26-12 25-12 22-14 22-12 17-14 18-11 13-11 12-7 8h-2l-2 4-26 24-11 9-18 14-16 11-19 12-21 12-32 16-13 6h-918l1-46 2-148v-65l-1-43h-200l-272-1-31-1-4-8-6-23v-2l-14-2-20-5-14-5-14-7-12-7v-2l-5-2v-2l-4-2-5-5-3-2v-2l-4-2-3-4v-2l-3-1-9-13-12-24-6-21-3-15-2-21v-20l3-27 6-29 8-27 4-13 12-27 4-7 4 1 20 14 12 8 23 16 32 22 20 14 16 11 36 25 20-2 64-9 44-6 17-3 11-23 10-19 11-19 10-15 10-13 9-10z" fill="#C84D84"/>
<path transform="translate(605,357)" d="m0 0h13l9 6 7 10 1 3v7l15-10 8-4 11-2 13 1 11 4 10 6 10 9 7 9 5 12 2 9v12l-3 17-6 18-7 16-8 15-3 1-10-25-8-15-8-10-8-7-9-4-5-1h-16l-11 4-9 7-9 13-9 19-15 42-3 9h-3l-7-19-4-9-10-4h-13l-9 4-8 7-4 8-1 3v14l4 9 7 8 8 4 5 1h17l8 11 11 8 2 1h14l34-11 17-3 17-1 8-6 3-1-1-5-7-9-4-12v-14l3-10 6-10 8-8 7-4h5l-5 5-6 4-7 7-5 11-1 3v16l4 10 5 8 1 3 4 2v3l-12 7v2l16 6 9 6 8 9 4 10 2 11v17l-3 17-5 14-9 14-7 7-1 2h10l19 3 24 7 20 8 21 10 12 7 21 14 2 1v2l5 2 7 5v2l5 2v2l5 2 17 16 8 8 6 5 7 8 3 3 1 4 17 17 1 4h123l8 3 8 7 5 9 1 3v12l-12 52-4 17-1 3 6 1 10 6 6 7 3 7v9l-2 11-1 8-3 8-6 5-11 4-11 2h-12l-12-3h-7l-3 3h-2l-2 6-3 8-1 10 3 3 13 3h13l18-3 18-6v3l-13 5-21 4h-15l-10-2-6-3-1 7v11l3 5 9 4 8 1h10l14-1 16-4 7-1-3 3-14 4-31 3-1 3v10l1 6-5 16-8 11-14 10h-259l5-5 11-7 10-9 4-6-1-6-7-4-3-2 9-8 4-6v-7l-5-3-6-2 13-13 2-4v-6l-4-3-7-2 1-3 5-4 3-6v-8l-4-5-5-2h-16l-24 5-42 12-9 2h-10l-6-4-4-7-2-8-1-51-4-4h-8l-9 7-11 13-14 21-13 23-8 15-11 23-5 2-48 7-89 12-5-1-12-8-20-14-16-11-23-16-16-11-23-16-16-11-22-15-11-8h-3l-9 19-7 16-4-5-10-19-2-7-1-12 4-8 6-7-1-2 3-5 8-8 7-8 16-17 8-8 1-2h2l2-4 15-15 7-8 12-12 1-2h2l2-4 15-15 1-2h2l2-4 22-22 7-8 21-21 12-6 17-7 10-4 13-6 8-3 13-5 12-6 9-4 7-3 24-10 10-4h4l2 7 16 12 18 14 16 12 51 39 12 9 18 14 18 13 3 3h5l5-12 14-38 8-23 13-36 5-15-18-2h-14l-9 3-11 3-7 1h-11l-15-3-16-6-14-8-12-9-10-8-22-22-11-14-8-7-11-7-16-16-10-15-6-10-7-16-6-19-4-21-1-9v-27l3-18 6-20 11-23 14-21 11-12 8-7 8-4h13l9 6 7 10 2 5 4-2 11-10 18-12 11-5z" fill="#3A4D61"/>
<path transform="translate(811)" d="m0 0h57l34 4 41 7 31 8 36 12 26 11 21 10 23 13 15 9 22 15 13 10 10 8 14 12 10 9 12 11 12 13 11 12 8 10 5-1 33-11 26-7 36-7 34-4 14-1h50l32 3 28 4 33 7 31 9 28 10 27 12 22 11 3 3h-59l-10 2v2l-4 4h-2l-1 8v62l-4 1-17 5-15 8-10 8-8 9-6 9-5 12-5 22h-1l-2-7-7-8-6-3h-7l-5 10-5 4-16 6-4 8-2 9-2 16-1 7-6-1-8-8-9-6-8-4-1-7 7-22-11 7-3 3h-2l-2 5v9l2 6-1 6-8 6-10 5-5 4-6-1-11-7-12-10-5-3-7 1-8 7-8 10-7 9-9 9-7 3-4-1h-52v44l-1 1h-8l-1-2v-43h-71l-24 1-1-4h2l1-3 14-11 8-3h24l12-3 8-7 5-10 4-10 5-5 13-11 11-14 6-4 6-2v-7l-6-12-8 1-18 5-12 2h-14l-15-2-10-2h-8l-31 7-5 2 1 5 16 14 5 6-1 7-2 4 1 11-10 11-9 11-10 13-5 11-11-1h-102l-4-2h2v-2l12-6 1-1 2-13-14 2 1-6 7-21 1-10h27l10 2 5 3h4l2-4 15-2 6-4 5-10-1-130-6-7v-2l-4-1h-134l-7 6h-2l-1 4-1 67-19 5-13 6-6 2v2l-9 7-8 9-5 7-7 16-3 4h-3l-2 4-5 9-6 8-3 9-5 6-2 1h-30l-4 11-4 12-7 10 25-2 7-2 13-5 12-1 6 7 2 3v7l-2 3-29-1h-55v-4h-2l-4-12-6-10-9-9-7-5-13-6-10-2-14 1-10 4-10 6-6 5-2-1v-7l-4-8-4-5-8-5h-13l-13 5-16 10-15 13-4 2-7-12-5-5-6-4h-13l-8 4-10 9-9 10-9 14h-2v-73h-36v-1l77-1 5 2v2l4 2 7 4v2l5 1 4 3v2h5v-17l26-1 14-3 10-5h3v-2l6-2v-2l8-6 4-6h2l2-5 6-12 4-15v-19l-1-2v-6l31-1h15l7 3 19 13 13 9 1-18 1-6 28-1 15-2 18-6 14-8 11-9 11-13 9-16 4-12 2-11v-19l-3-15-5-13-6-11-12-15-11-9-14-8-14-5-17-3-162-1 4-3 24-13 25-12 28-11 27-9 36-9 27-5z" fill="#EAE1E0"/>
<path transform="translate(900,201)" d="m0 0h134l4 2 7 9 1 130-5 10-3 3-8 3-11 1-4 4-6-2-4-2-7-1h-23l-4-1v10l-9 27 6-2h8l-1 13-5 4-6 3h-3v2l2 1h108l5 2 3-9 10-14 9-10 9-11 2-2-1-11 3-6-1-7-9-9-9-7-3-4 1-4 9-3 27-6h8l15 3 10 1h14l20-4 13-4 5 1 5 7 2 5v7l-12 6-8 10-7 8-12 9-5 10-4 10-8 9-9 4-6 1h-24l-8 3-11 9-4 4h-2l1 3 24-1h60l11 1 1 14v31l8-1v-18l1-26 33-1h19l7 1-5 5-7 8 2 5 7 9 6-2 7-6 9-13 7-6h4l3 11 6 8-2 4-21 11-11 8-3 1-19 1-7 3-2 2-5-1-3-1h-129l-7 3-3 1-2 4-2 7v56l-10 2-14 5-12 7-9 7-8 9-8 14-5 15-2 12v9l3 16 5 13 7 12 11 12 11 8 10 5 10 3-4 1v3l4 2 8 6 10 4 5 1h14l23-6h10l9 10 6 8v7l-5 17v10l6 8 5 6-39 1h-64l-60-1-3-1-3 9-3 12v24l12 1v1h-110l-4-6-16-16-1-4-8-8-4-5-8-7-11-11-11-9-2-1v-2l-5-2v-2l-4-2-8-5v-2l-5-2-12-8-7-5-11-6-23-11-21-8-21-6-19-3-10-1 2-4 7-8 5-7 6-14 3-13 1-8v-17l-3-14-5-10-10-9-11-5-9-3v-4l12-7-6-7-6-9-3-9v-16l5-12 7-8 6-5 6-4-6 1-8 6-7 8-5 11-1 5v14l4 12 8 11-1 4-7 4-4 3-25 2-19 5-24 8h-14l-11-7-8-9-2-4h-17l-9-3-6-4-7-8-3-8v-14l4-9 7-8 7-4 5-2h13l10 4 6 12 6 17 2-2 11-33 10-25 8-15 8-10 8-6 11-4h16l10 3 9 6 7 7 9 14 8 17 5 14v2l4-4 11-23 7-19 3-14 1-7v-17l1 4 10-1h45l29 1 1-2v-7l-7-9-12 1-13 5-7 2-11 1h-14l2-5 5-7 6-19 2-3h30l5-4 3-10 5-6 6-10 4-6h3l2-4 5-12 7-11 9-10 7-6h2v-2l16-8 13-4 9-1v-67l2-4z" fill="#EAE1E0"/>
<path transform="translate(1550,201)" d="m0 0h60l67 1 7 4 4 6 1 3 1 41v82l-1 9-2 4h-2l-1 3h-2v2l-9 3h-23l7 9 1 8-5 10-12 14-3 5v6l8 20 2 6v4l-6-1-11-9-6-7-1-2v-7l3-5-4-10-3-1-2 7-3 2-5 1-15 1-7 6 1 12 5 8 8 6 6 4 5 6 5 20 2 11v6l-6 2-8 2-3 2 1 6v19l-1 7-3-1-5-8-5-9-2-2h-9l-13 4-4 2-1 6 20 10 15 8 3 3 1 11-3 32-2 5-1 1-16 1-6 4-3 5-7-1-8-2 2 10 8 24 1 4v11l-2 2-6-1-14-8h-5l1 9 8 16 8 14v4l-4-2v-2h-2l-6-11-8-14-4-12-2-16-6-10-10-13-7-3h-10l-6 4-13 18-9 14-2 7-2 12-1 2-4-2-7-8-9-16-7-22-4-5-8-7-8-9-24-1-8-4-8-7-11-5-5-2-6-1 3 5 7 7 10 6 16 6 10 3 2 2-7 8-19 19-5 4h-2v2l-9 5h-9l-4-5-10-27-11-29-6-9-5-6 1-4 9-8-2-4-17-10-1-5 3-5 8-4 16-3 8-5 2-5-3-5-10-7-10-4h-6l-6 4-4 6-1 22-10 6-4 2-2 4-4 1-1-2-1-13-4-10-4-5h-5l-5 6-1 15-2 2h-5l-1-11v-6l-5-5-6-2v104l-2 5-3 3 1 4 7 14 10 27 9 13 6 4h13l19-2v11l-5 10-8 10-10 12-9 12-5 9v14l6 24v9l-7 8-17 14-9 8-5 8-1 9 1 11-1 3h-53l-2-14-4-9-15-15-3-6 1-6 8-11 6-10 1-2v-7l-9-10-6-7-2-3v-10l5-17v-7l-11-14-3-3h-10l-23 6h-14l-13-4-9-6-5-4-1-4-13-6-9-6-12-11-9-13-5-11-4-15-1-7v-9l3-16 5-13 7-12 12-13 14-9 11-5 10-3h7l-1-2v-54l2-7 5-5 4-3 4-1h129l4 2 5-1 4-3 4-1 19-1 9-5 9-6 18-10-2-5-4-5-2-6v-5l-7 3-7 8-7 10-6 5-6 2-8-10-2-5 7-8 16-14 8-9 6-8 9-10 5-3 7 1 10 8 12 9 6 3 5-1 7-5 12-6 3-4-1-7-1-3v-9l3-5 12-9 4-1-1 7-5 15v7l6 2 8 5 10 9 7 3v-7l3-21 4-11 4-3 16-6 4-5 4-8h7l8 5 8 9 4-17 6-13 6-9 9-10 12-9 15-7 14-4h3v-62l2-8 4-4h2v-2z" fill="#7EA2BE"/>
<path transform="translate(335,1260)" d="m0 0 303 1 200 1 1 5 1 38v65l-2 148-1 38-1 8h-607l3-9 18-40 15-33 13-28 4-12 9-50 7-32 7-25 11-33 10-24 8-15z" fill="#2E292F"/>
<path transform="translate(2042,1052)" d="m0 0h1l5 39v66l-5 39-6 33-8 31-11 33-11 26-12 25-12 22-14 22-12 17-14 18-11 13-11 12-7 8h-2l-2 4-26 24-11 9-18 14-16 11-19 12-21 12-32 16-13 6h-918l1-46 2-148v-65l-1-43 5-2-2-57-2-45-1-34v-28h111l2 1v349l1 19 4 11 5 9v2h2l5 6 13 8 9 3 12 1h799l14-3 14-8 8-8 6-10 3-8 2-16v-220l1-10 1-1 30-4 31-5 25-5 18-8 12-7 15-12 8-10 6-10 5-15 1-5v-16l-6-12-4-5v-2l-4-2 1-2 9-3 15-7 11-7 11-11 4-7z" fill="#EAE1E0"/>
<path transform="translate(78,896)" d="m0 0h19l12 3 16 8 9 6 7 5 3 3 4 2 3 4 4 2 7 8 3 3h5l8-4 5-2 4-1h9l3 7 9 19 4 6v7l-9 29-5 22-4 26-1 12v20l2 21 5 23 6 18 8 15 9 14 6 7 5 5v2l4 2 5 5 6 5 2 1v2l5 2 14 8 21 8 25 6 9 2 3 9 5 19 2 4-1 6-8 16-12 29-9 28-6 22-8 37-8 45-6 16-17 37-11 24-9 20-11 25h-19l-35-11-18-8-13-8-13-10-9-9-10-14-9-19-4-16v-14l3-12 6-12 6-7-26-5-18-6-17-9-10-8-9-10-8-16-3-14 1-11 5-12 9-10 11-7 2-2-13-12-9-10-12-15-9-15-6-14-2-6v-27l7-14 7-9 10-7 11-4 16-1 16 2 15 4v-10l3-12 5-10 4-5 1-6-1-9-8-5-14-8-11-9-11-11-7-11-5-14-1-6v-13l3-10 4-8 7-7 8-5 8-3 6-1-5-9-8-13-9-19-6-19-2-12v-12l2-10 5-12 9-11 11-7z" fill="#7EA2BD"/>
<path transform="translate(1313,487)" d="m0 0 9 1 12 6 8 7 1 5-5 6-9 4-16 3-5 2-2 5 1 5 16 9 3 3-2 4-8 7 1 4 8 10 6 14 11 30 7 18 2 2h9l7-4h2v-2l10-8 21-21v-3l-24-8-9-5-10-9-3-3v-3h6l16 7 8 7 8 4 24 1 12 13 5 4v2l3 1 4 11 5 15 8 14 8 9 2 1 3-19 7-12 13-18 6-7 4-2h10l8 4 13 17 3 6 2 16 4 12 5 9 8 13v3h2l2 3 3 1 1 14v42l1 22 256 1 7 2v6l-228 1-28 1-8-1 1 11-6 9-7 1-4 8-4 10-3 4h-7l-11-3h-9l-4 4-2 7-2 26h106v1h-140l-1 2-1-1h-75l-41-1-1 2v-2l-141 1-3 3h-2l-2 4-11 12-9 11-7 8h-2l-2 4-18 20-9 11-12 13-9 11-15 16-4 6 1 11 6 18 8 16-35 1-4 6-11 13-11 9-6 4-2-1-1-8-1-4h-2v-3l6-3 4-9v-10l-3-7v-5l3-5 3-12v-10l-5-8-4-7 2-11v-9l-5-10-7-6-8-4-4-1 2-11 9-39 5-22v-12l-4-9-6-7-7-4-4-1-25-2-1-1v-24l3-12 4-9 63 1h64l37-1 5 3 3 4v7l-6 11-8 10-2 4 1 6 4 6 14 14 4 13v9h53l-1-19 3-8 10-11 14-11 11-10 1-2v-9l-6-24v-14l7-12 13-16 10-12 6-10 1-3 1-11-10 2-9 1h-13l-8-6-9-14-11-30-6-10 1-4 3-3 1-4 1-104h5l6 5 1 2v17l6-2 1-15 6-7h5l6 8 3 8 1 15 5-3 5-5 9-5 1-22 4-6 5-4z" fill="#EAE1E0"/>
<path transform="translate(496,684)" d="m0 0h4l2 7 16 12 18 14 16 12 51 39 12 9 18 14 18 13 3 3-2 4-6 7-4 10-11 46-10 43-2 8-1 24h-1l-1-25-4-4h-8l-9 7-11 13-14 21-13 23-8 15-11 23-5 2-48 7-89 12-5-1-12-8-20-14-16-11-23-16-16-11-23-16-16-11-22-15-11-8h-3l-9 19-7 16-4-5-10-19-2-7-1-12 4-8 6-7-1-2 3-5 8-8 7-8 16-17 8-8 1-2h2l2-4 15-15 7-8 12-12 1-2h2l2-4 15-15 1-2h2l2-4 22-22 7-8 21-21 12-6 17-7 10-4 13-6 8-3 13-5 12-6 9-4 7-3 24-10 5-2z" fill="#C84C84"/>
<path transform="translate(1205,847)" d="m0 0h141l-17 68-13 50-6 21-7 16-9 14-10 12-8 7-13 9-16 8v154l-5 9-5 5-10 4h-173l-7-3-8-7-4-8-1-14v-42l1-97-26 8-5 1h-7l-7-5-1-4v-10l2-4 31-3 14-4 2-1-9 2-13 3-14 1h-10l-11-2-6-3-3-3-1-3v-11l1-8 10 4 7 1h15l21-4 13-5-1-1-17 6-18 3h-13l-13-3-4-4 1-10 4-11 7-7h7l12 3h12l15-3 10-5 4-6 3-10 4 5 5 8v10l-4 15-2 2 1 7 2 5v10l-4 9-4 3h-3v3h2l3 7v5l8-5 12-10 9-11 4-6 34-1-8-15-6-18-1-11 7-9 13-14 9-11 14-15 9-11 12-13 6-8h2l2-4 12-13 9-11 6-7h2l1-3z" fill="#7EA2BE"/>
<path transform="translate(588,67)" d="m0 0h172l17 3 14 5 11 6 9 7 6 5 9 11 7 11 5 11 4 14 1 7v19l-4 18-8 16-8 11-10 11-13 9-14 7-13 4-15 2h-28l-1 25-7-4-17-12-12-8-4-1h-46l2 8v19l-4 16-9 16h-2l-2 4-4 5-4 3h-2v2l-6 2v2l-8 4-10 3-9 2h-26v17h-5v-2l-4-2-5-2v-2l-5-2-6-4v-2l-10-1h-73l-16-4-1-2-5-1-3-3-4-1v-2h-3v-2h-2l-4-5-5-3-4-6-3-2-3-9-4-11-2-13v-8l3-15 4-10 6-10 9-10 8-7 14-7 15-4 7-1 10-13 13-16 11-12 9-10 12-12 7-16 7-11 8-10 11-10 13-8 15-6z" fill="#7EA2BE"/>
<path transform="translate(1928,738)" d="m0 0h17l10 5 7 7 5 10 2 9v13l-3 16-7 20-3 6 9 1 9 4 5 4 5 9 2 8v8l-3 12-3 6 1 6 8 14 12 23 3 6v2l5-1h9l11 4 8 7 6 9 3 11-1 14-6 18-6 11 1 8 8 36v13l-4 12-11 12-8 7-11 6-15 7-5 1 6 7 6 10 2 5v16l-4 15-6 12-7 9-5 6-14 11-14 8-16 7-25 5-39 6-22 3-1 10v220l-2 16-5 12-7 9-7 7-16 8-11 2h-799l-12-1-11-4-11-7-5-5v-2h-2l-8-15-2-7-1-19v-344l1-5-2-1h12v1h-5v344l1 19 3 14 6 10 9 8 12 6 11 2h758l51-1 11-4 9-6 7-8 5-9 2-9 1-47 1-360 26-13 13-10 9-9 12-18 8-17 6-19-2-4-15-10-19-13-23-16-12-8-16-11-10-7-18-12-19-13-4-3 2-5 4-5 8-4h8l13 4v2l4-2 1-12 3-13 2-10 6-20 4-9 7-11 8-7 9-5 4-1h13l9 2 1-4 4-4 9-11 11-10 11-7z" fill="#7EA2BD"/>
<path transform="translate(1465,847)" d="m0 0h141l12 12 7 8 12 14 10 11 9 11 12 13v2h2l7 8 11 13 9 10 7 8 9 11-4 13-5 13-8 15-1 3h34l8 11 11 11 14 10 14 7v155l-5 9-8 7-7 2h-173l-10-5-6-7-3-8v-150l1-2-9-3-16-9-14-12-11-12-8-13-7-16-5-21-11-43-16-62z" fill="#7EA2BE"/>
<path transform="translate(229,931)" d="m0 0 4 1 20 14 12 8 23 16 32 22 20 14 16 11 36 25 20-2 64-9 44-6 17-2 5 10 44 110 5 13 1 5-1 2-23 11-28 12-29 11-36 12-35 9-31 6-31 4-30 1-26-2-24-5-16-5-12-5-16-9-3-2v-2l-5-2v-2l-4-2-5-5-3-2v-2l-4-2-3-4v-2l-3-1-9-13-12-24-6-21-3-15-2-21v-20l3-27 6-29 8-27 4-13 12-27z" fill="#FCFCFC"/>
<path transform="translate(900,201)" d="m0 0h134l4 2 7 9 1 130-5 10-3 3-8 3-11 1-4 4-6-2-4-2-7-1h-23l-4-1v10l-7 21-9 14-9 10-9 8-6 5-4 4-3 5v6l12 12v6l-8 14-1 4 6-1 6-3 14-12 7-8 8-14 4-4 8-1 2 2v9l-1 11 12-3 6-3h3l-1 6-4 10 1 5 5 8-1 5-7 6-6 3h-25l-18 9 15-1 1 1v13l-2 2-21 4-15 8-9 6-11 7-7 8-5 6-14 11-4 7v22l1 12-3-1-5-18-2-4-4-2-11-6-4-2h-22l-12 3-6 4-3 6-4 16-6 13-1 5 4 4 7 3 5 1h7l10-4 11-6h3v12l-1 6 9 4 2 3v15l-2 8v6l4 4 10 4v1l-15 2h-13l-3-2-5-23-4-8-10-4-27-9-8-4-7-6-1-2v-10l6-19v-7l-6-22v-5l-2 1-2 5h-2l-3-27-1-4v-12l8-16 11-15 12-19 3-7v-6l-3-6v-9l5-10 12-15 6-9v-7l-7-9-12 1-13 5-7 2-11 1h-14l2-5 5-7 6-19 2-3h30l5-4 3-10 5-6 6-10 4-6h3l2-4 5-12 7-11 9-10 7-6h2v-2l16-8 13-4 9-1v-67l2-4z" fill="#5F7A91"/>
<path transform="translate(1100,462)" d="m0 0h129l7 4 5 6 1 3v131l-2 5-3 3 1 4 7 14 10 27 9 13 6 4h13l19-2v11l-5 10-8 10-10 12-9 12-5 9v14l6 24v9l-7 8-17 14-9 8-5 8-1 9 1 11-1 3h-53l-2-14-4-9-15-15-3-6 1-6 8-11 6-10 1-2v-7l-9-10-6-7-2-3v-10l5-17v-7l-11-14-3-3h-10l-23 6h-14l-13-4-9-6-5-4-1-4-13-6-9-6-12-11-9-13-5-11-4-15-1-7v-9l3-16 5-13 7-12 12-13 14-9 11-5 10-3h7l-1-2v-54l2-7 5-5 4-3z" fill="#5F7A91"/>
<path transform="translate(605,357)" d="m0 0h13l9 6 7 10 1 3v7l15-10 8-4 11-2 13 1 11 4 10 6 10 9 7 9 5 12 2 9v12l-3 17-6 18-7 16-8 15-3 1-10-25-8-15-8-10-8-7-9-4-5-1h-16l-11 4-9 7-9 13-9 19-15 42-3 9h-3l-7-19-4-9-10-4h-13l-9 4-8 7-4 8-1 3v14l4 9 7 8 8 4 5 1h17l8 11 11 8 2 1h14l34-11 17-3 17-1 8-6 3-1-1-5-7-9-4-12v-14l3-10 6-10 8-8 7-4h5l-5 5-6 4-7 7-5 11-1 3v16l4 10 5 8 1 3 4 2v3l-12 7v2l16 6 9 6 8 9 4 10 2 11v17l-3 17-5 14-9 14-7 7-1 2h10l19 3 24 7 20 8 21 10 12 7 21 14 2 1v2l5 2 7 5v2l5 2v2l5 2 17 16 8 8 6 5 7 8 3 3v4l-5-2-13-12-8-8-8-7-11-10-13-10-18-13-22-13-17-9-23-9-27-8-26-3h-14l-9 3-11 3-7 1h-11l-15-3-16-6-14-8-12-9-10-8-22-22-11-14-8-7-11-7-16-16-10-15-6-10-7-16-6-19-4-21-1-9v-27l3-18 6-20 11-23 14-21 11-12 8-7 8-4h13l9 6 7 10 2 5 4-2 11-10 18-12 11-5z" fill="#2E292F"/>
<path transform="translate(1313,487)" d="m0 0 9 1 12 6 8 7 1 5-5 6-9 4-16 3-5 2-2 5 1 5 16 9 3 3-2 4-8 7 1 4 8 10 6 14 11 30 7 18 2 2h9l7-4h2v-2l10-8 21-21v-3l-24-8-9-5-10-9-3-3v-3h6l16 7 8 7 8 4 24 1 12 13 5 4v2l3 1 4 11 5 15 8 14 8 9 2 1 3-19 7-12 13-18 6-7 4-2h10l8 4 13 17 3 6 2 16 4 12 5 9 8 13-1 8v61l-1 17h-26l-4-1-1 5-5-1-5-3h-238l-1 4-3-12v-14l7-12 13-16 10-12 6-10 1-3 1-11-10 2-9 1h-13l-8-6-9-14-11-30-6-10 1-4 3-3 1-4 1-104h5l6 5 1 2v17l6-2 1-15 6-7h5l6 8 3 8 1 15 5-3 5-5 9-5 1-22 4-6 5-4z" fill="#EAE0E0"/>
<path transform="translate(1319,1249)" d="m0 0h172l7 3 5 3 6 8 2 7v170l-3 9-6 7-10 5-12 1h-156l-11-2-9-7-5-8-1-4v-171l3-9 5-6 8-5z" fill="#7EA2BE"/>
<path transform="translate(1055,1249)" d="m0 0h173l9 4 7 8 3 6v176l-4 8-9 8-5 2-10 1h-156l-13-2-6-4-7-8-2-5-1-17v-39l1-120 4-8 9-8z" fill="#7EA2BE"/>
<path transform="translate(1584,1249)" d="m0 0h173l9 4 8 9 2 5v176l-4 8-7 7-7 3-10 1h-156l-13-2-6-4-7-8-2-7v-173l3-7 7-8 6-3z" fill="#7EA2BE"/>
<path transform="translate(726,412)" d="m0 0 1 4 10-1h45l25 1 3 2-10 14-6 8-4 8v9l3 6-1 9-8 14-16 23-8 14-1 3v12l2 10 1 21 2-1 2-5h2l7 27v7l-6 19v10l4 5 9 5 16 6 21 7 5 5 4 13 3 15 2 1 17 1 1 26 1 6 1 39-4-1-13-12-5-3v-2l-5-2v-2l-4-2-8-5v-2l-5-2-12-8-7-5-11-6-23-11-21-8-21-6-19-3-10-1 2-4 7-8 5-7 6-14 3-13 1-8v-17l-3-14-5-10-10-9-11-5-9-3v-4l12-7-6-7-6-9-3-9v-16l5-12 7-8 6-5 6-4-6 1-8 6-7 8-5 11-1 5v14l4 12 8 11-1 4-7 4-4 3-25 2-19 5-24 8h-14l-11-7-8-9-2-4h-17l-9-3-6-4-7-8-3-8v-14l4-9 7-8 7-4 5-2h13l10 4 6 12 6 17 2-2 11-33 10-25 8-15 8-10 8-6 11-4h16l10 3 9 6 7 7 9 14 8 17 5 14v2l4-4 11-23 7-19 3-14 1-7z" fill="#EAE0E0"/>
<path transform="translate(1550,201)" d="m0 0h60l67 1 7 4 4 6 1 3 1 41v82l-1 9-2 4h-2l-1 3h-2v2l-9 3h-23l7 9 1 8-5 10-12 14-3 5v6l8 20 2 6v4l-6-1-11-9-6-7-1-2v-7l3-5-4-10-3-1-2 7-3 2-5 1-15 1-8 7-16 9-10 4-8 2-9 1h-11l-15-3-13-5-11-7-12-11-7-10-7-14-4-15-1-7v-12l4-17 6-13 6-9 9-10 12-9 15-7 14-4h3v-62l2-8 4-4h2v-2z" fill="#5F7B92"/>
<path transform="translate(1325,1011)" d="m0 0 5 1 9 13 11 12 14 10 15 7 14 4 12 1 21-3 16-6 11-7 12-11 8-9 8-11h14l8 3v2l4 2 5 6 1 5v172l-2 8-6 8-8 5-5 1h-173l-8-4-7-7-3-7-1-12 1-166 3-6 9-8 5-2z" fill="#7EA2BE"/>
<path transform="translate(78,896)" d="m0 0h19l12 3 16 8 9 6 7 5 3 3 4 2 3 4 4 2 7 8 3 3h5l8-4 5-2 4-1h9l3 7 9 19 4 6v7l-9 29-5 22-4 26h-2l-1 26h-2l-4-13-7-16-8-15-12-17-7-7-7-8-13-12-14-11-19-13-8-4 2 4 12 8 15 11 11 9 23 23 10 13 9 15 8 18 4 13 3 16 2 24 1 42 2 29 1 15-9-3-15-4h-9l-13 3-14 7-7 5-7-3-21-11-15-7-1-1v-9l3-12 5-10 4-5 1-6-1-9-8-5-14-8-11-9-11-11-7-11-5-14-1-6v-13l3-10 4-8 7-7 8-5 8-3 6-1-5-9-8-13-9-19-6-19-2-12v-12l2-10 5-12 9-11 11-7z" fill="#5E7990"/>
<path transform="translate(843,35)" d="m0 0h6l1 1 1 251 1 4-1 3-9 7-8 9-5 7-7 16-3 4h-3l-2 4-5 9-6 8-3 9-5 6-2 1h-30l-4 11-4 12-7 10 25-2 7-2 13-5 12-1 6 7 2 3v7l-2 3-29-1h-55v-4h-2l-4-12-6-10-9-9-7-5-13-6-10-2-14 1-10 4-10 6-6 5-2-1v-7l-4-8-4-5-8-5h-13l-13 5-16 10-15 13-4 2-7-12-5-5-6-4h-13l-8 4-10 9-9 10-9 14h-2v-73h-36v-1l77-1 5 2v2l4 2 7 4v2l5 1 4 3v2h5v-17l26-1 14-3 10-5h3v-2l6-2v-2l8-6 4-6h2l2-5 6-12 4-15v-19l-1-2v-6l31-1h15l7 3 19 13 13 9 1-18 1-6 28-1 15-2 18-6 14-8 11-9 11-13 9-16 4-12 2-11v-19l-3-17h2v-93z" fill="#EAE1E0"/>
<path transform="translate(1205,847)" d="m0 0h141l-17 68-13 50-6 21-7 16-9 14-10 12-8 7-13 9-17 9-20 5-6 1h-25l-4-1 1 5-7 3-14 3-3-5 1-3 12-2h5v-2l-8-1-9-2-19-9-14-10-10-9-7-8-7-11-8-16-4-13-1-11 7-9 13-14 9-11 14-15 9-11 12-13 6-8h2l2-4 12-13 9-11 6-7h2l1-3z" fill="#C94D84"/>
<path transform="translate(1465,847)" d="m0 0h141l12 12 7 8 12 14 10 11 9 11 12 13v2h2l7 8 11 13 9 10 7 8 9 11-4 13-5 13-8 15-6 9-11 12-10 9-13 8-13 6-13 4-12 2-17 1-15-1-21-6-16-8-10-6-13-11-11-12-8-13-7-16-5-21-11-43-16-62z" fill="#C84D84"/>
<path transform="translate(838,1096)" d="m0 0h111l2 1v349l1 21-103-1v-191l-1-17 1-29 1-108h99l-1-8-93-1-5-1-1-13h-9v60h-1l-1-34z" fill="#EBE1E0"/>
<path transform="translate(820,334)" d="m0 0 1 2-2 17 1 14 4 15 7 14 10 13 12 10 17 8 12 3h23l10-2 17-6 2 1-5 3-5 8v6l12 12v6l-8 14-1 4 6-1 6-3 14-12 7-8 8-14 4-4 8-1 2 2v9l-1 11 12-3 6-3h3l-1 6-4 10 1 5 5 8-1 5-7 6-6 3h-25l-18 9 15-1 1 1v13l-2 2-21 4-15 8-9 6-11 7-7 8-5 6-14 11-4 7v22l1 12-3-1-5-18-2-4-4-2-11-6-4-2h-22l-12 3-6 4-3 6-4 16-6 13-1 5 4 4 7 3 5 1h7l10-4 11-6h3v12l-1 6 9 4 2 3v15l-2 8v6l4 4 10 4v1l-15 2h-13l-3-2-5-23-4-8-10-4-27-9-8-4-7-6-1-2v-10l6-19v-7l-6-22v-5l-2 1-2 5h-2l-3-27-1-4v-12l8-16 11-15 12-19 3-7v-6l-3-6v-9l5-10 12-15 6-9v-7l-7-9-12 1-13 5-7 2-11 1h-14l2-5 5-7 6-19 2-3h30l5-4 3-10 5-6 6-10 4-6h3z" fill="#7EA2BE"/>
<path transform="translate(451,195)" d="m0 0 14 1h122l12 3 9 4 11 7 8 7 10 13 6 14 2 8v19l-4 16-9 16h-2l-2 4-4 5-4 3h-2v2l-6 2v2l-8 4-10 3-9 2h-26v17h-5v-2l-4-2-5-2v-2l-5-2-6-4v-2l-10-1h-73l-16-4-1-2-5-1-3-3-4-1v-2h-3v-2h-2l-4-5-5-3-4-6-3-2-3-9-4-11-2-13v-8l3-15 4-10 6-10 9-10 8-7 14-7z" fill="#5E7990"/>
<path transform="translate(604,919)" d="m0 0h8l5 5 1 51 3 11 4 5 4 2h10l23-6 32-9 20-4h16l6 3 4 5v8l-5 8-5 5 7 1 5 4v6l-4 6-11 11 9 3 2 2v7l-7 9-6 5 8 4 3 4-1 6-7 8-8 7-14 9-16 8-29 14-32 14-27 11-16 5-6-17-12-29-11-28-12-30-8-19 2-6 9-19 10-19 11-19 10-15 10-13 9-10z" fill="#EA8A77"/>
<path transform="translate(1928,738)" d="m0 0h17l10 5 7 7 5 10 2 9v13l-3 16-7 20-3 6 9 1 9 4 5 4 5 9 2 8v8l-3 12-5 10h-2l-2 4-6 7-5 5-3 1-1 2-9 5-3 2v2l6 4 8 7 6 11 1 8v6l-7 6-4 3-5-1-10-4h-16l-16 7-3 1v3l-4-1-22-15-23-16-12-8-16-11-10-7-18-12-19-13-4-3 2-5 4-5 8-4h8l13 4v2l4-2 1-12 3-13 2-10 6-20 4-9 7-11 8-7 9-5 4-1h13l9 2 1-4 4-4 9-11 11-10 11-7z" fill="#5E7990"/>
<path transform="translate(1235,615)" d="m0 0 4 5 6 12 10 27 9 13 6 4h13l19-2v11l-5 10-8 10-10 12-9 12-5 9v14l6 24v9l-7 8-17 14-9 8-5 8-1 9 1 11-1 3h-53l-2-14-4-9-15-15-3-6 1-6 8-11 6-10 1-2v-7l-9-10-6-7-2-3v-10l5-17v-7l-11-14-3-3h-10l-23 6h-14l-13-4-9-6-5-4v-3h8l6 1h17l14-3 16-7 9-7 8-7 8-11 8-16 4-14 1-1 51-1 13-2z" fill="#7EA2BE"/>
<path transform="translate(1606,847)" d="m0 0h133l14 8 16 11 14 9 19 13 12 8 13 9 19 13 12 8 20 14 16 11 15 10 8 6 1 3-7 1-12-2-84-1-96 1-1 1 1 20 6 14 3 3v3l2 1h-34l1-5 9-19 6-18-3-5-11-12-11-13-9-10-7-8-1-3h-2l-9-11-12-13-9-11-12-13-7-8-9-10z" fill="#FCFCFC"/>
<path transform="translate(705,683)" d="m0 0h7l27 8 25 10 19 10 18 11 18 13 16 13 24 22 8 8 8 6 5 3 15 15 1 3-1 1h-234l1-6 16-43 8-23 13-36 5-14z" fill="#C84C84"/>
<path transform="translate(636,433)" d="m0 0h16l10 3 9 6 7 7 9 14 8 17 5 14v2l2 1 1 13 3 27v22l-3 22-5-5-9-7-12-5-7-3 1-3 12-7-6-7-6-9-3-9v-16l5-12 7-8 6-5 6-4-6 1-8 6-7 8-5 11-1 5v14l4 12 8 11-1 4-7 4-4 3-25 2-19 5-24 8h-14l-11-7-8-9-2-4h-17l-9-3-6-4-7-8-3-8v-14l4-9 7-8 7-4 5-2h13l10 4 6 12 6 17 2-2 11-33 10-25 8-15 8-10 8-6z" fill="#E88877"/>
<path transform="translate(1073,847)" d="m0 0h132l-3 4h-2l-2 4-11 12-9 11-7 8h-2l-2 4-18 20-9 11-12 13-9 11-15 16-4 6 1 11 6 18 8 16-35 1-4 6-11 13-11 9-6 4-2-1-1-8-1-4h-2v-3l6-3 4-9v-10l-3-7v-5l3-5 3-12v-10l-5-8-4-7 2-11v-9l-5-10-7-6-8-4-4-1 2-11 7-30h2l1-3h5l15-12 14-8z" fill="#FCFCFC"/>
<path transform="translate(1100,966)" d="m0 0 2 4 2-2 4-1h203l3 1-1 9-8 21-10 17-9 10-5 5-10 9-15 9-10 5-20 5-6 1h-25l-4-1 1 5-7 3-14 3-3-5 1-3 12-2h5v-2l-8-1-9-2-19-9-14-10-10-9-7-8-7-11-8-16-4-13-1-11z" fill="#AC3F76"/>
<path transform="translate(1508,967)" d="m0 0h204l1 2-7 21-10 19-6 9-11 12-10 9-13 8-13 6-13 4-12 2-17 1-15-1-21-6-16-8-10-6-13-11-11-12-8-13-7-16-3-11v-7l2 3 5 19 7 14 1-3-1-11-2-4-2-8-3-8v-3z" fill="#AC3F76"/>
<path transform="translate(1815,967)" d="m0 0 84 1 12 2h6l-1 7-7 19-8 15-10 14-11 11-14 10-17 8-5 2-1 360h-1l-1-359-12 2h-24l-17-3-9-4-2-1v152h-1v-152l-6-2-11-6-13-10-12-12-5-8h-36l2-4 1 2 32-1-3-5-5-10-2-5-1-20 2-2z" fill="#E4EEF3"/>
<path transform="translate(882,659)" d="m0 0h7l18 6 13 15 5 4 7 3 4 7v8l-2 10 4 4 14 1 17 5 20 7 10 6 7 7v7l-8 16-3 9-1 6v24l12 1v1h-110l-4-6-16-16-1-4-8-8-4-5-8-7-4-5h2v-38l6-10 10-15 7-15z" fill="#7DA1BD"/>
<path transform="translate(1e3 759)" d="m0 0 63 1h64l37-1 5 3 3 4v7l-6 11-8 10-2 4 1 6 4 6 14 14 4 13v9h9v1l-115 1-14 7-13 10-5 4h-5l-2 2 1-9 5-22v-12l-4-9-6-7-7-4-4-1-25-2-1-1v-24l3-12z" fill="#EAE1E0"/>
<path transform="translate(1445,967)" d="m0 0h45l5 5-2 10-6 17-4 7-1 4 12 1v1l-13 1-12 16-12 12-10 7-12 6-14 4-20 2-16-3-15-6-12-7-10-8-7-7-10-14-3-5-1-5-4-8-2-7v-18l2-3 11-1z" fill="#E4EFF4"/>
<path transform="translate(1742,515)" d="m0 0h10l17 3 16 5 10 5 10 9 6 10 3 8v12l-7 13-9 10-9 11-4 5-9 4h-13l-13-4-11-6-22-13-17-9-11-4-9-1-11 4-10 4-8-1-14-8-12-8-13-10v-4l15-6 16-4 20 2h16l11-6 9-7h16l16-8z" fill="#7EA2BE"/>
<path transform="translate(1079,534)" d="m0 0h7v70l4 9 6 4 4 1h27l-1 6-6 8-9 8-7 3-5 1h-13l-9-4-8-4-1 2v6l12 6 10 2h8l14-4 9-6 8-9 7-14 2-1h8l-1 8-8 15-9 10-13 8-13 4h-17l-13-4-6-1v12l12 4 5 1h18l15-4 9-4 10-6 5-4 7-9 5-9 4-9 3-11 2-1h6l2 1-1 9-6 15-6 10-9 11-12 10-16 8-11 3-6 1h-17l-15-3-13-6-9-6-12-11-9-13-5-11-4-15-1-7v-9l3-16 5-13 7-12 12-13 14-9 11-5z" fill="#C84D84"/>
<path transform="translate(520,677)" d="m0 0h6l22 14 47 30 17 11 19 12 11 7 5 3 1-7 18-62 4-4 2-1h14l18 2 1 2-13 37-11 30-17 47-4 9-1 1h-5l-7-6-15-11-18-14-12-9-34-26-13-10-12-9-21-16-13-10-5-4-3-4 1-5 16-6z" fill="#FCFBFB"/>
<path transform="translate(1183,1292)" d="m0 0h12l4 26 2 16-2 4-26 12-24 11-16 7-17 8h-2l-3 9-4 14 48-12 56-15h6v4l-39 10-45 12-12 3-1 2v5l9 3 5 4 2 4v8l-3 6-5 4-5 2-9-1-5-4-3-6v-9l6-8 2-2 1-5-12-1-1-1v-7l5-13 2-5-1-6-15-23-12-20-7-11-15-6-6-4v-6l5-2 17 8 15-1 60-9z" fill="#F5F8FA"/>
<path transform="translate(1712,1292)" d="m0 0h12l5 31 1 13-8 5-51 23-26 12-3 5-5 13-1 5 29-7 75-20h7l-1 4-39 10-33 9-24 6-1 4v3l10 3 6 7v10l-4 6-5 4-9 1-6-3-5-6-1-10 6-9 2-2 1-5-11-1-2-2 1-9 6-14-1-7-15-24-12-19-7-11-19-8-2-2v-6l3-2 6 1 13 7 16-1z" fill="#F5F8FA"/>
<path transform="translate(1717,1054)" d="m0 0h7l6 39-1 7-19 9-36 16-30 14-6 15-2 7 28-6 74-20 9-1 1 3-7 3-32 8-41 11-19 5 1 6 9 4 5 4 1 2v10l-3 6-5 4-2 1h-10l-5-3-4-6-1-9 5-8 3-3v-5l-9-1-3-2 1-9 6-15-1-7-10-15-11-18-13-20-9-4-11-6-1-1v-5l2-2 7 1 12 6h14l80-12z" fill="#F5F8FA"/>
<path transform="translate(1174,1055)" d="m0 0 8 1 4 1v2l-17 3 2 6 17-4 3-1v-5l27 1v1h-22l4 27 1 11-3 3-26 12-40 18-17 8-5 12-4 10 25-5 71-19 12-3 4 1-1 3-9 3-21 5-52 14-15 4 1 6 10 5 5 6v8l-3 6-7 6h-11l-7-6-2-5v-8l6-8 2-2v-5l-4-1h-6l-2-1v-8l5-12 2-5-1-6-15-24-12-19-8-12-13-5-7-4v-6l3-2 6 1 14 7 19-2 73-11z" fill="#F5F8FA"/>
<path transform="translate(195,1118)" d="m0 0 2 1 1 9h3l5 15 8 15 9 14 6 7 5 5v2l4 2 5 5 6 5 2 1v2l5 2 14 8 21 8 25 6 9 2 3 9 5 19 2 4-1 6-8 16-1-3-6-1-10-4-3-1h-10l-12 5-11 8-7 6-10-18-14-22-13-17-9-10-6-7-8-7-7-8-2-5-2-18-1-20v-40z" fill="#5E7990"/>
<path transform="translate(1206,310)" d="m0 0 5 1 5 7 2 5v7l-12 6-8 10-7 8-12 9-5 10-4 10-8 9-9 4-6 1h-24l-8 3-11 9-4 4h-2l-2 4-11 8-5 1-4-2v-9l5-10 9-12 12-14 7-8-1-11 3-6-1-7-9-9-9-7-3-4 1-4 9-3 27-6h8l15 3 10 1h14l20-4z" fill="#7EA2BE"/>
<path transform="translate(523,609)" d="m0 0 6 3 7 7 8 10 9 10 17 17 16 12 17 10 19 7 12 2h11l15-3 7-1-3 12-17 59-5-2-41-26-17-11-44-28-17-11-1-2 1-63z" fill="#EA8A77"/>
<path transform="translate(949,1096)" d="m0 0h12v1h-5v344l1 19 3 14 6 10 9 8 12 6 11 2h758l51-1 11-4 9-6 7-8 5-9 2-9 1-47h1l1 44 2 4-2 9-3 9-11 12-9 6-9 4-11 2h-799l-12-1-11-4-11-7-5-5v-2h-2l-8-15-2-7-1-19v-344l1-5z" fill="#7CA3BE"/>
<path transform="translate(1567,771)" d="m0 0 5 1 11 13 8 10 5-12 4-5 2-1h6l5 5 2 8 3 27 4 17 4 12-21 1-106-1v-17l2-14 4-6 2-1h9l11 3h7l5-10 4-10 2-2 7-1 7-11z" fill="#7EA2BE"/>
<path transform="translate(1437,1312)" d="m0 0 4 2 17 29 28 48 8 13 1 4-13 1h-97l-4-2 6-10 10-17 1-2h2l1-5 6-10 15-26z" fill="#FCFCFC"/>
<path transform="translate(1440,1074)" d="m0 0 4 4 17 29 15 26 16 27 5 9v2h-113l1-5 7-11 8-14 12-20 15-26 12-20z" fill="#FCFCFC"/>
<path transform="translate(1047,955)" d="m0 0 4 5 5 8v10l-4 15-2 2 1 7 2 5v10l-4 9-4 3h-3v3h2l3 7-1 8-9 5-28 9-5 1h-7l-7-5-1-4v-10l2-4 31-3 14-4 2-1-9 2-13 3-14 1h-10l-11-2-6-3-3-3-1-3v-11l1-8 10 4 7 1h15l21-4 13-5-1-1-17 6-18 3h-13l-13-3-4-4 1-10 4-11 7-7h7l12 3h12l15-3 10-5 4-6z" fill="#E68677"/>
<path transform="translate(1548,677)" d="m0 0h3l2 3 3 1 1 14v42l1 22 256 1 7 2v6l-228 1-28 1-8-1 1 11-6 9-4 1-1-1v-20h-277l-2-2v-7l238-1 6 4h4l1-4 30 1v-78z" fill="#FCFCFC"/>
<path transform="translate(840,1097)" d="m0 0 9 1 1 7v6l98 1 1 1v8h-99v108l-1 30 1 16v52l-1 139h88l15 1 1 7-111 1-3 1v-27l1-72v-60l-1-12-1-43 5-2-2-57-1-17-1-63v-25z" fill="#FCFCFC"/>
<path transform="translate(1197,493)" d="m0 0h6l2 5 3 22v7l-15 7-28 13-19 9h-2l-1 4-5 13 48-12 11-3 1-1 7-1 8-3 7-1v4l-69 18-2 1-1 4 6 2 5 3 2 5-1 6-2 4-5 3h-8l-6-5-1-2v-8l5-7 1-4h-8l-1-2 1-9h2l1-5 1-7-5-8v-2h-2l-6-11-7-11v-2h-2l-3-5-5-3-10-5-1-1v-5h7l7 4h13l49-7 19-3z" fill="#F2F5F7"/>
<path transform="translate(1646,233)" d="m0 0 5 1 4 27v6l-27 12-28 13-9 5-4 10-1 5 27-6 38-10 12-3h5l-3 3-31 8-37 10h-2l2 5 8 4 2 4v8l-5 5-3 2-9-1-4-5-1-8 6-9v-2l-8-2-1-1 1-9 4-7v-6l-7-10-1-4h-2l-6-11-7-11-5-5-12-5-1-6 5-1 10 5 28-2 45-7z" fill="#F3F4F5"/>
<path transform="translate(1202,340)" d="m0 0h2v67l62-1 8-2 2-2v3l-9 9-7 3-4-1h-52v44l-1 1h-8l-1-2v-43h-71l-24 1-1-4h2l1-3 14-11 8-3h24l12-3 8-7 5-10 4-10 5-5 13-11z" fill="#FCFCFC"/>
<path transform="translate(888,289)" d="m0 0h1v13l-13 4-12 6-11 10-8 15-3 13v11l3 12 6 12 9 10 8 6 11 5 9 2h13l14-4 9-5 10-9 6-7 6-15 3-10 2-1h8l2 2-2 13-5 13-7 11-9 10-11 8-13 5-17 3-15-1-13-4-10-5-13-11-9-12-5-11-4-14v-17l4-15 9-16 9-10 9-7 11-5 14-4z" fill="#8AA9C1"/>
<path transform="translate(1529,291)" d="m0 0 4 1v11l-12 4-12 6-10 9-7 11-5 15v15l4 14 6 11 8 9 9 6 13 5 5 1h14l11-3 12-6 10-9 7-10 5-13 2-9 1-1h8l4 2-3 15-5 12-6 10-9 10-10 7-11 5-17 4h-12l-12-2-12-5-10-7-10-9-7-10-6-13-3-11v-15l3-15 4-10 7-10 10-11 11-7 16-6z" fill="#8BA9C2"/>
<path transform="translate(998,232)" d="m0 0h9l4 26v8l-31 14-3-1 1-5h3l5-1 7-3-3-11v-7h2l2 3 11-3v-10l-1-6-15 2 1 13-4-3-15 2 1 7-2-1v-2h-2v-2l-15 3 3 9 2 4 3 1 1 5 3 5v2l11-2v3l-26 12-3 1-3 9-2 7 27-6 25-7 13-4 14-3 3 1v2l-10 3-46 12-15 4 1 5 8 5 1 2v9l-4 5-8 2-5-2-4-5v-10l4-5h2v-3l-9-2-1-4 5-14-1-6-10-16-12-19-3-4-12-5-3-3v-4l5-1 10 5h10l22-3 45-7z" fill="#F0F4F7"/>
<path transform="translate(1367,1103)" d="m0 0 4 2 9 10 11 14 8 9v2l2 1-12 21-4 6-1 3h-70l1-4 11-13 7-9 13-16 11-14 9-10z" fill="#AEC4D4"/>
<path transform="translate(886,279)" d="m0 0h3v10l-5 2-17 5-11 6-12 11-10 17-4 13-1 4v17l5 17 6 11 8 10 11 9 12 6 11 3 15 1 17-3 13-5 11-8 8-9 7-11 5-13 2-13-1-2h12v10l-7 21-9 14-9 10-9 8-10 5-15 5-7 1h-23l-15-4-15-8-11-9-9-11-7-12-5-16-2-13 1-14 2-11 5-12 7-11 9-10 7-6h2v-2l16-8 13-4z" fill="#C74C84"/>
<path transform="translate(1237,415)" d="m0 0h19l7 1-5 5-7 8 2 5 7 9 6-2 7-6 9-13 7-6h4l3 11 6 8-2 4-21 11-11 8-3 1-19 1-7 3-2 2-5-1-3-1-26-1v-20l1-26z" fill="#E9E0E0"/>
<path transform="translate(1365,1340)" d="m0 0 3 1 9 11 8 9 12 15h3v2h-2l-2 6-15 24h-70l3-5 10-12 16-20 18-22z" fill="#AEC4D4"/>
<path transform="translate(1529,280)" d="m0 0h4v11l-15 4-14 6-10 8-9 11-5 8-4 11-2 12v15l5 16 6 11 7 9 9 8 14 8 10 3 8 1h12l17-4 16-8 11-10 8-13 5-12 3-15 1-1h10l-1 10-4 13-8 17-8 11-8 7-16 9-10 4-8 2-9 1h-11l-15-3-13-5-11-7-12-11-7-10-7-14-4-15-1-7v-12l4-17 6-13 6-9 9-10 12-9 15-7z" fill="#C64C83"/>
<path transform="translate(1079,534)" d="m0 0h7v10l-21 7-11 6-5 5h-2l-2 4-9 12-5 11-3 15v13l6 20 7 11 9 10 9 8 12 6 12 3h18l15-4 9-4 10-6 5-4 7-9 5-9 4-9 3-11 2-1h6l2 1-1 9-6 15-6 10-9 11-12 10-16 8-11 3-6 1h-17l-15-3-13-6-9-6-12-11-9-13-5-11-4-15-1-7v-9l3-16 5-13 7-12 12-13 14-9 11-5z" fill="#C74D84"/>
<path transform="translate(488,575)" d="m0 0 4 1 9 13 15 15 7 5 1 2-1 64 1 2-16 6-6 2 1 5 1 2-4-2v-6l-4 1h-7l-1-2z" fill="#EAE1E0"/>
<path transform="translate(949,1096)" d="m0 0h12v1h-5v344l1 19 3 14 6 10 9 8 12 6 11 2 12 1 200 1v3 1h-208l-12-1-11-4-11-7-5-5v-2h-2l-8-15-2-7-1-19v-344l1-5z" fill="#7EA2BE"/>
<path transform="translate(826,932)" d="m0 0h14l15 2 13 5 8 5 4 5 1 6-4 6-14 8-17 4h-26l-13-3-14-7-6-7v-7l5-5 5-4 12-5z" fill="#2F3A48"/>
<path transform="translate(1098,967)" d="m0 0h1l4 18 6 15 6 12-35 1-4 6-11 13-11 9-6 4-2-1-1-8-1-4h-2v-3l6-3 4-9v-10l-3-7v-5l3-5 3-12 1-10 2 1 2-1z" fill="#E4EEF3"/>
<path transform="translate(824,573)" d="m0 0h22l5 3v38h-2l2 15v16l-3-1-4-4-7-3 2-18-16 8-8 3h-7l-10-3-6-4-1-4 5-12 4-10 3-12 4-6 7-4z" fill="#E9E0E0"/>
<path transform="translate(883,322)" d="m0 0h6l1 23 3 6v2l5 2 3 1 20 1 9 1-1 6-7 13-7 8-11 4-5 1h-11l-10-4-9-7-7-11-2-7v-9l2-9 5-9 7-7z" fill="#C74C84"/>
<path transform="translate(692,481)" d="m0 0 4 2 4 11v2l2 1 1 13 3 27v22l-3 22-5-5-9-7-12-5-7-3 1-3 12-7-6-7-6-9-3-9v-16l5-12 7-8 6-5z" fill="#E78777"/>
<path transform="translate(660,806)" d="m0 0h22v1l-11 1-4 1-1 3h-2l-2 6-5 14-7 28-3 14-7 30-11 49-5 23-1 10 3 4-1 2-5-6-3-11v-26l1-24 11-46 11-47 4-12 4-6 6-6z" fill="#2F3A48"/>
<path transform="translate(1532,322)" d="m0 0h1v17l2 11 5 5 4 2 6 1 25 1-4 13-7 9-8 6-8 3-4 1h-10l-9-3-9-6-6-7-4-9-1-2v-13l3-9 4-7 4-5 11-7z" fill="#C74C84"/>
<path transform="translate(1622,358)" d="m0 0h51v1h-23l7 9 1 8-5 10-12 14-3 5v6l8 20 2 6v4l-6-1-11-9-6-7-1-2v-7l3-5-4-10-3-1-2 7-3 2-5 1h-14l5-9 8-16 4-11 3-14z" fill="#7FA2BE"/>
<path transform="translate(1757,414)" d="m0 0 9 3 25 12 12 6 2 3-8 5-8 6-4 8-7 29-5 8-4 1-8-4-6-8-1-3v-7l2-9v-11l-7-16-1-2v-8l6-10z" fill="#7EA2BE"/>
<path transform="translate(843,35)" d="m0 0h6l1 1 1 251 1 4-1 3-9 7h-2v-124l2-11v-19l-3-17h2v-93z" fill="#FCFCFC"/>
<path transform="translate(1872,1218)" d="m0 0h8v255l-1 1h-7l-1-1v-253z" fill="#FCFCFC"/>
<path transform="translate(884,302)" d="m0 0h5v11l-15 5-8 6-7 8-4 8-2 6v17l5 13 6 9 7 6 11 5 3 1h19l13-5 10-9 4-8 4-7 3-10 2-1h7l2 1-4 16-6 12-12 12-10 6-8 3-8 2h-13l-12-3-13-7-11-11-6-10-4-12-1-5v-11l3-13 8-15 8-8 11-7z" fill="#C74C84"/>
<path transform="translate(725,436)" d="m0 0 16 1 24 4 12 3 3 3v9l-5 12-6 8-5 4-4 1h-11l-15-2-4-1-18-1 6-16 5-15z" fill="#7DA1BD"/>
<path transform="translate(1530,303)" d="m0 0h3v11l-16 6-9 7-7 11-3 7-1 5v12l4 12 6 10 7 7 10 5 7 2h17l13-5 8-6 7-9 4-11 2-8 5-1 6 1-1 9-6 15-8 10-9 8-14 7-9 2h-14l-13-4-8-4-9-7-7-8-6-12-3-12v-15l5-15 7-11 8-8 10-6z" fill="#C74C84"/>
<path transform="translate(1024,912)" d="m0 0 6 1 10 6 6 7 3 7v9l-6 22-4 6-10 5-7 2h-22l-11-3-1-4 6-9 11-11 10-7 6-21z" fill="#E88877"/>
<path transform="translate(1083,576)" d="m0 0h3v28l4 9 6 4 4 1h27l-1 6-6 8-9 8-7 3-5 1h-13l-9-4-7-4-7-10-4-11v-10l3-10 6-9 8-7z" fill="#C74C84"/>
<path transform="translate(838,1096)" d="m0 0h111l2 1-1 331h-1v-306l-3-1h3l-1-8-93-1-5-1-1-13h-9v60h-1l-1-34z" fill="#DFDBDE"/>
<path transform="translate(496,684)" d="m0 0h4l-1 4-16 8-23 10-26 11-23 10-31 13-16 8-8 7-15 16-19 19-7 8-22 22-7 8-15 16-16 17-15 15-7 8-7 7-7 8-9 9-4-1 1-4 9-9 7-8 16-17 8-8 1-2h2l2-4 15-15 7-8 12-12 1-2h2l2-4 15-15 1-2h2l2-4 22-22 7-8 21-21 12-6 17-7 10-4 13-6 8-3 13-5 12-6 9-4 7-3 24-10 5-2z" fill="#33343D"/>
<path transform="translate(512,132)" d="m0 0h1v11l-1 8v13l4 20v3h2l1 7-1 1-63 1 5-5 13-16 8-10 11-12 9-10z" fill="#E9E1E1"/>
<path transform="translate(1084,544)" d="m0 0 2 1v12l-13 4-11 6-8 7-7 11-5 13-1 5v14l3 12 7 13 9 9 6 5 3 2h-3v11l-5-1-9-7-10-10-7-11-4-9-4-14v-13l3-15 7-14 8-10 5-5 7-6 13-6z" fill="#F1EBE9"/>
<path transform="translate(1074,529)" d="m0 0 4 2v3h-2v2l-14 5-12 7-9 7-8 9-8 14-5 15-2 12v9l3 16 5 13 7 12 11 12 11 8 10 5 10 3-4 1v3l-6 1-3 3-8-1-6-4-4-4-5-3-11-14-9-14-6-18-5-14v-17l3-17 3-4 4-10 4-6h4v-4l4-3 2-2 3-2v-3l3-6 8-6 17-7 2-1 2 1v-2z" fill="#F1EBE9"/>
<path transform="translate(1978,879)" d="m0 0 4 4 14 26 8 16-1 3-16 6-16 9h-3l-2-11 1-2-2-1-4-8v-2l-4-2-8-7-3-2 1-3 9-6h3l1-3 4-2 5-5 7-9z" fill="#E9E0E0"/>
<path transform="translate(1192,352)" d="m0 0 2 4v50l-1 1h-78l-4-1-1-3 9-6 10-1h18l12-3 8-7 5-10 4-10 5-5z" fill="#EAE1E0"/>
<path transform="translate(1694,389)" d="m0 0 4 2 18 13 8 6 2 4-1 8-6 8-6 5-6 1-9-4-18-7-9-8-2-3v-5l5-6 15-11z" fill="#7EA2BE"/>
<path transform="translate(1050,437)" d="m0 0 6 2 3 7 1 28-4 7-7 6-4 11-5 4-4 1h-8l-8-3-4-5 7-6 9-6 6-7v-7l-8-11-8-8 1-4 8-4z" fill="#7EA2BE"/>
<path transform="translate(904,238)" d="m0 0 6 1 7 4h10l14-1-1 2-6 2-14 1 5 9 4 2 3 9 4 6 9-2 8-2v-6l4 2 1 3 3 1 1 5 3 5v2l11-2v3l-26 12-3 1-3 9-2 7 27-6 25-7 13-4 14-3 3 1v2l-10 3-46 12-15 4 1 5 8 5 1 2v9l-4 5-8 2-5-2-4-5v-10l4-5h2v-3l-9-2-1-4 5-14-1-6-10-16-12-19-3-4-12-5-3-3v-4z" fill="#F4F7F8"/>
<path transform="translate(1547,239)" d="m0 0 6 1 8 4 4 1h12l-1 2-11 2 2 5 3 4 20-3 2-2 3 2 3 7 3 5v2l3 1 2 6 2 3v4h-2l-6-10-15 4-2 2 7 11 4 1 14-7 4 1-8 5-13 7-4 10-1 5 27-6 38-10 12-3h5l-3 3-31 8-37 10h-2l2 5 8 4 2 4v8l-5 5-3 2-9-1-4-5-1-8 6-9v-2l-8-2-1-1 1-9 4-7v-6l-7-10-1-4h-2l-6-11-7-11-5-5-12-5-1-6z" fill="#F5F6F7"/>
<path transform="translate(495,1257)" d="m0 0h214l66 1 19 1 43 1 1 2h-200l-272-1-31-1v-1l27-1z" fill="#AC3F76"/>
<path transform="translate(1579,710)" d="m0 0 12 5 25 13 18 11 3 4-9 8-5 2h-7l-24-7-13-5-6-5-1-2 1-11z" fill="#7EA2BE"/>
<path transform="translate(1147,618)" d="m0 0h9l3 3-3 12-6 12-6 8-6 7-11 7-8 4-13 4-5 1h-18l-15-4-3-3 1-11 9 1 10 3h17l15-5 12-8 7-8 8-15z" fill="#8CAAC2"/>
<path transform="translate(1531,314)" d="m0 0 2 2v6l-10 4-8 6-5 7-3 7-1 5v13l4 9 6 8 9 6 9 3h10l10-3 9-6 7-9 4-12 3-2h4l1 3-3 13-5 8-8 9-12 6-6 2h-17l-12-4-8-6-7-8-6-12-2-7v-12l3-10 7-12 9-8 12-5z" fill="#85AEC5"/>
<path transform="translate(886,313)" d="m0 0h3v9l-9 2-9 7-5 6-4 8-1 7v9l4 11 7 9 10 6 6 2h11l13-4h3l2-4 6-7 7-15 1 2 7-2-3 12-4 5-4 8-10 9-13 5h-19l-12-5-8-6-6-7-5-11-2-6v-17l5-12 6-8 9-8 11-4z" fill="#88B0C6"/>
<path transform="translate(365,675)" d="m0 0h2v2l-10 6-3 3-5 2-13 8-9 5-4 3h-2v2l-5 3-5 4-4 2-17 17-8 4-7 6h-2v2l-8 6-10 6-6 5h-2l-2 4h-2v2l-8 7-9 8-2 3h-2l-1 3h-2v3h-2l-2 4-6 10h-2l-1 4-5 6-3 3h-2l-2 4-5 4-5 5h-2l-2 5-4 9-5 5h-2l-2 5-5 7-2-1 14-22 13-18 14-18 13-15 14-15 18-18 8-7 14-12 16-12 18-13 22-14 27-15z" fill="#F4EFED"/>
<path transform="translate(1197,493)" d="m0 0h6l2 5 3 22v7l-30 14-4-1 1-5 1 2 12-4 1-1-1-9-10 2-3 1-1 5-3-2v-2l-4-1 2-6h-2l-2-7-4-1 1-3-1-6h-11l4-3 34-5z" fill="#EEF3F5"/>
<path transform="translate(1e3 759)" d="m0 0 63 1h64l37-1 5 3 2 3-1 4h-172v-7z" fill="#FCFCFC"/>
<path transform="translate(1743,1134)" d="m0 0h4l1 3-7 3-32 8-41 11-19 5 1 6 9 4 5 4 1 2v10l-3 6-5 4-2 1h-10l-5-3-4-6-1-9 5-8 3-3v-5l-9-1-3-2 1-9 5-12h2l2-4 1 4-6 18 28-6 74-20z" fill="#F6F9FA"/>
<path transform="translate(499,687)" d="m0 0 1 3-42 19-6 3-10 4-15 7-5 2-4 2-10 4-15 7-11 4-5 3h-2v2l-9 4-3 1-1 3-5 5-4 2-2 4-7 8h-2v2h-2l-1 3h-2l-2 4h-2l-1 3h-2l-2 4-6 7-6 5-5 6h-2l-2 6-4 1-2 4-17 17-1 2h-2l-1 3-8 7-3 4h-2l-2 4-3 3h-2l-1 3h-2l-2 4h-2l-2 4-6 7h-2l-1 3h-2l-1 4h-3l-2 4-2 3h-3v3l-4 2-2 4-5 5h-2v2l-4 1v2l-5 2-2-5h5l14-14 7-8 7-7 7-8 18-18 7-8 9-9 7-8 15-16 19-19 7-8 22-22 7-8 9-8 17-8 29-12 27-12 24-10 27-12z" fill="#AB3F76"/>
<path transform="translate(1e3 235)" d="m0 0 4 1 1 6v10l-10 4-4-2v-2h-2l3 14 1 4-2 2-8 3-5-1-1 7h-2v-2l-5 2h-6l-5-8v-4l-5-5-3-9 5-2 11-1v2h2l1 2v-6l12-3 4 1 2 2-1-12 5-2z" fill="#EAF0F3"/>
<path transform="translate(1529,291)" d="m0 0 4 1v11l-12 4-12 6-10 9-7 11-5 15-1 14-5-2-7-1v7h-1v-15l3-15 4-10 7-10 10-11 11-7 16-6z" fill="#F1EBE9"/>
<path transform="translate(1842,1416)" d="m0 0h1l1 44 2 4-2 9-3 9-11 12-9 6-9 4-13 1h-169v-1l27-1-228-1v-1l327-1 51-1 11-4 9-6 7-8 5-9 2-9z" fill="#78AAC3"/>
<path transform="translate(642,1412)" d="m0 0 4 1-1 5-13 21-21 33-8 12-4 7-11 17-8 13-5 7-4 7-10 15-7 11h-5v-4l6-11 2-4h2l2-6 5-6 3-6 5-8 6-9 8-13 14-22 7-10 6-10 7-11 10-16 7-10z" fill="#F0F2F3"/>
<path transform="translate(1099,500)" d="m0 0h7l10 5v2l6-1v2l-4 2 5 8h9l-1 3-5 1 4 8 3 4h8v3l-3 1 1 6 5 7 7-1-1 4-6 2-1 4-5 13 48-12 11-3 1-1 7-1 8-3 7-1v4l-69 18-2 1-1 4 6 2 5 3 2 5-1 6-2 4-5 3h-8l-6-5-1-2v-8l5-7 1-4h-8l-1-2 1-9h2l1-5 1-7-5-8v-2h-2l-6-11-7-11v-2h-2l-3-5-5-3-10-5-1-1z" fill="#F4F6F8"/>
<path transform="translate(53,1246)" d="m0 0 7 1 28 11 17 8 22 13 17 13 10 9 8 8 11 15 9 15 8 17 7 21 10 40 5 19 8 21 12 23 12 17 7 8 2 5-2 2-11-14-10-14-9-16-9-20-7-21-9-36-7-25-6-16-10-19-11-15-9-10-10-10-13-10-17-11-23-12-27-11-9-4z" fill="#5D788F"/>
<path transform="translate(845,684)" d="m0 0h5l1 26 1 6 1 39-4-1-13-12-5-3v-2l-5-2v-2l-4-2-8-5v-2l-5-2-12-8-7-5-11-6-7-4 1-2 6 1 12 6 19 12 17 12 7 6 4 4 2 1v-54z" fill="#F8F8F9"/>
<path transform="translate(1195,190)" d="m0 0h7l1 1 1 119-1 2h-7l-1-1-1-40v-80z" fill="#FCFCFC"/>
<path transform="translate(1646,233)" d="m0 0 5 1 4 27v6l-25 11-6-2-3-6v-5l10-3h5l-1-3-7 2-3 1h-7l-3-7v-4l12-3h4l2 5v3h3l-2-4v-5l7-3h-9l-1-5 6-2h5l-1-3z" fill="#E5EEF2"/>
<path transform="translate(801,397)" d="m0 0 5 1 7 9v7l-2 3-29-1h-55v-4h-2v-7l8 1h29l17-2 11-5z" fill="#FCFCFC"/>
<path transform="translate(977,405)" d="m0 0 20 1 82 1-1 6-2 4-11-1h-102l-4-2h2v-2l12-6z" fill="#FCFCFC"/>
<path transform="translate(488,575)" d="m0 0 4 1 9 13 2 4-5-2v92l-2 2h-7l-1-2z" fill="#FCFCFC"/>
<path transform="translate(1313,487)" d="m0 0 9 1 12 6 8 7 1 5-5 6-9 4-16 3-5 1h-6v-22l4-6 5-4z" fill="#E9E0E0"/>
<path transform="translate(1452,700)" d="m0 0 5 4 9 16 6 13 5 8 7 4 20 6 7 2 3 4v2h2l1 4-5 1-11-7-14-8-13-3-15-1-7-3-4-5-1-9 3-21z" fill="#7DA2BE"/>
<path transform="translate(1518,693)" d="m0 0h4l3 8v9l-6 20-3 7-6-1-10-9-6-10-1-8 4-5z" fill="#7EA2BE"/>
<path transform="translate(888,289)" d="m0 0h1v13l-13 4-12 6-11 10-8 15-2 3v-5l-10-1-1-2 9-16 9-10 9-7 11-5 14-4z" fill="#F1EBE9"/>
<path transform="translate(1600,240)" d="m0 0h6l3 5v3h2l4 11 1 6-11 3-5-1-5-8v-4h-4l-1 1-13 2-7 1-4-5-2-5 7-2 5-1h-14l2-2 25-2z" fill="#E6EFF4"/>
<path transform="translate(1082,568)" d="m0 0 4 1v7l-10 4-9 8-6 12-1 5v10l4 11 6 9-2 3-1 5-7-6-5-7-4-12-1-11 2-11 5-10 9-10 10-6z" fill="#FAF8F8"/>
<path transform="translate(618,586)" d="m0 0 6 1 33 13 8 4-2 4-7 5-6 2h-13l-6-3-7-9-5-11z" fill="#F9F9F9"/>
<path transform="translate(1740,1146)" d="m0 0 9 2 6 4 3 6v8l-3 5-6 5-2 1h-9l-7-5-3-6v-8l4-6 5-5z" fill="#F8F9FA"/>
<path transform="translate(1739,1384)" d="m0 0 9 1 5 3 4 5 1 9-3 7-5 4-2 1h-11l-7-6-2-5v-7l4-7 5-4z" fill="#F7F9FA"/>
<path transform="translate(1208,1147)" d="m0 0h9l8 4 3 5v12l-6 7-4 2h-9l-6-4-4-6v-9l5-8z" fill="#F8FAFA"/>
<path transform="translate(1210,1384)" d="m0 0 9 1 5 3 4 5v12l-4 6-5 3h-11l-7-6-2-4v-9l6-8z" fill="#F8FAFA"/>
<path transform="translate(1935,782)" d="m0 0h2l-2 5-7 7h-2l-2 4-11 12-7 10-7 11-5 10-5 15-2 10-1 13v10l2 17 5 37v7l-5-2-1-15-6-43v-16l4-22 7-18 9-15 10-13 12-13 8-8z" fill="#7EA2BE"/>
<path transform="translate(723,140)" d="m0 0h10l6 4 3 5v11l-6 7-4 2h-9l-5-3-4-5-1-2v-9l6-8z" fill="#FBFBFC"/>
<path transform="translate(621,141)" d="m0 0h10l6 4 3 5v10l-4 6-4 3-3 1h-7l-8-5-3-7 1-9 3-5z" fill="#FAFBFB"/>
<path transform="translate(1130,618)" d="m0 0 5 2-3 9-6 9-7 7-10 5-11 3h-8l-10-2-12-6-1-1v-6l3-3 10 6 6 2h13l9-3 7-4 7-7 5-10z" fill="#85AEC5"/>
<path transform="translate(672,140)" d="m0 0h9l7 4 3 5v10l-4 6-6 4h-8l-6-3-4-5-1-3v-7l4-7z" fill="#FAFBFC"/>
<path transform="translate(1517,278)" d="m0 0h4v2h3v2l-16 6-11 6-10 8-8 9-6 9-5 12-5 22h-1l-2-7-3-4 2-5 3-1 2-4 4-10-1-1-4 8h-3l2-7 6-11 6-10 5-5 12-9 10-6 9-3z" fill="#F2ECEA"/>
<path transform="translate(841,574)" d="m0 0h8l2 2v38h-2l2 15v16l-3-1-4-4-7-3 1-6 2-14z" fill="#FCFCFC"/>
<path transform="translate(709,624)" d="m0 0h2l1 11-4 17-2 5h-2l-2 4h-2v7l1 2 9 2 13 3 15 4 4 2 5 1 12 6 11 4 7 4-4 2h-4l-25-11-26-8-15-3-18-2 2-4 7-8 5-7 6-14z" fill="#EEEAE9"/>
<path transform="translate(1201,493)" d="m0 0 3 1 4 26v7l-30 14-4-1 1-5 1 2 12-4 1-1-1-9-10 2-3 1-1 5-3-2v-2l-4-1 2-6h-2l-2-7-4-1 1-3-1-6h-11l4-3 9-1h9l-3 2-5 1 2 5 10 1-3 3-4 1 1 6 2 5 13-4h2v-5h2l1 2 7-1 6-1-1-9-3-2 3-1-1-5-5-1 2-2z" fill="#F6F7F8"/>
<path transform="translate(488,331)" d="m0 0h9l1 55h2l-1 4-9 14h-2z" fill="#FCFCFC"/>
<path transform="translate(840,1317)" d="m0 0h1v60l-1 72v26h2l1 9v65l-1 14-1 1h-5l1-46 2-148z" fill="#EEE9E9"/>
<path transform="translate(1096,970)" d="m0 0h2l1 8h2l6 18 7 13v2h-33l3-7 6-12 4-13z" fill="#FBFBFB"/>
<path transform="translate(1639,1324)" d="m0 0h5l6 9 3 6-1 3-21 6-4-1-9-14 1-4z" fill="#81A4BF"/>
<path transform="translate(1113,1086)" d="m0 0 3 1 8 16-9 4-13 4-4-1-9-14v-4z" fill="#81A4BF"/>
<path transform="translate(1110,1324)" d="m0 0h5l6 10 2 4-1 4-20 6-4-1-10-15 2-3z" fill="#81A4BF"/>
<path transform="translate(998,232)" d="m0 0h9l4 26v8l-31 14-3-1 1-5h3l5-1 7-3-3-11v-7h2l2 3 11-3v-10l-1-6-15 2 1 13-5-4v-6l-1-2-5-1 3-3z" fill="#F0F4F6"/>
<path transform="translate(1639,1087)" d="m0 0h5l6 9 3 6v2l-24 7-6-7-5-9v-3z" fill="#80A3BF"/>
<path transform="translate(469,936)" d="m0 0 4 1-3 7-11 17-14 22-16 25-11 17-4 3-2-1 1-5 15-23 24-38 14-22z" fill="#2E2B32"/>
<path transform="translate(1122,1345)" d="m0 0 5 1 6 9 2 4-1 4-18 8h-3l-7-11-4-6v-2z" fill="#81A4BF"/>
<path transform="translate(1652,1345)" d="m0 0 4 1 6 9 2 4-1 4-17 8h-4l-11-18 2-2z" fill="#80A4BF"/>
<path transform="translate(1122,1108)" d="m0 0h5l8 14v3l-17 8h-5l-9-13-2-5 10-4z" fill="#81A4BF"/>
<path transform="translate(1651,1108)" d="m0 0h5l9 15-3 3-15 7h-5l-11-17 1-2z" fill="#81A4BF"/>
<path transform="translate(1288,779)" d="m0 0 3 1 2 6v11l-3 15-6 12-5 1-6-25 1-4 9-6 3-5z" fill="#7DA2BE"/>
<path transform="translate(1531,314)" d="m0 0 2 2v6l-10 4-8 6-5 7-3 7-2 17-7-1-1 3-1-3v-12l3-10 7-12 9-8 12-5z" fill="#FAFAFA"/>
<path transform="translate(951,357)" d="m0 0h8l2 2-2 13-5 13-7 11-6-2-9-1 6-7 6-12 5-16z" fill="#80ACC4"/>
<path transform="translate(1538,637)" d="m0 0 7 1 13 8-1 31-2 2-15-27-3-8v-6z" fill="#FBFBFC"/>
<path transform="translate(820,334)" d="m0 0 1 2-2 17 1 14 4 15 5 11h-4l-5-6-2-3-2-7-3-8-3-3-7-1v-4l3-5 1-5 5-8 4-6h3z" fill="#7DABC4"/>
<path transform="translate(961,392)" d="m0 0 1 2 6-2h8l-1 13-5 4-12 5-19 6-5 2 4-4 8-7 9-10z" fill="#85A6C1"/>
<path transform="translate(850,54)" d="m0 0h1l1 226 2 1 15-4 13-2-1 2 2 2h-3v2l-15 5-12 6-2-1-1-4z" fill="#F3EDEB"/>
<path transform="translate(2007,973)" d="m0 0h2l-1 3-18 10-17 12-13 12-10 11-8 13-6 13-5 17-3 18-4 38-5 23-4 9-1-3 3-9 4-21 5-48 4-17 6-15 5-10h2v-3h2l1-4 15-16 6-7 19-14 19-11z" fill="#5D788F"/>
<path transform="translate(977,980)" d="m0 0h2l-2 6-3 8-1 10 3 3 13 3h13l18-3 18-6v3l-13 5-21 4h-15l-10-2-6-3-1 7v11l3 5 9 4 8 1h10l14-1 16-4 7-1-3 3-14 4-31 3-2 3v-4l-7-1-8-4-5-6-2-4 1-7 1-4 1-17 4-12z" fill="#2E2F39"/>
<path transform="translate(1389,1293)" d="m0 0h9l6 5 1 9-5 7-4 2-9-1-5-5-1-8 4-6z" fill="#AEC4D4"/>
<path transform="translate(975,236)" d="m0 0h5l4 2 2 3-1 6-11 3h-3l1 7-2-1v-2h-2l-3-5-13 3-4-2-2-3v-4l12-2 1-2z" fill="#F5F7F7"/>
<path transform="translate(703,20)" d="m0 0 3 1-4 3-21 6-10 5-16 6-6 1v2l-6 1v2l-6 3-11 3v2l-10 4-7 4-3 2 154 1v1h-162l4-3 24-13 25-12 28-11z" fill="#ECEEEF"/>
<path transform="translate(1631,1308)" d="m0 0 5 1 5 9-1 3-22 5-5-1-7-11 1-2z" fill="#82A5C0"/>
<path transform="translate(1102,1308)" d="m0 0 5 1 5 9-1 3-22 5-5-1-7-11 1-2z" fill="#81A4BF"/>
<path transform="translate(1099,1071)" d="m0 0h8l5 9v3l-16 4-5 1h-7l-6-10-1-3z" fill="#81A4BF"/>
<path transform="translate(1629,1071)" d="m0 0h7l5 9v3l-16 4-10 2-3-3-6-10v-1z" fill="#82A4BF"/>
<path transform="translate(1147,618)" d="m0 0h9l3 3-3 12-5 10-6 4-9 7-4-1v-3l6-7 4-10 1-5z" fill="#7DABC4"/>
<path transform="translate(1099,500)" d="m0 0h7l10 5v2l6-1v2l-4 2 5 8h9l-1 3-5 1 4 8 3 4h8v3l-3 1 1 6 5 7 7-1-1 4-6 2-1 4-2 5h-3l1-5 1-7-5-8v-2h-2l-6-11-7-11v-2h-2l-3-5-5-3-10-5-1-1z" fill="#F6F8F8"/>
<path transform="translate(1565,1053)" d="m0 0 10 2 11 3 15 1-1 3 3-1 27-1-1 4-16 4-12-2-1 2-11-5h-5l-3 2-6-1-3-2-7 1-1 4v-13z" fill="#77A9C3"/>
<path transform="translate(1593,316)" d="m0 0 3 1 3 3 6 3 2 4v8l-5 5-3 2-9-1-4-5-1-8z" fill="#F3F6F8"/>
<path transform="translate(1016,300)" d="m0 0 9 1 6 4 1 9-3 5-3 3-3 1h-7l-5-5-1-3v-8z" fill="#F3F5F6"/>
<path transform="translate(1213,562)" d="m0 0h8l5 2v2h2l1 3v7l-3 5-4 3h-9l-5-5-1-2v-9l5-5z" fill="#F4F5F6"/>
<path transform="translate(858,301)" d="m0 0h3v2l-5 5-3 1v5h5l-1 4-6 7-7 15h-1v-5l-10-1-1-2 9-16 9-10 4-3z" fill="#F9F8F8"/>
<path transform="translate(1139,1080)" d="m0 0 3 1 5 11-1 5-13 4h-5l-8-13-1-3 15-4z" fill="#82A4BF"/>
<path transform="translate(1594,358)" d="m0 0h8l4 2-3 15-5 12-2 2-4 2h-4l-1-9 5-18z" fill="#7EACC4"/>
<path transform="translate(1669,1080)" d="m0 0 3 2 4 10v5l-14 4h-5l-8-13v-3l15-4z" fill="#81A4BF"/>
<path transform="translate(893,801)" d="m0 0 3 3-1 2h-234v-1l15-1h217z" fill="#AC3F76"/>
<path transform="translate(1136,1318)" d="m0 0h6l5 13v3l-16 5-4-1-7-12 1-4z" fill="#81A4BF"/>
<path transform="translate(553,251)" d="m0 0h8l5 3 2 3v9l-1 3-7 4-7-1-7-6v-7l1-3h2l1-3z" fill="#FAFAFB"/>
<path transform="translate(1386,1057)" d="m0 0 19 2 4 1h-3l1 2v8l-6 7-3 1h-7l-6-5-1-2v-9z" fill="#AEC4D4"/>
<path transform="translate(1665,1318)" d="m0 0h6l5 12-1 4-8 3-9 2-7-10-2-6 8-3z" fill="#82A5BF"/>
<path transform="translate(1725,407)" d="m0 0h41l4 1 1 4-4 4-10-1-4 2-20-1-8-2-1-6z" fill="#FCFCFC"/>
<path transform="translate(479,251)" d="m0 0 6 1 6 7v6l-4 6-3 2h-8l-3-1v-2h-2l-2-3v-8l1-3h2v-2z" fill="#FAFAFA"/>
<path transform="translate(512,602)" d="m0 0 4 2 7 5-1 28v29l-1 10-2-4-2-7-2-21v-30l2-1 3 1-7-10z" fill="#F3EDEB"/>
<path transform="translate(1074,348)" d="m0 0h8l3 2-1 4-12 6-21 7h-5l-1-4 4-6 4-3z" fill="#77A7C1"/>
<path transform="translate(515,251)" d="m0 0h7l6 4 2 4-1 7-4 5-4 2-7-1-5-4-1-2v-8l5-6z" fill="#FAFBFB"/>
<path transform="translate(1660,302)" d="m0 0h7l6 3 2 3v9l-4 5-5 2h-7l-4-5-1-9 3-5z" fill="#EEF0F1"/>
<path transform="translate(1474,359)" d="m0 0h7l5 3 3 9 4 10 4 8-4 2h-3v-2l-3-1-4-5-3-1-4-5-2-7z" fill="#7DABC4"/>
<path transform="translate(971,357)" d="m0 0h27l7 1 1 2-11 2-12 1-6 3-4 8-2 9 8 2-2 5-13 4h-2l1-6 7-21z" fill="#EFEBEB"/>
<path transform="translate(886,313)" d="m0 0h3v9l-9 2-9 7-5 6-4 8-4-2-3-1-1 2 1-6 6-10 8-8 10-5z" fill="#E7ECEF"/>
<path transform="translate(1694,1074)" d="m0 0 3 1 3 8v6l-15 5h-4l-5-10-1-5 5-2z" fill="#81A4BF"/>
<path transform="translate(1164,1074)" d="m0 0 4 1 3 8v6l-16 5-4-1-5-12v-2l10-3z" fill="#82A5BF"/>
<path transform="translate(1691,1312)" d="m0 0h6l3 9v5l-8 3-6 2h-5l-5-10-1-4 7-3z" fill="#81A5C0"/>
<path transform="translate(1162,1312)" d="m0 0h6l3 10-1 5-14 4-5-1-5-11 1-3z" fill="#81A4BF"/>
<path transform="translate(1147,1100)" d="m0 0h3l5 12v4l-13 6-4-2-8-14 10-4z" fill="#82A5C0"/>
<path transform="translate(1354,566)" d="m0 0h6l16 7 8 7 6 4v5h2v2l-11-3-14-7-10-9-3-3z" fill="#E6DFE0"/>
<path transform="translate(1144,1338)" d="m0 0h6l5 11-1 5-12 5-4-1-7-12 1-4z" fill="#81A4BF"/>
<path transform="translate(1676,1100)" d="m0 0h3l5 12v4l-13 6-4-2-7-12v-3z" fill="#82A5BF"/>
<path transform="translate(1674,1338)" d="m0 0h5l5 11-1 5-14 5-7-10-2-6 10-4z" fill="#81A4BF"/>
<path transform="translate(1634,235)" d="m0 0h8v2l-10 2v5l10-1-2 3-6 1 2 9h-3l-2-8-16 3-1 3-4-12 1-2-3-1z" fill="#EDF1F4"/>
<path transform="translate(1740,1152)" d="m0 0h7l5 4 1 8-4 6-4 2-7-1-4-4-1-9 4-5z" fill="#85A9C3"/>
<path transform="translate(1213,1151)" d="m0 0 7 2 3 4v9l-4 5-8 1-5-3-2-4v-7l4-5z" fill="#83AAC3"/>
<path transform="translate(839,337)" d="m0 0 2 1v21l5 16 1 7-4 1-4-5-6-12-1-15 3-5-1-6z" fill="#7AAAC3"/>
<path transform="translate(678,366)" d="m0 0 9 1 10 2v2l9 2 6 4 5 5 8 12 4 8v3l2 1h-5l-2 2-5-12-7-9-10-9-16-8-8-3z" fill="#F0EBEA"/>
<path transform="translate(1742,1389)" d="m0 0 6 1 4 4 1 6-2 5-5 4h-7l-5-5-1-8 3-5z" fill="#86AAC3"/>
<path transform="translate(1213,1389)" d="m0 0 6 1 4 4v10l-6 5h-7l-5-4-1-3v-7l5-5z" fill="#83A6C0"/>
<path transform="translate(1620,399)" d="m0 0 4 1 4 8-2 6-3 2-24 1-10 1 2-4 5-4 13-1 9-4z" fill="#FAFAFA"/>
<path transform="translate(851,613)" d="m0 0h15l3 4 2 5 10 4 11 2 5 6-1 3-9-2-28-14-9-4z" fill="#77A7C1"/>
<path transform="translate(983,362)" d="m0 0h14l-2 4-8 6-7 12-1 1h-5l-3-2 1-9 4-8 5-3z" fill="#80A3BE"/>
<path transform="translate(1599,272)" d="m0 0 4 4 4 7-2 4-11 5-4-1-7-10-1-3 9-4z" fill="#648097"/>
<path transform="translate(840,274)" d="m0 0h1v28l-7 8-5 7-7 16-3 3-3-1-1-4 1-4h2l1-4 3-7 6-11 4-5 5-3 2-4z" fill="#F2ECEB"/>
<path transform="translate(1589,257)" d="m0 0 4 1 5 10v2l-15 5-4-1-7-11v-2z" fill="#658198"/>
<path transform="translate(945,256)" d="m0 0 4 1 5 10-1 3-14 4-4-1-6-10v-3z" fill="#66829A"/>
<path transform="translate(1143,517)" d="m0 0 4 2 4 10-1 2-13 4-5-1-7-11 1-2z" fill="#637F96"/>
<path transform="translate(1697,1093)" d="m0 0h6l3 12-6 4-8 3h-4l-5-12v-2z" fill="#82A5C0"/>
<path transform="translate(1699,1330)" d="m0 0 4 1 3 12-10 5-7 2-6-12 1-3z" fill="#82A5C0"/>
<path transform="translate(1719,1068)" d="m0 0 3 1 2 12-7 3-7 2h-5l-4-10v-3z" fill="#83A5C0"/>
<path transform="translate(1170,1330)" d="m0 0h3l3 9-1 5-11 5-4 1-3-5-3-9 9-4z" fill="#82A5C0"/>
<path transform="translate(1168,1093)" d="m0 0h5l3 9v4l-13 6h-4l-5-12v-2z" fill="#82A5BF"/>
<path transform="translate(954,271)" d="m0 0 4 2 5 10-3 3-7 3h-3v2l-4-1-7-11 1-3z" fill="#658199"/>
<path transform="translate(1150,533)" d="m0 0 5 1 5 10v2l-13 6-4-1-6-9 1-5z" fill="#658199"/>
<path transform="translate(1716,1306)" d="m0 0h6l2 12-6 3-13 3-4-11v-3z" fill="#82A5C0"/>
<path transform="translate(1188,1068)" d="m0 0 5 1 1 12-11 4-7 1-4-10v-3z" fill="#83A5C0"/>
<path transform="translate(1132,1066)" d="m0 0 4 1 3 7v3l-17 4h-5l-6-9v-2l14-3z" fill="#81A6C0"/>
<path transform="translate(1661,1066)" d="m0 0 4 1 3 6v4l-17 4h-5l-5-8v-3l8-2z" fill="#83A5C0"/>
<path transform="translate(1128,1304)" d="m0 0h7l4 7-1 3-10 3-11 2-6-10 1-2z" fill="#82A5C0"/>
<path transform="translate(1188,1306)" d="m0 0 5 1 1 12-12 4h-6l-4-9v-4z" fill="#82A5C0"/>
<path transform="translate(1657,1304)" d="m0 0h8l3 7v3l-16 4h-6l-5-7v-4z" fill="#81A5C0"/>
<path transform="translate(1638,406)" d="m0 0 31 1v9h-28l-3-3z" fill="#FCFCFC"/>
<path transform="translate(2e3 1112)" d="m0 0 31 1 2 1v6l-1 1-8 1h-19l-3-3-2-4z" fill="#FCFCFC"/>
<path transform="translate(1336,1019)" d="m0 0 5 1 8 8 2 1v2l4 2 3 2v2l5 2 10 8 2 4 4 1v1l-7-1-11-6-12-9-8-8-5-7z" fill="#F8FAFB"/>
<path transform="translate(1138,428)" d="m0 0 6 1 1 3-3 5-8 4-4 1h-11l-3-4v-4l13-4z" fill="#76A8C2"/>
<path transform="translate(2031 1e3)" d="m0 0 2 3 6 26-1 2-9-7-10-5 1-4 6-8z" fill="#E5E0E1"/>
<path transform="translate(1129,1030)" d="m0 0 4 2 17 12 19 9 5 2-2 2-13 2-5-5v-2l-4-1v-2l-4-1-10-6-7-8z" fill="#80ADC5"/>
<path transform="translate(612,355)" d="m0 0h12l6 4 5 5v2l4 2 1 2 7 1 9-2v2l-11 6-9 7-2-1v-7l-4-8-4-5-10-6z" fill="#F1ECEA"/>
<path transform="translate(1663,293)" d="m0 0h5l-3 3-31 8-37 10h-2v2h-2l-1 2-9-3-1-1 1-9 1 4 1-1 1 4 27-6 38-10z" fill="#EDF1F3"/>
<path transform="translate(930,359)" d="m0 0 1 2 7-2-3 12-4 5-4 8-6 5-6-4 2-4 6-7z" fill="#E3EBEF"/>
<path transform="translate(384,597)" d="m0 0h2l4 9 5 12 6 17 7 21-1 4-3 1-1-6-11-29-8-26z" fill="#F3EDEB"/>
<path transform="translate(998,232)" d="m0 0h9l2 12v11h-3l-9 4h-3v4h-3l-1-4v-7h2l2 3 11-3v-10l-1-6-15 2 1 13-5-4v-6l-1-2-5-1 3-3z" fill="#F5F9FA"/>
<path transform="translate(1074,529)" d="m0 0 4 2v3h-2v2l-14 5-8 1-9 4-3 1v2l-6 1 2-5 8-6 17-7 2-1 2 1v-2z" fill="#F2ECEA"/>
<path transform="translate(1471,740)" d="m0 0 7 2 8 4 23 6 5 5v2h2l1 4-5 1-11-7-14-8-13-3-9-2 1-3z" fill="#79A7C1"/>
<path transform="translate(1159,1062)" d="m0 0h5l2 6v2l-18 5-5-1-3-6 1-3 8-2z" fill="#84A6C1"/>
<path transform="translate(1688,1062)" d="m0 0h5l2 5v3l-10 3-8 2-5-1-3-6 1-3z" fill="#84A6C0"/>
<path transform="translate(1735,1019)" d="m0 0h5l12 11 9 6v2l4 1 7 8 2 2-6-1-12-7-11-9-9-9z" fill="#F9FAFB"/>
<path transform="translate(1532,633)" d="m0 0 5 1 1 4 1 9 8 16 8 14v4l-4-2v-2h-2l-6-11-8-14-4-12v-6z" fill="#77A7C1"/>
<path transform="translate(1576,246)" d="m0 0h10l3 5v4l-17 4-4-2-4-6 1-3z" fill="#69869D"/>
<path transform="translate(1683,1300)" d="m0 0h10l2 7-3 2-13 3h-6l-4-7v-2l8-2z" fill="#82A5C0"/>
<path transform="translate(1161,1299)" d="m0 0 3 1 1 2v6l-16 4h-5l-3-5-1-4 7-2z" fill="#83A5C0"/>
<path transform="translate(1606,253)" d="m0 0h6l4 8v4l-11 3-5-1-4-7 1-5z" fill="#6B88A0"/>
<path transform="translate(934,245)" d="m0 0h8l1 5h2v4l-12 3h-8l-5-8v-2z" fill="#66829A"/>
<path transform="translate(880,275)" d="m0 0 2 1-1 1 2 2h-3v2l-15 5-12 6-2-1-1-4v-7l4 1 15-4z" fill="#F2EBE9"/>
<path transform="translate(636,508)" d="m0 0h5l-1 2-3 2 2 4v8l-3 4-5-1-4-6 1-9-5 2-5 4h-2l2-4 9-5z" fill="#302E35"/>
<path transform="translate(630,485)" d="m0 0 9 2v4h-16l-12 5-7 8-3 7h-3l1-8 4-6 8-7 10-4z" fill="#2F2E35"/>
<path transform="translate(1126,507)" d="m0 0h14l2 4-1 5-14 2h-5l-5-8 2-2z" fill="#66829A"/>
<path transform="translate(1722,1323)" d="m0 0h2l1 2v9l-12 6-4-1-2-6v-5z" fill="#84A6C1"/>
<path transform="translate(1193,1323)" d="m0 0h2l1 2v9l-12 6-4-1-2-5v-6z" fill="#83A5C0"/>
<path transform="translate(1720,1086)" d="m0 0 5 1v10l-11 5-5-1-2-6v-4z" fill="#82A6C0"/>
<path transform="translate(1191,1086)" d="m0 0h4l1 2v9l-12 5h-4l-2-6v-5l10-4z" fill="#83A6C0"/>
<path transform="translate(1019,291)" d="m0 0 5 1v2l-10 3-46 12-9 2v-2l-2-1 37-10 13-4z" fill="#F4F6F7"/>
<path transform="translate(801,397)" d="m0 0 5 1 5 6v2h-38v-1l7-2 13-5z" fill="#E6E0E1"/>
<path transform="translate(1161,513)" d="m0 0h4l3 9-2 4-7 2-5-1-5-8v-3z" fill="#66829A"/>
<path transform="translate(963,252)" d="m0 0h5l1 7h2l1 4-8 3-6 1-4-5-2-7 5-2z" fill="#67839A"/>
<path transform="translate(1627,248)" d="m0 0h4l3 10-9 4h-7l-3-7v-4z" fill="#85A6C0"/>
<path transform="translate(1565,1053)" d="m0 0 10 2 11 3 15 1-1 2h-9l-2-1v2l-6 2-6 1-5-3-7 1-1 4v-13z" fill="#80ADC5"/>
<path transform="translate(1652,1176)" d="m0 0 5 2 3 4v7l-3 5-3 2h-8l-5-5-1-8 3-5h3v10l3 3 6-2-1-7-2-3z" fill="#84A8C2"/>
<path transform="translate(1182,508)" d="m0 0 3 1 1 3v7l-9 3-5 1-4-8 1-4z" fill="#637F96"/>
<path transform="translate(1705,441)" d="m0 0h7l6 3 1 1v8l-3 4h-5l-5-5-2-4v-6z" fill="#76A7C1"/>
<path transform="translate(1615,267)" d="m0 0 4 2 2 4v6l-9 4-4-2-5-10z" fill="#617D94"/>
<path transform="translate(983,247)" d="m0 0 4 1 2 4v6l-9 3h-5l-4-8v-3z" fill="#69859D"/>
<path transform="translate(1123,1176)" d="m0 0 5 2 3 5v6l-6 7h-8l-5-5-1-8 3-5h2l1 10 3 3 6-2-1-7-2-3z" fill="#85A7C1"/>
<path transform="translate(1163,499)" d="m0 0h9l-3 2-5 1 2 5 10 1-3 3-4 1 1 6 2 5h3l-1 8-3-2v-2l-4-1 2-6h-2l-2-7-4-1 1-3-1-6h-11l4-3z" fill="#F7F8F8"/>
<path transform="translate(1663,305)" d="m0 0 6 1 1 3 2 1-1 7-3 3h-8l-3-5v-6l3-3z" fill="#7391A9"/>
<path transform="translate(1123,1414)" d="m0 0 4 1 3 3 1 7-4 7-5 2-6-1-4-4-1-9 3-5h2l1 11 2 2 6-1 1-1-1-7-2-2z" fill="#87A9C2"/>
<path transform="translate(1652,1414)" d="m0 0 5 1 3 4v7l-4 6-5 2-5-1-5-5-1-6 2-6h4v10l1 3 8-2v-6l-3-4z" fill="#83A8C2"/>
<path transform="translate(1166,528)" d="m0 0h5l3 6v5l-5 3h-7l-5-8v-3z" fill="#67849B"/>
<path transform="translate(971,266)" d="m0 0h3l3 7v5l-6 3h-6l-5-8v-3z" fill="#668299"/>
<path transform="translate(1019,304)" d="m0 0 6 1 3 4-1 7-3 3h-7l-3-3-1-7 3-4z" fill="#6E8CA4"/>
<path transform="translate(682,510)" d="m0 0h13v13l-4 4-5-2-1-1-1-11-7 4-2-1 4-5z" fill="#2F2D35"/>
<path transform="translate(1520,1017)" d="m0 0 5 2 8 7 5 6 5 3 19 9 1 4-8-1-8-5-4-2v-2l-5-2-5-4v-2l-4-2-4-4v-2l-3-1z" fill="#C94D85"/>
<path transform="translate(1714,1058)" d="m0 0h7v6l-10 3-11 2-3-6v-2z" fill="#85A7C1"/>
<path transform="translate(1045,953)" d="m0 0h2l-1 8-3 8-6 5-11 4-11 2h-12l-18-4 2-3 13 3h22l12-4 5-3 4-8z" fill="#2E2B31"/>
<path transform="translate(1180,1296)" d="m0 0h11l1 5-9 3-8 2h-5l-2-7 5-2z" fill="#86A7C1"/>
<path transform="translate(1082,568)" d="m0 0 4 1v7l-10 4-9 8-1-4 2-2 2-6-5 4-2-1 7-6z" fill="#E7EAEC"/>
<path transform="translate(1631,262)" d="m0 0h4l2 5v5l-9 4-5-1-2-5v-5z" fill="#5F7B92"/>
<path transform="translate(1709,1296)" d="m0 0h11l1 5-9 3-8 2-5-1-2-6 6-2z" fill="#85A7C1"/>
<path transform="translate(1060,597)" d="m0 0 1 3-1 5v10l4 11 6 9-2 3-1 5-7-6-5-7-4-12 2-1 2 9h3l1 3h4l-3-5-2-7v-14z" fill="#E8E9EB"/>
<path transform="translate(1215,566)" d="m0 0h7l2 2 1 8-3 3-3 2-5-1-3-4v-8z" fill="#6B88A0"/>
<path transform="translate(1644,244)" d="m0 0h6l1 9-7 3-7 1-3-5v-5z" fill="#86A8C2"/>
<path transform="translate(1185,522)" d="m0 0 4 1 1 9-2 2-7 2h-4l-3-7 1-4z" fill="#6C889F"/>
<path transform="translate(1603,242)" d="m0 0 5 1 2 7-16 4-4-6 1-4z" fill="#6C89A0"/>
<path transform="translate(972,996)" d="m0 0 1 2v6l3 3 13 3h13l18-3 18-6v3l-13 5-21 4h-15l-10-2-6-3-2-3v-8z" fill="#2E2B33"/>
<path transform="translate(986,261)" d="m0 0h5l3 9-2 2-8 3-4-1-3-7v-3z" fill="#6B879F"/>
<path transform="translate(1186,1058)" d="m0 0h5l1 5-7 3-14 3-3-5 1-3z" fill="#86A8C2"/>
<path transform="translate(498,591)" d="m0 0 4 1 1 2-4 1v77l3 2v6l3 3-3 2 1 5 1 2-4-2v-6l-3-1v-90z" fill="#F3EDEB"/>
<path transform="translate(1842,1416)" d="m0 0h1l1 44 2 4-2 9-3 9-8 2 2-5 4-7 2-9z" fill="#89B0C7"/>
<path transform="translate(1199,504)" d="m0 0 4 1v9l-9 3-5-1-2-5v-4z" fill="#66839A"/>
<path transform="translate(1538,637)" d="m0 0 7 1 3 3-1 1-1 19-4-5-5-12v-6z" fill="#E8E2E3"/>
<path transform="translate(851,613)" d="m0 0h15l3 4 2 7-5 1-11-6-5-2z" fill="#79A7C2"/>
<path transform="translate(1e3 242)" d="m0 0 3 3v7l-10 4-4-2-1-7 1-2z" fill="#69859D"/>
<path transform="translate(991,390)" d="m0 0h4l-1 7-4 6-2 2h-7l-1-1v-6l5-5z" fill="#79A8C2"/>
<path transform="translate(956,403)" d="m0 0 6 2-3 7-8 4-12 4-5 2 4-4 8-7 3-3 5-3z" fill="#7CAAC3"/>
<path transform="translate(703,1095)" d="m0 0 135 1v1l-136 1z" fill="#AC3F76"/>
<path transform="translate(1151,503)" d="m0 0h10v7l-3 2-12 1-3-5v-3z" fill="#67839B"/>
<path transform="translate(952,242)" d="m0 0h11l2 7-13 3-4-2-2-3v-4z" fill="#69869E"/>
<path transform="translate(878,317)" d="m0 0 5 3-1 2h-2l-1 3-8 6-4 4h-2l-1-5 1-4h2l2-4 6-4z" fill="#FDFDFD"/>
<path transform="translate(1114,663)" d="m0 0 2 2-1 6h-3v2l-4 1-9-1v-2h-2l-1 1-9-1 1-2 9-1v-2h2l1 2 9-3z" fill="#76A9C3"/>
<path transform="translate(1649,256)" d="m0 0h2l1 2v7l-8 4h-4l-3-8 5-3z" fill="#7FA1BC"/>
<path transform="translate(626,511)" d="m0 0 3 1-1 9 4 7h-6l-10-6 1-4z" fill="#F5F3F4"/>
<path transform="translate(1890,1019)" d="m0 0 3 1-2 5-11 11-11 8h-3l2-5 9-6h2l1-4z" fill="#F8FAFB"/>
<path transform="translate(723 1e3)" d="m0 0h3v2l-16 7-21 8h-5l4-4 31-12z" fill="#2E2A31"/>
<path transform="translate(557,505)" d="m0 0 3 1 3 10v11l-4 11-4 5h-2l6-15-1-1-11-1v-2l7-1 7 2-2-12-2-4z" fill="#2E2A31"/>
<path transform="translate(1192,352)" d="m0 0 2 4v36h-1v-32h-6l-6 7-2 3h-2l-1 3-2-2 4-8z" fill="#F1ECEB"/>
<path transform="translate(573,372)" d="m0 0h2l-1 3-11 9-4 4-3-1-4-8-2-3 1-3 6 4 4 1 7-2z" fill="#EEEAE9"/>
<path transform="translate(758,7)" d="m0 0h6l-3 2-22 5-7 1-7 2-6 1v2l-3 1h-9l-1-2 36-9z" fill="#F3EDEC"/>
<path transform="translate(1624,239)" d="m0 0h4l1 6-5 2-11 1-3-5 1-2z" fill="#708DA5"/>
<path transform="translate(1901,1174)" d="m0 0 1 2-4 6h-2l-2 4-10 10-10 7-14 8h-3v-2l9-3v-2h3v-2h3l1-3 3-2h3l1-3h3l2-4 5-3 3-3 1-3 4-3 1-3z" fill="#546C83"/>
<path transform="translate(943,296)" d="m0 0 2 1-1 7-2 7 10-2h7v2l-6 2-1 4-13-3-1-4z" fill="#F3F6F8"/>
<path transform="translate(716,1032)" d="m0 0h4v2l-19 8-19 7-3-1 3-3z" fill="#2E2A31"/>
<path transform="translate(1521,768)" d="m0 0h26l1 1v9l-2-4h-24l1-2 10-1 1-2h-13z" fill="#F2ECEA"/>
<path transform="translate(1200,517)" d="m0 0h4l1 8-5 3-7 1-1-2v-7z" fill="#6F8BA2"/>
<path transform="translate(1690,258)" d="m0 0 7 6 8 7 9 9h-3l-6-4-1-2-6-2-4-2h-3l-1-5z" fill="#F2EDEC"/>
<path transform="translate(981,238)" d="m0 0 4 1v5l-10 3h-6l-2-3 1-4z" fill="#6C89A1"/>
<path transform="translate(1187,514)" d="m0 0h2l1 2 11-1-1 3-8 2 1 9-3 3-2-9-13 2v-3l12-3z" fill="#F0F4F6"/>
<path transform="translate(1173,500)" d="m0 0h9v6l-8 2h-8l-2-3v-3z" fill="#6A879F"/>
<path transform="translate(715,1059)" d="m0 0h2l-2 4-34 13h-4l1-3z" fill="#2E2A30"/>
<path transform="translate(1053,647)" d="m0 0 5 2 7 6v9l-6 1-2-3-1-5-2-6z" fill="#FBFAFA"/>
<path transform="translate(1e3 256)" d="m0 0h6v7l-6 4h-6l-2-5v-3z" fill="#68859C"/>
<path transform="translate(684,512)" d="m0 0h1l1 12 2 3-7-1-5-3-2-4 7-6z" fill="#F5F4F5"/>
<path transform="translate(945,417)" d="m0 0 3 1-4 6-5 5-8 1-2-2 5-6 7-4z" fill="#F1EDEB"/>
<path transform="translate(1597,324)" d="m0 0 5 1 1 1v9h-2l-1 3h-7l-4-4v-8h4l1 7 6 1-1-8h-2z" fill="#6F8CA3"/>
<path transform="translate(2007,973)" d="m0 0h2l-1 3-18 10-17 12-5 4h-2l1-3 19-14 19-11z" fill="#5C778E"/>
<path transform="translate(1740,1393)" d="m0 0h6l3 4v5l-4 3-6-1-1-7z" fill="#F8FAFB"/>
<path transform="translate(1499,288)" d="m0 0 5 1-16 12-9 10-2-2 1-4 4-4v-2l3-2h5l1-3 5-5z" fill="#EBE1E0"/>
<path transform="translate(512,368)" d="m0 0h2l-1 3-1 1 3 1-15 15v-2h-2v-8l5-1 5-3 3-5z" fill="#EFE9E8"/>
<path transform="translate(1744,313)" d="m0 0 5 5 10 13 13 18 2 4-4-2-6-8-5-7-4-3-3-7-5-3-4-9z" fill="#F2ECEA"/>
<path transform="translate(886,313)" d="m0 0h3v9l-9 1 2-3-4-2-6 3-10 9-2 1 2-4 7-7 10-5z" fill="#ECE8E8"/>
<path transform="translate(1258,507)" d="m0 0h2v15l-4 4h-2l-1-11 2-7z" fill="#75A8C2"/>
<path transform="translate(1211,1393)" d="m0 0 7 1 1 2v7l-3 2h-6l-1-9z" fill="#F8FAFB"/>
<path transform="translate(1739,1156)" d="m0 0h7l3 4v5l-7 3-4-4z" fill="#F7FAFB"/>
<path transform="translate(1151,584)" d="m0 0h3l2 3v8h-2v2l-3 2-5-1-4-4v-7l4-2 1 10 6-1z" fill="#6B89A1"/>
<path transform="translate(1201,493)" d="m0 0 3 1 3 19v10l-2-4v-2h-5l1-3h2l-1-9-3-2 3-1-1-5-5-1 2-2z" fill="#F4F8F9"/>
<path transform="translate(953,323)" d="m0 0 5 1 1 2v7l-4 4h-6l-3-3-1-10h4l1 8h6l-2-7z" fill="#7691A8"/>
<path transform="translate(1591,253)" d="m0 0 4 2 3 7 3 5v2l3 1 2 6 2 3v4h-2l-7-12v-3h-2l-4-8v-2l-8-1v-1l5-1z" fill="#F5F8F9"/>
<path transform="translate(1071,684)" d="m0 0h8l6 1-2 2 5 5-1 2-9-1-7-6z" fill="#82ADC4"/>
<path transform="translate(1642,236)" d="m0 0h6v5l-6 2-10 1-1-5 6-2z" fill="#7492AA"/>
<path transform="translate(1837,1482)" d="m0 0 3 1-9 10-5 4-7 2 2-4 11-11z" fill="#7DA3BE"/>
<path transform="translate(1212,1155)" d="m0 0 6 2 1 2v6l-2 2h-7l-1-8 1-3z" fill="#F8FAFB"/>
<path transform="translate(705,577)" d="m0 0 5 3 2 7-1 13-2-1-5-15z" fill="#F1EBEA"/>
<path transform="translate(1740,1152)" d="m0 0 4 4h-5v8l3 3v2l-4 2-4-4-1-9 4-5z" fill="#84ACC4"/>
<path transform="translate(1965 1e3)" d="m0 0 2 1-13 13-10 14-8 15-1-4 6-12h2v-3h2l1-4 15-16z" fill="#536B82"/>
<path transform="translate(939,384)" d="m0 0 1 4h7l4 2-4 6-6-2-9-1 6-7z" fill="#F6F8F9"/>
<path transform="translate(1624,250)" d="m0 0h6l2 5v3l-11 4h-2l-1-5 4-1z" fill="#5E7990"/>
<path transform="translate(457,963)" d="m0 0 1 2-6 10-1 3h-2l-2 5-6 9-1 3h-2l-4 10-6 5 2-5 12-19z" fill="#AC3F76"/>
<path transform="translate(1026,490)" d="m0 0h2l2 6-5 5-5-1-4-5 5-3z" fill="#75A8C2"/>
<path transform="translate(1606,397)" d="m0 0 3 3-1 7-5 2h-7l5-9z" fill="#7CAAC3"/>
<path transform="translate(1595,409)" d="m0 0h14v1l-13 1-6 5 2 1 12-1-2 2v3l-5 1-4-2-3 2-2 4-1-10z" fill="#ECEBEC"/>
<path transform="translate(1465,332)" d="m0 0 2 1-2 11-2 10h-1l-2-7-3-4 2-5 3-1 2-4z" fill="#F0ECEC"/>
<path transform="translate(1660,302)" d="m0 0h7l6 3 2 3v9l-1 2h-3v-9l-4-4h-9z" fill="#F2F3F4"/>
<path transform="translate(1035,1030)" d="m0 0 4 1-5 3-12 3-17 2h-8v-2l5-1 14-1 16-4z" fill="#2E2D36"/>
<path transform="translate(1217,552)" d="m0 0 4 1-1 3-23 6-2-1 3-4 7-1 8-3z" fill="#EEF1F3"/>
<path transform="translate(1055,676)" d="m0 0 6 2 9 4 5 1-4 1v3l-4 1-5-2-5-4z" fill="#EEE8E6"/>
<path transform="translate(1637,429)" d="m0 0 7 1 1 4h2l1 7-6-1-6-7v-2l-2-1z" fill="#76A7C2"/>
<path transform="translate(717,464)" d="m0 0 4 1 3 8v3h-9l-2-1 3-9z" fill="#74A4BE"/>
<path transform="translate(1242,1053)" d="m0 0h5l-1 10-11-1-1-4 5-4z" fill="#7AAAC3"/>
<path transform="translate(487,332)" d="m0 0h1l1 73-3 5h-2l2-6z" fill="#F2ECEA"/>
<path transform="translate(1192,497)" d="m0 0h9l-1 4-3 2-11 1-1-5z" fill="#6A879E"/>
<path transform="translate(606,931)" d="m0 0h2l-1 5-7 9-6 4-7 1-5-2v-2l9 1 6-4 5-6z" fill="#2E292F"/>
<path transform="translate(1738,1390)" d="m0 0 6 2-4 2-1 7v3h2v2h-6l-2-5 1-7z" fill="#87AFC6"/>
<path transform="translate(95,1134)" d="m0 0 7 1 3 2-2 5h-2v2l-4 3-2-1z" fill="#E7E1E2"/>
<path transform="translate(1452,700)" d="m0 0 5 4 1 8-2 3-5-1-1-7z" fill="#76A7C2"/>
<path transform="translate(1635,262)" d="m0 0h3l2 7 6-1v3l-16 7-4-2 9-4h2z" fill="#E8F0F4"/>
<path transform="translate(1220,1156)" d="m0 0 3 1v9l-4 5-8 1-3-3 9-3 2-2z" fill="#80A8C2"/>
<path transform="translate(1378,348)" d="m0 0h2l-1 7-1 2h-2l-2 4h-5l1-6 5-5z" fill="#76A6C0"/>
<path transform="translate(712,477)" d="m0 0h17v2l-13-1v5h-2v2h-2v2l-5 2 1-5z" fill="#EEEDED"/>
<path transform="translate(1722,426)" d="m0 0 3 1-4 7-3 1-2 5-4 1h-7v-1l6-1v-4l8-6z" fill="#E7E4E6"/>
<path transform="translate(958,413)" d="m0 0 3 1 2 1h58v1l-64 1-2-3z" fill="#F2ECEA"/>
<path transform="translate(636,295)" d="m0 0h2v7l-5 6-4 1-3 4-6 3 2-4 5-5 3-4h2l2-5z" fill="#ECE9E9"/>
<path transform="translate(1643,1178)" d="m0 0h3v10l2 6-4 1-4-7 1-8z" fill="#87ADC5"/>
<path transform="translate(1663,293)" d="m0 0h5l-3 3-28 7-1-3z" fill="#E8EFF2"/>
<path transform="translate(1637,247)" d="m0 0h9l2 3v3l-8 2v2l-4-1v-3h2l1-3 1-1h-3z" fill="#617C93"/>
<path transform="translate(1209,1390)" d="m0 0h2v2l3 1-3 1-1 2 1 10-6-1-1-3v-7z" fill="#82ACC4"/>
<path transform="translate(1174,1055)" d="m0 0 8 1 4 1v2l-18 3-1-2-5-1v-1z" fill="#E6EEF2"/>
<path transform="translate(972,996)" d="m0 0 1 2v6l3 3 13 3 14 1v2h-14l-10-2-6-3-2-3v-8z" fill="#2E292F"/>
<path transform="translate(1e3 235)" d="m0 0h3v4l-8 3h-7l-1-4 5-2z" fill="#69859D"/>
<path transform="translate(177,838)" d="m0 0 1 4-4 6-5 2-2 5-5 7-2-1 14-22z" fill="#F3EDEB"/>
<path transform="translate(1500,372)" d="m0 0h2l4 4v3h2l4 7 9 7v2l-5-2-8-7-4-5-4-7z" fill="#A0B6C8"/>
<path transform="translate(1331,493)" d="m0 0 7 4 4 4 1 5-5 6-2-2 1-7-4-6-3-3z" fill="#ECE9E9"/>
<path transform="translate(1473,311)" d="m0 0 5 1-6 11-5 10-2-2 3-8 1-6h2l1-4z" fill="#EEE7E6"/>
<path transform="translate(1583,305)" d="m0 0 1 4 1-1 1 4 12-1-1 3h-2v2h-2l-1 2-9-3-1-1z" fill="#EBF1F4"/>
<path transform="translate(1843,1435)" d="m0 0 2 2 1 6 1 11-1 10-3-4z" fill="#75A9C3"/>
<path transform="translate(1634,235)" d="m0 0h8v2l-10 2-2 1v-3l-6 3-13 1-3-2z" fill="#EAECEE"/>
<path transform="translate(1587,327)" d="m0 0h1l2 7 3 3 8 3-2 2-9-1-4-5-1-8z" fill="#F6F8F9"/>
<path transform="translate(982,235)" d="m0 0h7l1 16-5-4v-6l-1-2-5-1z" fill="#F7F9FA"/>
<path transform="translate(1761,1152)" d="m0 0 1 2 3-1 2 2-1 6-1 1h-6l-2-5h2v-4z" fill="#75A9C3"/>
<path transform="translate(1759,1390)" d="m0 0 4 1h3l1 6h-2v2l-5 1-3-4 1-3-1-2z" fill="#76A9C3"/>
<path transform="translate(1179,1092)" d="m0 0 8 1 1 3-2 4h-2v2h-4l-2-8z" fill="#7AAAC3"/>
<path transform="translate(1009,251)" d="m0 0h1l1 7v8l-10 4 2-5 4-2 1-7-4-1h2l1-2 1 1z" fill="#F0F5F7"/>
<path transform="translate(497,672)" d="m0 0 5 2v6l3 3-3 2 1 5 1 2-4-2v-6l-3-1z" fill="#F0EAE9"/>
<path transform="translate(1082,568)" d="m0 0 4 1v7h-10l-2-1 1-3h4v-3z" fill="#F9F7F7"/>
<path transform="translate(1599,272)" d="m0 0 4 4 1 4-3-1v-4h-6l1 3-6 2-7-2 2-2z" fill="#83A6C0"/>
<path transform="translate(990,252)" d="m0 0h2l2 3 11-2-3 4-5 2h-3v4h-3l-1-4z" fill="#F4F8F9"/>
<path transform="translate(839,181)" d="m0 0h1l1 7v46h-1l-1-43-2-2 1-5z" fill="#F1EBEA"/>
<path transform="translate(1283,521)" d="m0 0 5 1v8l-3 3h-3v-11z" fill="#76A7C2"/>
<path transform="translate(1531,314)" d="m0 0 2 2v6l-1 1h-5l3-2 1-5-13 5-9 7-5 5 2-5 9-8 12-5z" fill="#ECE4E3"/>
<path transform="translate(951,404)" d="m0 0 2 1-13 13-10 6-5 1 3-3 6-4 11-8z" fill="#AC3F76"/>
<path transform="translate(1155,1059)" d="m0 0h7l3 2-1 2-19 1v-2l-3-1z" fill="#EFF5F8"/>
<path transform="translate(849,660)" d="m0 0 2 2v14l-4-1-1-2 1-10z" fill="#F9F9F9"/>
<path transform="translate(977,980)" d="m0 0h2l-2 6-4 10-1 1v13l-2 2v-16l4-12z" fill="#2E333E"/>
<path transform="translate(634,371)" d="m0 0 9 5-2 4-5 4-2-1z" fill="#F6F5F6"/>
<path transform="translate(1019,291)" d="m0 0 5 1v2l-10 3-10 2 1-3z" fill="#F4F7F8"/>
<path transform="translate(987,973)" d="m0 0 13 3 15 1v1h-8v2l-8-1-14-3z" fill="#2E2D34"/>
<path transform="translate(1143,517)" d="m0 0 4 2 1 5-2-1-14-1h-5l-1 3-1-3 6-2z" fill="#7F9FB9"/>
<path transform="translate(1717,285)" d="m0 0 4 2 10 10 6 7-1 2-5-5-6-2-3-8z" fill="#F3EDEB"/>
<path transform="translate(1631,262)" d="m0 0h4l2 5v5l-9 4-4-1 10-3-1-6 1-3-11 4-2 3v-5z" fill="#84A6C0"/>
<path transform="translate(1e3 236)" d="m0 0h1l1 9-3-2-11 2-2 4-1-7 11-2 4-1z" fill="#DDE7ED"/>
<path transform="translate(972,1007)" d="m0 0 10 4 22 2v1h-17l-14-3-1 15h-1v-11z" fill="#B14179"/>
<path transform="translate(1557,769)" d="m0 0h8l3 2-7 6h-2l-1 2z" fill="#EBE6E6"/>
<path transform="translate(1057,540)" d="m0 0 3 1-5 4-9 5-4-3 7-4z" fill="#ECE3E1"/>
<path transform="translate(1914,1453)" d="m0 0v3h-2l-2 4-13 12-6 5 2-4 8-8 6-7h2v-2z" fill="#F7F3F2"/>
<path transform="translate(1114,1415)" d="m0 0h2l1 11 2 3-4 1-2-6h-2l1-6z" fill="#7FA9C2"/>
<path transform="translate(976,1033)" d="m0 0 16 3 5 1v2l-6 1-2 3v-4l-7-1-5-2z" fill="#2E2E36"/>
<path transform="translate(879,291)" d="m0 0h9v2h-9l-1 3-8 2-1 1h-5l4-3h2v-2z" fill="#F9F7F6"/>
<path transform="translate(1114,1178)" d="m0 0h2v6l-1 5 1 4 2 1-3 1-3-4-1-8z" fill="#81ACC4"/>
<path transform="translate(1745,1140)" d="m0 0 3 1v2l3 1 1 6-10-3v-6z" fill="#78AAC3"/>
<path transform="translate(2034,1017)" d="m0 0h2l3 16-7-7v-6z" fill="#F5F1F0"/>
<path transform="translate(1216,568)" d="m0 0 6 2v6l-1 1h-5l-2-5z" fill="#F2F6F8"/>
<path transform="translate(999,449)" d="m0 0h3l-1 6-3 3-5-1v-5z" fill="#77A7C1"/>
<path transform="translate(1021,304)" d="m0 0 5 2 2 3-1 7-3 3h-6l5-5h2l-2-5z" fill="#68869E"/>
<path transform="translate(1629,242)" d="m0 0 2 3v3l-16 3-1 3-2-7h7l9-2z" fill="#E7EDF1"/>
<path transform="translate(1642,1416)" d="m0 0h4v10l1 3h-3l-2 1-2-8z" fill="#84A6C0"/>
<path transform="translate(1711,1055)" d="m0 0h6l4 3-13 2h-6l1-4z" fill="#F0F6F8"/>
<path transform="translate(499,687)" d="m0 0 1 3-20 9-7 2 3-3 22-10z" fill="#AA4076"/>
<path transform="translate(1547,665)" d="m0 0 4 5 4 7v4l-4-2v-2h-2l-3-6z" fill="#7B9DB6"/>
<path transform="translate(1541,654)" d="m0 0 4 5 2 4v6h-2l-6-9 1-4z" fill="#7FA7C1"/>
<path transform="translate(1026,444)" d="m0 0h4v3l2 1-1 2h-2v2h-5l-2-2 1-4z" fill="#76A7C2"/>
<path transform="translate(1503,333)" d="m0 0 1 3-2 3-1 7h-2l-2 14 3 1-2 1-1 3-1-3v-12l3-10z" fill="#E8E5E6"/>
<path transform="translate(1615,267)" d="m0 0 4 2 2 4v6l-9 4-2-1 9-4-1-5-1-3-4 1v1l-8-1 3-2z" fill="#84A6C0"/>
<path transform="translate(1210,1502)" d="m0 0h15l-1 3-14 1-2-2z" fill="#7BA3BF"/>
<path transform="translate(1742,1389)" d="m0 0 6 1 4 4-1 8-2-4-5-5-4-2z" fill="#80A3BC"/>
<path transform="translate(1045,953)" d="m0 0h2l-1 8-3 8-6 5-2-1 6-7z" fill="#302930"/>
<path transform="translate(1471,740)" d="m0 0 7 2 2 1v2h-13l-2-1 1-3z" fill="#75A8C2"/>
<path transform="translate(1518,693)" d="m0 0h4l1 7h-7l-2-2v-3z" fill="#76A8C2"/>
<path transform="translate(837,323)" d="m0 0 3 3 1 8h-9l2-6z" fill="#EEEAEA"/>
<path transform="translate(1662,308)" d="m0 0 6 1 1 6-7 1-1-5z" fill="#F4F7F9"/>
<path transform="translate(1598,268)" d="m0 0 2 4-9 3-10 3-1-3 16-5h2z" fill="#E3EDF2"/>
<path transform="translate(1192,190)" d="m0 0 2 1v17l-3 1-2-6h2v-8l1-2h-2v-2z" fill="#F1EAE8"/>
<path transform="translate(1743,1378)" d="m0 0 4 1 5 5v2l-8-1-2-2z" fill="#78AAC3"/>
<path transform="translate(1216,1377)" d="m0 0 5 4 2 4-4 1-5-2-1-5z" fill="#78AAC3"/>
<path transform="translate(1707,1328)" d="m0 0 4 1v2l3-1 1 4-5 5-2-3z" fill="#7AAAC3"/>
<path transform="translate(157,866)" d="m0 0 2 2-1 5-1 3h-3l-2 5-4 6-2-1z" fill="#F3EEEC"/>
<path transform="translate(870,592)" d="m0 0h3l2 10v5l-3-1-2-6z" fill="#77A7C1"/>
<path transform="translate(1289,416)" d="m0 0h4l1 7h-9-3l4-5z" fill="#EFEBEB"/>
<path transform="translate(877,322)" d="m0 0 3 1-4 4-8 7v-3l2-3-1-4 5-1z" fill="#E8EBED"/>
<path transform="translate(1019,306)" d="m0 0 4 2 2 2v4l-6 2-1-1v-7z" fill="#F7F9FB"/>
<path transform="translate(1065,656)" d="m0 0 4 2h-3v11l-5-1-9-7-1-2 4 2 4 3h6z" fill="#ECE8E7"/>
<path transform="translate(1242,607)" d="m0 0h1v10l-3 3-4-3 1-4z" fill="#EFEBEA"/>
<path transform="translate(1639,402)" d="m0 0 4 2v2h27l-1 3v-2h-28l-3-1v5h-1v-6z" fill="#ECEAEA"/>
<path transform="translate(1621,277)" d="m0 0 4 2-5 4-9 3-4-1 2-4 3 1 8-3z" fill="#E5EEF2"/>
<path transform="translate(1635,257)" d="m0 0 2 2-1 4-10 1-5 1-1 4v-5l-1-2 15-3z" fill="#EBF2F5"/>
<path transform="translate(965,247)" d="m0 0 3 4v1l-15 3-2 1 1-5 13-2z" fill="#E9F0F3"/>
<path transform="translate(1204,1159)" d="m0 0 2 2 3-1 1 7h6v1l-9 2-3-5z" fill="#8BB0C7"/>
<path transform="translate(1007,294)" d="m0 0 3 1-5 2-3 3-10 2-1-3 5-2 7-2z" fill="#E7EBEF"/>
<path transform="translate(703,20)" d="m0 0 3 1-4 3-15 4h-3v-2z" fill="#F4EEEC"/>
<path transform="translate(1214,1141)" d="m0 0h4v2l4 2-1 4-11-2 3-2z" fill="#7CABC4"/>
<path transform="translate(1710,1092)" d="m0 0 5 2v5l-6 2-2-7z" fill="#79AAC3"/>
<path transform="translate(139,900)" d="m0 0 4 1-3 9-2 2h-3l1-5z" fill="#F3EEEC"/>
<path transform="translate(1610,248)" d="m0 0 2 3v2l-15 3-2 3v-5l8-3 7-1z" fill="#E2EEF3"/>
<path transform="translate(1978,879)" d="m0 0 4 4 6 12h-2l-6-8-3-2v-5z" fill="#F3EFEE"/>
<path transform="translate(1161,506)" d="m0 0 2 3-2 5-12 2-2-3 2-1 9-1 3-1z" fill="#DDE5EB"/>
<path transform="translate(1126,504)" d="m0 0h7v1l5 1v1l-16 1v-2l-6 1v-2z" fill="#E4EBEF"/>
<path transform="translate(1901,1174)" d="m0 0 1 2-4 6h-2l-2 4-7 7-3-1 1-2 5-3 3-3 1-3 4-3 1-3z" fill="#4C6379"/>
<path transform="translate(1191,1058)" d="m0 0 27 1v1h-22v6l-1-4h-2v2l-2-1z" fill="#E7E6E8"/>
<path transform="translate(1288,779)" d="m0 0 3 1 1 2v6l-5 1-1-4z" fill="#77A6C1"/>
<path transform="translate(1168,519)" d="m0 0h3l1 4h3l-1 8-3-2v-2l-4-1 1-1z" fill="#F8F9FA"/>
<path transform="translate(856,371)" d="m0 0 5 5 7 9 2 1-1 3-11-11-2-4z" fill="#89A8C1"/>
<path transform="translate(1426,598)" d="m0 0 4 2 3 2v2l3 1 2 6-2 2-6-9-4-4z" fill="#ECE9EA"/>
<path transform="translate(1805,436)" d="m0 0h7l2 3-1 4-1-1-2 2-5-3z" fill="#F2EDEB"/>
<path transform="translate(953,323)" d="m0 0 5 1 1 2v7l-2 3h-7l1-2h5l-1-8z" fill="#627E95"/>
<path transform="translate(990,249)" d="m0 0 1 3v9l-10 2-5-1 4-2 9-2-1-8z" fill="#E8F0F4"/>
<path transform="translate(872,773)" d="m0 0h2l2 4 5 4-1 5-4-2-1-4-3-3z" fill="#73A1BB"/>
<path transform="translate(561,527)" d="m0 0 1 4-5 10-4 2 2-5 5-10z" fill="#2E2A30"/>
<path transform="translate(1204,506)" d="m0 0h2l1 7v10l-2-4v-2h-5l1-3h3z" fill="#F7F9FA"/>
<path transform="translate(388,333)" d="m0 0h2l-1 10-4 10-2-1 4-16z" fill="#F3EDEB"/>
<path transform="translate(1722,1323)" d="m0 0h2v7l-2 3-4-2v-3l1-4z" fill="#79AAC3"/>
<path transform="translate(943,1130)" d="m0 0 5 3-3 7h-3l-1-5z" fill="#F3EDEB"/>
<path transform="translate(1783,606)" d="m0 0 2 1-5 5-8 1-6-2v-1l13-2z" fill="#EEECEC"/>
<path transform="translate(1390,584)" d="m0 0 9 3-2 1 1 3-3 1-3-1v-2h-2l-1-4z" fill="#EEEAEA"/>
<path transform="translate(1167,520)" d="m0 0h2v5l-1 1 3 2-13 3-3-3 11-3z" fill="#E6EEF2"/>
<path transform="translate(1581,1058)" d="m0 0 20 1-1 2h-9l-2-1v2h-5z" fill="#96B0C6"/>
<path transform="translate(512,602)" d="m0 0 4 2 7 5-1 6-4-3-4-7z" fill="#F1ECEB"/>
<path transform="translate(1142,512)" d="m0 0 1 4-4 3-7 1v-2l-9 1 4-2 14-2z" fill="#DFE9EF"/>
<path transform="translate(1524,322)" d="m0 0 3 1-5 4-8 5v-4l7-5z" fill="#E6EAED"/>
<path transform="translate(1179,1329)" d="m0 0 6 2 1 2-2 3-5 1-1-4z" fill="#78A9C3"/>
<path transform="translate(1217,552)" d="m0 0 4 1-1 3-7 2h-5l5-5z" fill="#F3F5F6"/>
<path transform="translate(1011,357)" d="m0 0 8 1-2 4-4 1-8-4v-1z" fill="#80A7C1"/>
<path transform="translate(953,357)" d="m0 0h6l2 2-1 8-2-3v-2l-4-1z" fill="#F2F0F0"/>
<path transform="translate(1588,293)" d="m0 0h1l1 7-6 13-1-4 3-9z" fill="#F0F5F7"/>
<path transform="translate(1581,256)" d="m0 0 8 1v1l-14 3-5-1 2-2z" fill="#E5EFF4"/>
<path transform="translate(1497,969)" d="m0 0 2 3 4 15v5l-2-2-4-14z" fill="#B14178"/>
<path transform="translate(1123,1176)" d="m0 0 5 2 3 5-1 2-3 1-4-7z" fill="#86A9C3"/>
<path transform="translate(2042,1052)" d="m0 0h1l2 19-2 1-2-10-1-2z" fill="#eee"/>
<path transform="translate(766,563)" d="m0 0h2l2 11-4-1-2-5z" fill="#EEECEC"/>
<path transform="translate(975,433)" d="m0 0h5l1 4-6 3h-3l2-5z" fill="#76A7C2"/>
<path transform="translate(1190,416)" d="m0 0h4v8h-4v2l-4-2 4-1-1-6z" fill="#F2ECEA"/>
<path transform="translate(1220,1156)" d="m0 0 3 1v9l-1 2-5-1 2-3z" fill="#81A4BF"/>
<path transform="translate(1214,1153)" d="m0 0h6l2 3h-2v8h-1l-1-7-7-2z" fill="#83AEC6"/>
<path transform="translate(1193,559)" d="m0 0 4 1-4 3-7 2-4-1 7-4z" fill="#F6F7F8"/>
<path transform="translate(868,324)" d="m0 0 3 4-4 7h-2l-1-5 1-4z" fill="#FCFCFC"/>
<path transform="translate(1869,1202)" d="m0 0h5l-5 4-9 5h-3v-2l9-3v-2h3z" fill="#50687E"/>
<path transform="translate(1472,1021)" d="m0 0 1 3-9 10h-2l2-4 3-5z" fill="#F6F9FA"/>
<path transform="translate(1014,603)" d="m0 0h1l1 13 2-2 1 12-4-4-1-4z" fill="#EBE1E0"/>
<path transform="translate(1617,548)" d="m0 0h3l1 4-4 3-4-2 1-4z" fill="#75A8C2"/>
<path transform="translate(1175,535)" d="m0 0 1 2 5-2h4v3l-7 3-4-1z" fill="#F6F8F9"/>
<path transform="translate(1267,502)" d="m0 0h5l2 3-4 2h-7z" fill="#EEEBEB"/>
<path transform="translate(1237,415)" d="m0 0h19l7 1-5 4-5-3-16-1z" fill="#F0ECEB"/>
<path transform="translate(987,363)" d="m0 0 3 2-2 4-5 2-1-4 2-3z" fill="#75A9C3"/>
<path transform="translate(1484,301)" d="m0 0h2l-2 4-5 6-2-2 1-4 2-2z" fill="#EEE6E5"/>
<path transform="translate(1035,1030)" d="m0 0 4 1-5 3-8 2-4-1 10-4z" fill="#2E2A31"/>
<path transform="translate(1558,640)" d="m0 0 5 1 1 5-9-3v-2z" fill="#75A8C2"/>
<path transform="translate(1182,508)" d="m0 0 3 1 1 8-2-4v-2l-10 1-6 3 1-4z" fill="#84A6C1"/>
<path transform="translate(987,300)" d="m0 0h5l-1 3-7 2h-5l1-3z" fill="#F6F6F7"/>
<path transform="translate(978,273)" d="m0 0 9 1v3l-7 3-3-1 1-5z" fill="#F7F9FA"/>
<path transform="translate(1613,265)" d="m0 0 4 1-2 2-12 3-2-3z" fill="#E4EEF3"/>
<path transform="translate(1182,562)" d="m0 0 3 1-3 3-10 2-1-3z" fill="#F2F3F3"/>
<path transform="translate(1705,441)" d="m0 0h7l3 2h-8l-1 8-2-3v-6z" fill="#7EA2BE"/>
<path transform="translate(1660,302)" d="m0 0h7l3 1v2l-12 1z" fill="#F3F5F7"/>
<path transform="translate(400,299)" d="m0 0 5 2v4l-6 1-1-2z" fill="#F1ECEB"/>
<path transform="translate(1579,243)" d="m0 0h6l1 3h-24l2-2z" fill="#CCDCE5"/>
<path transform="translate(998,232)" d="m0 0 3 3v1l-13 2 1-4z" fill="#EDF2F5"/>
<path transform="translate(1010,32)" d="m0 0 9 3 8 3-1 2-5-1-8-4-3-1z" fill="#F3EDEB"/>
<path transform="translate(1354,566)" d="m0 0h6l2 4h-2v2l-4-1-2-2z" fill="#EAE8E9"/>
<path transform="translate(1167,566)" d="m0 0h5l-1 3-10 2v-2l-2-1z" fill="#F3F5F6"/>
<path transform="translate(1199,504)" d="m0 0 4 1v7l-2-4h-7l-3-2z" fill="#86A8C1"/>
<path transform="translate(1600,240)" d="m0 0h6l-3 3-11 1-3-2z" fill="#EAEDEF"/>
<path transform="translate(1554,596)" d="m0 0h4v2l3 1h-2l-2 6-3-3z" fill="#F1EDEC"/>
<path transform="translate(1221,567)" d="m0 0 3 1 1 8-3 3-3-1 2-2z" fill="#637E96"/>
<path transform="translate(1204,517)" d="m0 0 4 3v7l-5 2-3-2 4-2z" fill="#F1F3F4"/>
<path transform="translate(1405,386)" d="m0 0 1 3-1 7-4-2-2-3h2v-2l4-1z" fill="#F0ECEB"/>
<path transform="translate(1670,317)" d="m0 0 1 2 2 1-4 3-3 1h-7v-1h6v-2l-2-1 7-1z" fill="#D3E1EA"/>
<path transform="translate(1736,1405)" d="m0 0h9l2 3-1 1h-7l-3-2z" fill="#80A4BF"/>
<path transform="translate(1111,1362)" d="m0 0h7l-2 6h-5z" fill="#76A9C3"/>
<path transform="translate(842,1246)" d="m0 0h1l1 14-4 1-2-1v-2l3-3z" fill="#AE4077"/>
<path transform="translate(1993,1100)" d="m0 0 4 1-3 4h-5l-2-3z" fill="#EDEBEC"/>
<path transform="translate(939,384)" d="m0 0 1 4h7v1l-11 2 1 2h-5l6-7z" fill="#E4E8EC"/>
<path transform="translate(1482,361)" d="m0 0 4 1 3 9-1 3-6-11z" fill="#9CB3C7"/>
<path transform="translate(1589,257)" d="m0 0 4 1-1 2-5-1-1 3h-3v-2l-2 1h-6v-1z" fill="#87A8C2"/>
<path transform="translate(1089,71)" d="m0 0 11 6 5 4-1 2-15-10z" fill="#F3EEEC"/>
<path transform="translate(1163,1313)" d="m0 0h5l1 3-4 4-2-1-1-4z" fill="#77A9C3"/>
<path transform="translate(557,505)" d="m0 0 3 1 3 11h-3l-3-8z" fill="#2E2C34"/>
<path transform="translate(482,164)" d="m0 0 2 1-12 14-2-1z" fill="#F3EDEB"/>
<path transform="translate(1918,1134)" d="m0 0 2 2-2 10-3 6-1-3 3-9z" fill="#4A6176"/>
<path transform="translate(1677,1060)" d="m0 0h6v1l5 1v1l-13 1z" fill="#EEF5F7"/>
<path transform="translate(1505,757)" d="m0 0 7 2 3 2v3l-4-1-6-4z" fill="#7FA1BB"/>
<path transform="translate(1711,435)" d="m0 0h7l-2 5-4 1h-7v-1l6-1z" fill="#EEEDED"/>
<path transform="translate(935,242)" d="m0 0h6l-1 2-6 2h-4v-2l-3-1z" fill="#F1F6F8"/>
<path transform="translate(1036,863)" d="m0 0 6 4-1 2h-5l-2 2 1-7z" fill="#F0EBEA"/>
<path transform="translate(691,668)" d="m0 0 2 1v3l8 1v1l-14-1z" fill="#FDFDFD"/>
<path transform="translate(1369,570)" d="m0 0 10 5 2 4-11-6-2-2z" fill="#EEEAEA"/>
<path transform="translate(1057,540)" d="m0 0 3 1-5 4-4 1-2-2 5-3z" fill="#EBE1E0"/>
<path transform="translate(976,303)" d="m0 0 4 1-1 2-9 2-1-3z" fill="#F1F4F6"/>
<path transform="translate(1636,246)" d="m0 0 4 1h-3v2h3l-2 4-3 1-1-7z" fill="#81A4BF"/>
<path transform="translate(1585,243)" d="m0 0h7l-2 5-3 1-1-4h-5z" fill="#F2F6F8"/>
<path transform="translate(1740,1152)" d="m0 0 4 4h-5l-1 3v-2l-4 1 2-4z" fill="#89ADC5"/>
<path transform="translate(1215,566)" d="m0 0h7l-2 4-4-1-2 3-3-4z" fill="#80A2BD"/>
<path transform="translate(682,510)" d="m0 0 4 1-1 3h-4l-4 3-2-1 4-5z" fill="#773B5D"/>
<path transform="translate(555,381)" d="m0 0 6 2-1 4h-4z" fill="#F0EFF0"/>
<path transform="translate(1594,358)" d="m0 0h8l1 2-9 3z" fill="#7EA2BE"/>
<path transform="translate(1601,309)" d="m0 0h8l-1 2-10 2v-2l-2-1z" fill="#F1F5F7"/>
<path transform="translate(1021,304)" d="m0 0 5 2 2 3-1 4-5-5z" fill="#5B758C"/>
<path transform="translate(1594,291)" d="m0 0h2v3l-7 4-1-6z" fill="#F8FAFA"/>
<path transform="translate(1630,277)" d="m0 0 3 1-12 6-6 1 2-2z" fill="#88A9C2"/>
<path transform="translate(955,239)" d="m0 0 4 1 4 2-14 1v-3z" fill="#F0F3F4"/>
<path transform="translate(1741,1152)" d="m0 0h6l2 1-1 4-6-2z" fill="#79A5C0"/>
<path transform="translate(95,1134)" d="m0 0 7 1 1 3h-6l-2 2z" fill="#F0ECEB"/>
<path transform="translate(1564,511)" d="m0 0 2 2-1 4-4 1-1-3z" fill="#EDEAE9"/>
<path transform="translate(1635,272)" d="m0 0 2 1v2l-9 3-2-2z" fill="#E5EDF1"/>
<path transform="translate(1621,270)" d="m0 0 2 2 1 3 4 2v2l-5-1-2-1-1-6z" fill="#ECF3F7"/>
<path transform="translate(933,256)" d="m0 0h6l-3 3-7 1v-2l-2-1z" fill="#EBF2F6"/>
<path transform="translate(975,236)" d="m0 0h5l1 3-10 1v-2l-2-1z" fill="#F2F5F7"/>
<path transform="translate(1646,233)" d="m0 0 5 1-1 4-9-3v-1z" fill="#E6F0F5"/>
<path transform="translate(1648,1402)" d="m0 0 1 2 4-1 2 4-4 2-2-1z" fill="#83AEC6"/>
<path transform="translate(1e3 977)" d="m0 0h15v1h-8v2l-7-1z" fill="#2E313B"/>
<path transform="translate(145,888)" d="m0 0 2 2-3 8-4 1z" fill="#F4EFED"/>
<path transform="translate(1848,742)" d="m0 0h5l3 6-6-1-2-2z" fill="#F3EDEB"/>
<path transform="translate(705,683)" d="m0 0h7l7 2v1l-12-1-3 4v-5z" fill="#AF4276"/>
<path transform="translate(625,510)" d="m0 0 2 1-9 7h-2l2-4z" fill="#462E3E"/>
<path transform="translate(1617,262)" d="m0 0 5 1-2 1 1 7h-2l-3-6z" fill="#F8F8F9"/>
<path transform="translate(1565,245)" d="m0 0h12l-1 2-9 1-4-2z" fill="#ECF3F7"/>
</svg>
